<?xml version="1.0" encoding="UTF-8"?>
<svg id="Layer_1" data-name="Layer 1" xmlns="http://www.w3.org/2000/svg" version="1.1" viewBox="0 0 500 500">
  <defs>
    <style>
      .cls-1 {
        stroke-width: 50px;
      }

      .cls-1, .cls-2 {
        fill: none;
        stroke: #d1462f;
        stroke-miterlimit: 10;
      }

      .cls-3, .cls-4, .cls-5, .cls-6, .cls-7 {
        stroke-width: 0px;
      }

      .cls-3, .cls-8 {
        fill: #c8963e;
      }

      .cls-4 {
        fill: #2c241e;
      }

      .cls-5 {
        fill: #573d1c;
      }

      .cls-2 {
        stroke-width: 61.1px;
      }

      .cls-6 {
        fill: #fdf6e3;
      }

      .cls-7 {
        fill: #d1462f;
      }

      .cls-8 {
        stroke: #2c241e;
        stroke-linejoin: round;
        stroke-width: 7.7px;
      }
    </style>
  </defs>
  <g>
    <path class="cls-6" d="M162.9,370.7c-6.8-38.7-22-74-46.5-107.9,6,4.3,17.3,16.3,23.8,25.6,7.2,10.3,12.3,21.5,15.6,34.3l1-.2-.8-7.4c-.6-5.9-1.3-11.8-1.9-17.7-.2-1.4-.3-2.8-.5-4.2-.4-2.9-.8-6-.9-8.9-.1-5.1-2.1-7.6-6.9-8.7-5.6-1.2-7.9-4.4-7.4-10.6l9.9,3,.9-1.3-.5-.3c-.4-.2-.8-.4-1.1-.7-.8-.5-1.7-1.1-2.7-1.3-8.3-2.2-9.2-2.9-10.5-11.3l10.1,3.1.8-1.8-.5-.2c-.5-.2-1-.5-1.6-.7-1.1-.5-2.3-1.1-3.6-1.4-6.4-1.7-8.5-4.2-8.9-10.8l.9.2c1.2.3,2.4.6,3.5,1l.5.2c1.6.5,3.2,1,5.2,1.1h2.5c0,.1-2.3-1-2.3-1-1.3-.6-2.7-1.1-4.1-1.6-5.3-2-10.3-3.8-9.8-11.4l9.6,2.7,1.7-1.7-.8-.3c-.8-.3-1.7-.5-2.5-.7-6.3-1.8-12.3-3.5-11.8-11.7l13.7,4-3.8-2.2c-1.2-.7-2.6-1.3-3.9-1.9-5-2.2-9.7-4.3-9.6-11.6l12.2,4.7-1.7-1.7c-5.1-5.1-6.3-10.8-3.6-17.8.7.7,1.3,1.4,2,2,1.7,1.7,3.4,3.4,4.2,5.3.8,1.9.9,4.2,1,6.6,0,1.1,0,2.2.2,3.2l.2,1.6,6.6-11.3c5,6.8,1.3,11.6-2.7,16.8-.5.6-1,1.3-1.5,1.9l-.5.6,2.2.6,6.8-8.6c.3.8.6,1.5.8,2.3,1.4,3.5,2.5,6.4.2,10.2l-1.3,2,3.5-2.4c3.7,5.8,3.5,8.9-1.2,14.4-.8,1-1.5,2-2.2,3-.3.5-.6.9-.9,1.4l-.3.4,1.7,1.2,7-9.1h.6c.1,1,.3,2,.5,2.9.5,2.5.9,5,.4,7.2-.4,1.7-1.5,3.2-2.7,4.9-1,1.4-2,2.8-2.7,4.4l-1.4,3.3,8.5-10.4c3.5,5.3,3.4,8.5-.5,13.4-1.1,1.4-2.5,3.4-2.9,6.1l-.3,1.8,7.7-9.2c2.1,4,2.9,7.7.3,12.2-1.8,3-2.7,7-2.4,10.4,1.3,15.3,3.1,30.6,4.9,46.3.8,7,2.1,13.7,3.9,20.4l.6,2.2.4-2.3c.4-2.1.8-4.2,1.2-6.2.9-4.6,1.8-9.3,2.5-14.1,1.5-10.1,2.8-19.2,3.7-28.4,1.3-13.6-.7-27.1-6.2-41.3-4.6-11.8-9.1-23.9-13.5-35.6-1.8-4.8-3.6-9.6-5.4-14.4-.1-.3-.2-.6-.3-.8,25.4,39.3,34,75.6,27.2,113.9v.6c-.1,0,3-.1,3-.1v-.4c.6-2.7,1.3-5.5,1.9-8.1,1.4-6,2.8-12.2,3.5-18.5.8-7.2,1-14.5,1.1-21.6,0-3.4.2-7,.3-10.4.1-2.9-.9-4.8-3.4-6-.9-.4-1.7-1-2.5-1.6-.4-.3-.9-.6-1.3-.9-6.9-4.6-8.7-10.1-6-18.2.6.4,1.1.7,1.7,1.1,1.7,1.1,3.5,2.2,5.1,3.5,1.5,1.2,2.9,2.5,4.2,3.8l1.8,1.8.3.3,1.9-1.2-.3-.4c-.4-.5-.7-1-1.1-1.5-.8-1.2-1.7-2.5-2.8-3.6-.7-.8-1.7-1.3-2.7-1.8-.3-.2-.7-.4-1-.6-7.6-4.5-9.6-9.7-6.9-18.3l13,9.6,1.6-.8-.3-.5c-.3-.4-.5-.9-.8-1.3-.6-1.1-1.2-2.2-2.1-3.1s-1.9-1.4-2.9-2c-.4-.2-.8-.4-1.1-.6-7.9-4.7-9.9-9.7-7.4-18.9l13.2,9.7,1.5-.5-.4-.6c-.3-.4-.5-.9-.8-1.3-.6-1-1.3-2.1-2.1-3-.8-.8-1.8-1.3-2.8-1.8-.3-.2-.6-.3-1-.5-7.9-4.5-10.1-9.8-7.5-18.8l15.4,10.8-1.1-2c-.3-.6-.6-1.2-.9-1.7-.5-1-.9-1.9-1.6-2.5-1.1-1-2.3-1.7-3.6-2.4-.4-.2-.8-.4-1.2-.7-7.7-4.6-9.6-9.7-7.1-18.6l14.9,10.6-1.2-2c-.2-.4-.4-.8-.6-1.2-.4-.8-.8-1.6-1.4-2.2-1.3-1.2-2.9-2.1-4.4-3.1l-.6-.4c-7.3-4.6-9.3-10.1-6.9-19.1l14.7,13.6-.7-2c-.2-.6-.4-1.2-.6-1.8-.4-1.3-.8-2.6-1.4-3.8-3.8-6.9-2.6-15.3,3.2-21.1,6.9,7.2,7.7,12.5,3.2,21.6-.6,1.2-.7,2.5-.9,3.6,0,.5-.1.9-.2,1.3l-.4,1.7,14.2-14c2.8,6.5.9,14-4.5,17.8-.5.3-1,.7-1.5,1-2,1.3-4,2.7-5.8,4.4-.9.9-1.4,2.3-1.8,3.3-.2.4-.3.8-.4,1.1l-1,2.1,15.5-12.4c2.9,8.2.6,14.4-6.8,18.9-.6.4-1.3.7-2.1,1.1-2.8,1.4-6.1,2.9-5.6,7.6,0,.3.2.6.3.7l.3.7.5-.6c.6-.7,1.3-1.3,1.9-2,1.4-1.5,2.8-3.1,4.4-4.4,1.6-1.3,3.5-2.5,5.3-3.6.6-.4,1.3-.8,1.9-1.2,2.8,7.5.4,14.1-6.4,18.2l-.7.4c-1.1.7-2.2,1.3-3.3,2.1-4.4,2.9-4.5,3.1-4.2,7.3v1l.9-.7,13.8-11.9c2.6,10.7,1,14.4-8.3,20-.5.3-1.1.6-1.7.9-2.9,1.6-6.2,3.3-4.9,7.5l.2.7,14.1-11.6c3,7.6.8,14.5-5.9,18.4-.8.4-1.5.9-2.2,1.4-.9.6-1.9,1.2-2.8,1.7-2.9,1.6-4.1,3.8-3.4,6.2l.2.7,14.2-10.5c2.8,7.1.4,14.6-5.6,17.5-7.6,3.5-10.4,8.5-9.9,17,1.5,24.1-4.9,46.9-12.1,67.9-3.3,9.6-6.9,19.6-10.7,29.7-.5,1.3-2,2.4-3.4,3.4l.2.4Z"/>
    <path class="cls-4" d="M188.5,135.3c6.4,6.8,7,11.9,2.8,20.7-.6,1.2-.8,2.6-.9,3.8,0,.5-.1.9-.2,1.2l-.7,3.4,2.5-2.4,12.4-12.2c2.3,6.1.4,13-4.6,16.4-.5.3-1,.7-1.5,1-2,1.3-4.1,2.7-5.8,4.4s-1.6,2.4-2,3.5c-.1.4-.3.8-.4,1.1l-.8,1.7-1.5-2.6c-.2-.4-.4-.8-.6-1.1-.4-.9-.8-1.7-1.6-2.4-1.4-1.2-2.9-2.2-4.4-3.1l-.6-.4c-6.9-4.3-8.9-9.4-6.9-17.7l5.9,5.4,6.7,6.2,3,2.8-1.4-3.9c-.2-.6-.4-1.2-.5-1.8-.4-1.3-.8-2.7-1.5-3.9-3.6-6.6-2.5-14.5,2.7-20.1M204.7,166.8c2.4,7.7.3,13.3-6.8,17.6-.6.4-1.3.7-2,1.1-2.8,1.4-6.4,3.1-5.9,8.1,0,.4.2.7.4.9l.6,1.3,1-1.1c.6-.7,1.3-1.4,1.9-2,1.4-1.5,2.8-3.1,4.4-4.4,1.6-1.3,3.5-2.5,5.3-3.6.4-.3.9-.5,1.3-.8,2.4,7.1.1,13.1-6.4,17l-.7.4c-1.1.7-2.3,1.4-3.4,2.1-4.5,2.9-4.8,3.3-4.4,7.8l.2,2.1,1.6-1.3,3.5-3,9.6-8.3c2.3,9.8.6,13.3-8.3,18.6-.5.3-1.1.6-1.7.9-2.9,1.6-6.5,3.5-5.1,8.1l.5,1.5,1.2-1,5.9-4.9,7-5.8c2.5,7.1.3,13.4-5.9,17.1-.8.5-1.5.9-2.3,1.4-1,.6-1.8,1.2-2.8,1.7-3.1,1.7-4.4,4.1-3.6,6.8l.4,1.4,1.2-.9,13-9.6c2.4,6.6,0,13.6-5.6,16.2-7.8,3.6-10.8,8.7-10.2,17.5,1.5,24-4.9,46.7-12,67.7-3.3,9.6-6.9,19.6-10.7,29.7-.4,1-1.4,1.9-2.5,2.7-6.7-37.3-21.2-71.5-44.3-104.3,6.2,5.4,15.3,15.3,20.8,23.2,7.1,10.2,12.2,21.4,15.5,34.1l2-.4-.8-7.3c-.6-5.9-1.3-11.8-1.9-17.7-.2-1.4-.3-2.8-.5-4.2-.4-2.9-.8-5.9-.9-8.9-.1-5.3-2.3-8.1-7.4-9.2-5.2-1.1-7.3-3.9-7-9.4l8.9,2.7.7.2.4-.6.4-.5.7-1-1-.5c-.4-.2-.7-.4-1.1-.7-.9-.5-1.8-1.1-2.8-1.4-7.8-2-8.8-2.7-10-10.1l8.8,2.7.9.3.4-.8.2-.4.2-.4.4-1-1-.4c-.5-.2-1-.5-1.5-.7-1.2-.6-2.4-1.1-3.7-1.5-6-1.6-8-3.8-8.4-9.6h.2c1.2.3,2.4.6,3.5,1l.5.2c1.6.5,3.3,1,5.4,1.1l5.1.2-4.6-2.2c-1.3-.6-2.7-1.2-4.1-1.7-5.2-1.9-9.7-3.6-9.5-10.2l4.3,1.2,4.3,1.2.6.2.4-.4.6-.6.3-.3,1.2-1.2-1.6-.5c-.8-.3-1.7-.5-2.5-.7-6.2-1.7-11.6-3.3-11.5-10.5l1.7.5,7.2,2.1,8.4,2.4-7.6-4.4c-1.3-.7-2.6-1.3-4-1.9-4.8-2.1-9-4-9.3-10.4l1.7.7,7.5,2.9,4.6,1.8-3.5-3.5c-4.8-4.8-6-9.9-3.8-16.4.5.5.9,1,1.4,1.4,1.8,1.8,3.3,3.3,4.1,5.1s.9,4.1.9,6.4,0,2.2.2,3.3l.3,3.2,1.6-2.8,3.9-6.6,1.6-2.6c4.1,6.1.7,10.5-3.2,15.5-.5.6-1,1.3-1.5,1.9l-.9,1.2,1.5.4,1.1.3.7.2.4-.5,1.8-2.3,4.2-5.3c.2.5.4.9.5,1.4,1.3,3.3,2.4,6.2.3,9.7l-2.5,4.1,4-2.7.9-.6h.2c3.3,5.2,2.9,8.1-1.4,13.3-.8,1-1.5,2-2.2,3.1-.3.5-.6.9-.9,1.4l-.6.9.9.6.9.6.8.6.6-.8,6.5-8.4c.1.8.3,1.6.4,2.4.5,2.5.9,4.9.4,7-.4,1.6-1.5,3.1-2.6,4.7-1,1.4-2,2.9-2.7,4.5l-2.7,6.6,4.5-5.5,3.9-4.8,1.9-2.3c3,4.7,2.7,7.6-.9,12.2-1.2,1.5-2.6,3.6-3,6.3l-.6,3.7,2.4-2.9,6-7.1c1.8,3.6,2.3,7,0,11-1.8,3.1-2.7,7.2-2.4,10.7,1.3,15.3,3.1,30.6,4.9,46.3.8,7.1,2.1,13.8,3.9,20.5l1.2,4.5.8-4.6c.4-2.1.8-4.2,1.2-6.2.9-4.6,1.8-9.4,2.5-14.1,1.5-10.1,2.8-19.2,3.7-28.4,1.3-13.7-.7-27.3-6.2-41.5-4.6-11.8-9.1-23.9-13.5-35.6-1.3-3.5-2.6-7-3.9-10.5,10.2,16.5,17.3,32.4,21.6,48.3,5.5,20.4,6.5,40.3,2.8,61l-.2,1.3h3.3c0-.1.8-.1.8-.1l.2-.8c.6-2.7,1.2-5.4,1.8-8.1,1.4-6,2.8-12.3,3.5-18.5.8-7.2,1-14.5,1.1-21.7,0-3.4.2-7,.3-10.4.1-3.2-1-5.2-3.7-6.5-.8-.4-1.6-1-2.5-1.6-.4-.3-.9-.6-1.3-.9-6.4-4.3-8.3-9.4-6-17,.4.2.8.5,1.1.7,1.7,1.1,3.4,2.2,5,3.4,1.5,1.1,2.8,2.5,4.2,3.8l1.8,1.8.6.6.7-.5,1.1-.7.9-.6-.7-.9c-.4-.5-.7-1-1.1-1.5-.9-1.2-1.8-2.5-2.8-3.6-.8-.8-1.8-1.4-2.8-1.9-.3-.2-.7-.4-1-.5-7.2-4.2-9.2-9.1-6.9-17l6.1,4.5,6,4.4.5.4.6-.3.8-.4,1-.5-.6-1c-.3-.4-.5-.9-.8-1.3-.6-1.1-1.3-2.2-2.2-3.2-.9-.9-2-1.5-3.1-2.1-.4-.2-.8-.4-1.1-.6-7.6-4.5-9.5-9-7.3-17.6l3.3,2.4,9,6.7.4.3.5-.2.6-.2,1.3-.4-.7-1.1c-.3-.4-.5-.9-.8-1.3-.6-1.1-1.3-2.2-2.2-3.1-.8-.9-1.9-1.4-2.9-2-.3-.2-.6-.3-.9-.5-7.5-4.3-9.6-9.2-7.4-17.5l10,7,2.9,2,3.7,2.6-2.2-4c-.3-.6-.6-1.2-.9-1.7-.5-1.1-1-2-1.7-2.6-1.1-1-2.4-1.7-3.7-2.4-.4-.2-.8-.4-1.2-.7-7.2-4.3-9.2-9.1-7-17.3l4.1,2.9,8.3,5.9,2.7,1.9-.9,1.8,1.6-1.3.4.3-.3-.5,1.8-1.4,13.2-10.6M188.5,133.8c-6.2,5.9-7.6,14.8-3.6,22,.9,1.7,1.3,3.7,2,5.5-4.8-4.4-9.1-8.5-13.8-12.8-2.9,9.9-.7,15.7,6.9,20.5,1.7,1.1,3.4,2.1,4.9,3.4.8.7,1.2,2,1.9,3.2-4.8-3.4-9.2-6.5-13.6-9.7-2.9,9.6-1,15.1,7.1,19.9,1.6,1,3.3,1.8,4.7,3,.9.8,1.3,2.2,2.3,4-5.3-3.7-9.7-6.8-14.1-9.9-3,9.6-.8,15.4,7.5,20.1,1.2.7,2.6,1.3,3.6,2.3s1.9,2.8,2.9,4.2c-.2,0-.4.1-.6.2-4.5-3.3-8.9-6.6-13.5-10-3,10-.9,15.3,7.4,20.2,1.3.8,2.9,1.4,4,2.5s1.9,2.9,2.8,4.3l-.8.4c-4.4-3.3-8.8-6.5-13.3-9.8-3.1,9.3-1,14.9,6.9,19.6,1.2.7,2.6,1.3,3.6,2.3,1.4,1.5,2.6,3.4,3.8,5.1l-1.1.7c-2-1.9-3.9-4-6.1-5.7-2.3-1.8-4.9-3.3-7.4-4.9-3.1,8.7-1.2,14.6,6,19.4,1.3.9,2.5,1.9,3.9,2.6,2.4,1.1,3.2,2.9,3.1,5.5-.5,10.7-.3,21.4-1.4,32-1,8.9-3.5,17.7-5.3,26.5h-2c7.7-43.4-5.5-81.5-28.9-116.9.2,1.4.6,2.7,1.1,3.9,6.3,16.7,12.4,33.4,18.9,50,5.1,13.3,7.5,26.9,6.1,41.1-.9,9.5-2.3,18.9-3.7,28.4-1,6.8-2.4,13.5-3.6,20.3-1.8-6.8-3.1-13.6-3.9-20.3-1.8-15.4-3.6-30.8-4.9-46.3-.3-3.3.6-7.2,2.3-10.1,2.8-4.8,1.9-8.8-.6-13.4-2.5,3-4.8,5.6-7,8.3.4-2.3,1.5-4.2,2.8-5.9,4.2-5.2,4.3-8.7.1-14.5-2.3,2.8-4.5,5.5-6.7,8.2,1.4-3.4,4.5-6.1,5.4-9.4.9-3.3-.5-7.2-.9-10.8h-1.3c-2.3,3-4.6,6-6.9,8.9-.3-.2-.6-.4-.9-.6,1-1.5,2-3,3.1-4.4,4.9-5.8,5.1-9.3.9-15.5-.7.4-1.3.9-2,1.3,3.1-5.1,0-9.1-1.3-13.8-2.7,3.4-4.9,6.2-7.2,9.1-.4-.1-.7-.2-1.1-.3,4.4-6,10.4-11.7,3.7-19.9-2.1,3.6-4.1,7-6.2,10.5-.3-3.4,0-7.1-1.2-10s-4.2-5.1-6.8-8.1c-3.2,8-1.8,13.9,3.4,19.1-3.5-1.3-7-2.7-10.6-4.1-.5,10.4,7.9,11.4,13.8,14.7-3.4-1-6.8-2-10.1-2.9-1,10.4,7.4,11.4,14.7,13.6-.3.3-.6.6-.8.9-3.3-.9-6.6-1.9-9.9-2.8-1.1,10.7,7.8,11.2,14.1,14.2-2.2,0-3.9-.7-5.6-1.2-1.7-.5-3.4-.9-5.1-1.4.3,7.4,2.5,10.1,9.3,12,1.7.5,3.4,1.4,5.1,2.1-.1.3-.3.6-.4.9-3.4-1.1-6.8-2.1-10.4-3.2,1.5,9.5,2.3,10.3,11.1,12.6,1.3.3,2.5,1.3,3.7,1.9-.1.2-.2.4-.4.5-3.4-1-6.7-2-10.1-3-.7,6.6,1.5,10.4,7.7,11.8,4.8,1.1,6.4,3.6,6.5,8.2,0,4.4.9,8.8,1.4,13.2.9,8.3,1.8,16.7,2.7,25-3.3-12.5-8.4-24-15.7-34.5s-21-24.7-26.1-27.1c24.4,33.2,41,69.5,48.1,110.5,1.8-1.2,3.6-2.4,4.3-4,3.7-9.8,7.3-19.7,10.7-29.7,7.5-22.1,13.6-44.6,12.1-68.1-.5-8.5,2.2-13.1,9.6-16.5,6.7-3.1,8.9-11.4,5.6-18.7-4.8,3.6-9.6,7.1-14.1,10.4-.7-2.2.5-4.2,3.1-5.6,1.8-.9,3.4-2.1,5.1-3.2,7.1-4.1,9.4-11.5,5.9-19.7-4.9,4-9.6,7.9-14,11.6-1.4-4.6,3.1-5.9,6.4-7.9,9.6-5.8,11.3-9.8,8.3-21.4-5.2,4.5-10.1,8.7-14.4,12.4-.2-2.7,1.1-5,4-6.9,1.3-.9,2.7-1.7,4-2.5,7.3-4.4,9.6-11.4,6.4-19.5-2.6,1.7-5.4,3.2-7.8,5.1-2.3,1.9-4.3,4.3-6.4,6.5,0,0-.2-.2-.2-.5-.5-5.4,4.2-6.3,7.4-8.2,7.7-4.7,10.2-11.2,6.8-20.2-4.9,3.9-9.6,7.7-14.3,11.5.5-1.1,1-3.1,2.2-4.3,2.1-2,4.7-3.6,7.2-5.3,5.7-3.9,7.8-12,4.4-19.1-4.6,4.6-9.1,8.9-13.5,13.3.3-1.3.3-3.2,1.1-4.8,4.6-9.5,3.7-15.1-3.7-22.6h0l-.6.5Z"/>
  </g>
  <g>
    <path class="cls-5" d="M286.6,370.7c-6.8-38.7-22-74-46.5-107.9,6,4.3,17.3,16.3,23.8,25.6,7.2,10.3,12.3,21.5,15.6,34.3,0,.2.3.4.5.4s0,0,0,0c.3,0,.5-.3.4-.6l-.9-7.9c-.6-5.7-1.2-11.4-1.8-17.1-.2-1.4-.3-2.8-.5-4.2-.4-2.9-.8-6-.9-8.9-.1-5.1-2.1-7.6-6.9-8.7-5.6-1.2-7.9-4.4-7.4-10.6l9.4,2.8h.2c.2,0,.4,0,.5-.2l.4-.5c0-.1.1-.3,0-.4,0-.1-.1-.3-.3-.3-.4-.2-.8-.4-1.1-.7-.8-.5-1.7-1.1-2.7-1.3-8.3-2.2-9.1-2.9-10.5-11.3l9.6,3h.2c.2,0,.4-.1.5-.3l.4-.9v-.4c0-.1-.2-.2-.3-.3-.5-.2-1-.5-1.6-.7-1.1-.5-2.3-1.1-3.6-1.4-6.4-1.7-8.5-4.2-8.9-10.8l.9.2c1.2.3,2.4.6,3.5,1l.5.2c1.6.5,3.2,1,5.2,1.1h0c.2,0,.4-.2.5-.4,0-.2,0-.5-.3-.6-1.3-.6-2.7-1.1-4.1-1.6-5.3-2-10.3-3.8-9.8-11.4l9.3,2.6h.1c.1,0,.3,0,.4-.2l.8-.9c.1-.1.2-.3.1-.5,0-.2-.2-.3-.4-.4-.8-.3-1.7-.5-2.5-.7-6.3-1.8-12.3-3.5-11.8-11.7l9.5,2.7h.1c.2,0,.4-.1.5-.3s0-.5-.2-.7c-1.2-.7-2.6-1.3-3.9-1.9-5-2.2-9.7-4.3-9.6-11.6l9.9,3.8h.2c.2,0,.3,0,.4-.2.1-.2.1-.5,0-.7-5.1-5.1-6.3-10.8-3.6-17.8.7.7,1.3,1.4,2,2,1.7,1.7,3.4,3.4,4.2,5.3.8,1.9.9,4.2,1,6.6,0,1.1,0,2.2.2,3.2,0,.2.2.4.4.5h.1c.2,0,.4,0,.4-.3l5.8-9.9c5,6.8,1.3,11.6-2.7,16.8-.5.6-1,1.3-1.5,1.9-.1.1-.1.3,0,.5,0,.2.2.3.4.3l1.1.3h.1c.2,0,.3,0,.4-.2l6.6-8.3c.3.8.6,1.5.8,2.3,1.4,3.5,2.5,6.4.2,10.2-.1.2,0,.5,0,.6.1,0,.2.1.4.1h.3l1.5-1c3.7,5.8,3.5,8.9-1.2,14.4-.8,1-1.5,2-2.2,3-.3.5-.6.9-.9,1.4,0,.1-.1.3,0,.4,0,.1.1.3.2.3l.9.6h.3c.2,0,.3,0,.4-.2l6.7-8.7h.6c.1,1,.3,2,.5,3,.5,2.5.9,5,.4,7.2-.4,1.7-1.5,3.2-2.7,4.9-1,1.4-2,2.8-2.7,4.4,0,.2,0,.5.2.6h.3c.2,0,.3,0,.4-.2l6.2-7.6c3.5,5.3,3.4,8.5-.5,13.4-1.1,1.4-2.5,3.4-2.9,6.1,0,.2,0,.5.3.6h.2c.1,0,.3,0,.4-.2l6.5-7.7c2.1,4,2.9,7.7.3,12.2-1.8,3-2.7,7-2.4,10.4,1.3,15.2,3.1,30.6,4.9,46.3.8,7,2.1,13.7,3.9,20.4,0,.2.3.4.5.4h0c.2,0,.4-.2.5-.4.4-2.1.8-4.2,1.2-6.2.9-4.6,1.8-9.4,2.5-14.1,1.5-10.1,2.8-19.2,3.7-28.4,1.3-13.6-.7-27.1-6.2-41.3-4.6-11.8-9.1-23.9-13.5-35.6-1.8-4.8-3.6-9.6-5.4-14.3-.1-.3-.2-.6-.3-.8,25.4,39.3,34,75.6,27.2,113.9,0,.2,0,.3.1.4,0,.1.2.2.4.2h2.1c.2,0,.4-.2.5-.4.6-2.7,1.2-5.5,1.8-8.1,1.4-6,2.8-12.2,3.5-18.5.8-7.2.9-14.5,1.1-21.6,0-3.4.2-7,.3-10.4.1-2.9-.9-4.8-3.4-6-.9-.4-1.7-1-2.5-1.6s-.9-.6-1.3-.9c-6.9-4.6-8.7-10.1-6-18.2.6.4,1.1.7,1.7,1.1,1.7,1.1,3.5,2.2,5.1,3.5,1.5,1.2,2.9,2.5,4.2,3.8.6.6,1.2,1.2,1.8,1.8,0,0,.2.1.4.1h.3l1.1-.7c.1,0,.2-.2.2-.3v-.4c-.4-.5-.7-1-1.1-1.5-.8-1.2-1.7-2.5-2.8-3.6-.7-.8-1.7-1.3-2.7-1.8-.3-.2-.7-.4-1-.6-7.6-4.5-9.6-9.7-6.9-18.3l12.7,9.4s.2.1.3.1h.2l.8-.4c.1,0,.2-.2.3-.3v-.4c-.3-.4-.5-.9-.8-1.3-.6-1.1-1.2-2.2-2.1-3.1-.8-.8-1.9-1.4-2.9-2-.4-.2-.8-.4-1.1-.6-7.9-4.7-9.9-9.7-7.4-18.9l12.9,9.5s.2.1.3.1h.2l.6-.2c.2,0,.3-.2.3-.3v-.5c-.3-.4-.5-.9-.8-1.3-.6-1-1.3-2.1-2.1-3-.8-.8-1.8-1.3-2.8-1.8-.3-.2-.6-.3-1-.5-7.9-4.5-10.1-9.8-7.5-18.8l13.5,9.5h.3c0,0,.2,0,.3-.1.2-.2.2-.4.1-.6-.3-.6-.6-1.2-.9-1.7-.5-1-.9-1.9-1.6-2.5-1.1-1-2.3-1.7-3.6-2.4s-.8-.4-1.2-.7c-7.7-4.6-9.6-9.7-7.1-18.6l13,9.2h.3c0,0,.2,0,.3-.1.2-.2.2-.4.1-.6-.2-.4-.4-.8-.6-1.2-.4-.8-.8-1.6-1.4-2.2-1.3-1.2-2.9-2.1-4.4-3.1l-.6-.4c-7.3-4.6-9.3-10.1-6.9-19.1l13.2,12.2s.2.1.4.1h.3c.2-.1.3-.4.2-.6-.2-.6-.4-1.2-.6-1.8-.4-1.3-.8-2.6-1.4-3.8-3.8-6.9-2.6-15.3,3.2-21.1,6.9,7.2,7.7,12.5,3.2,21.6-.6,1.2-.7,2.5-.9,3.6,0,.5-.1.9-.2,1.3,0,.2,0,.5.3.6h.2c.1,0,.3,0,.4-.1l12.9-12.7c2.8,6.5.9,14-4.5,17.8-.5.3-1,.7-1.5,1-2,1.3-4,2.7-5.8,4.4-1,.9-1.4,2.3-1.8,3.3-.2.4-.3.8-.4,1.1-.1.2,0,.5.1.6,0,0,.2.1.3.1s.2,0,.3-.1l13.7-11c2.9,8.2.6,14.4-6.8,18.9-.6.4-1.3.7-2.1,1.1-2.8,1.4-6.1,2.9-5.6,7.6,0,.3.2.6.3.7,0,.1.2.2.4.3h0c.1,0,.3,0,.4-.2.6-.7,1.3-1.3,1.9-2,1.4-1.5,2.8-3.1,4.4-4.4,1.6-1.3,3.5-2.5,5.3-3.6.6-.4,1.3-.8,1.9-1.2,2.8,7.5.4,14.1-6.4,18.2l-.7.4c-1.1.7-2.3,1.3-3.4,2.1-4.4,2.9-4.5,3.1-4.2,7.3,0,.2.1.4.3.4h.2c.1,0,.2,0,.3-.1l13.8-11.9c2.6,10.7,1,14.4-8.3,20-.5.3-1.1.6-1.7.9-2.9,1.6-6.2,3.3-4.9,7.5,0,.2.2.3.3.3h.2c.1,0,.2,0,.3-.1l13.5-11.1c3,7.6.8,14.5-5.9,18.4-.8.4-1.5.9-2.2,1.4-.9.6-1.9,1.2-2.8,1.7-2.9,1.6-4.1,3.8-3.4,6.2,0,.2.2.3.3.3h.2c.1,0,.2,0,.3-.1l13.6-10.1c2.8,7.1.4,14.6-5.6,17.5-7.6,3.5-10.4,8.5-9.9,17,1.5,24.1-4.9,46.9-12.1,67.9-3.3,9.6-6.9,19.5-10.7,29.7-.5,1.3-2,2.4-3.4,3.4l.7.2Z"/>
    <path class="cls-4" d="M312.2,135.3c6.4,6.8,7,11.9,2.8,20.7-.6,1.2-.8,2.6-.9,3.8,0,.5-.1.9-.2,1.2,0,.4.1.9.5,1.1.2,0,.3.1.5.1.3,0,.5-.1.7-.3l12.4-12.2c2.3,6.1.4,13-4.6,16.4-.5.3-1,.7-1.5,1-2,1.3-4.1,2.7-5.8,4.4-1,1-1.6,2.4-2,3.5-.1.4-.3.8-.4,1.1-.2.4,0,1,.3,1.3.2.2.4.2.6.2s.5,0,.7-.2l13.2-10.6c2.4,7.7.3,13.3-6.8,17.6-.6.4-1.3.7-2,1.1-2.8,1.4-6.4,3.1-5.9,8.1,0,.4.3.8.4.9.2.2.4.4.7.5h.2c.3,0,.6-.1.7-.3.6-.7,1.3-1.4,1.9-2,1.4-1.5,2.8-3.1,4.4-4.4,1.6-1.3,3.5-2.5,5.3-3.6.4-.3.9-.5,1.3-.8,2.4,7.1.1,13.1-6.4,17l-.7.4c-1.1.7-2.3,1.4-3.4,2.1-4.5,2.9-4.8,3.3-4.4,7.8,0,.4.3.7.6.9h.4c.2,0,.5,0,.7-.3l13.1-11.3c2.3,9.8.6,13.3-8.3,18.6-.5.3-1.1.6-1.7.9-2.9,1.6-6.5,3.5-5.1,8.1.1.3.4.6.7.7h.3c.2,0,.5,0,.7-.2l5.9-4.9,7-5.8c2.5,7.1.3,13.4-5.9,17.1-.8.5-1.5.9-2.3,1.4-1,.6-1.8,1.2-2.8,1.7-3.1,1.7-4.4,4.1-3.6,6.8,0,.3.3.6.7.7h.3c.2,0,.4,0,.6-.2l7.5-5.6,5.5-4.1c2.4,6.6,0,13.6-5.6,16.2-7.8,3.6-10.8,8.7-10.2,17.5,1.5,24-4.9,46.7-12,67.7-3.3,9.6-6.9,19.6-10.7,29.7-.4,1-1.4,1.9-2.5,2.7-6.7-37.3-21.2-71.5-44.3-104.3,6.2,5.4,15.3,15.3,20.8,23.2,7.1,10.2,12.2,21.4,15.5,34.1.1.5.5.8,1,.8s.1,0,.2,0c.5,0,.9-.6.8-1.1l-.8-7.3c-.6-5.9-1.3-11.8-1.9-17.7-.2-1.4-.3-2.8-.5-4.2-.4-2.9-.8-5.9-.9-8.9-.1-5.3-2.3-8.1-7.4-9.2-5.2-1.1-7.3-3.9-7-9.4l8.9,2.7h.3c.3,0,.7-.2.9-.4l.2-.3.2-.3c.2-.2.2-.5.2-.8s-.3-.5-.5-.7c-.4-.2-.7-.4-1.1-.7-.9-.5-1.8-1.1-2.8-1.4-7.8-2-8.8-2.7-10-10.1l.8.2,8.1,2.5h.3c.4,0,.8-.2.9-.6l.2-.4.2-.4c.1-.3.1-.5,0-.8s-.3-.5-.6-.6c-.5-.2-1-.5-1.5-.7-1.2-.6-2.4-1.1-3.7-1.5-6-1.6-8-3.8-8.4-9.6h.2c1.2.3,2.4.6,3.5,1l.5.2c1.6.5,3.3,1,5.4,1.1h0c.5,0,.9-.3,1-.8s-.1-1-.6-1.2c-1.3-.6-2.7-1.2-4.1-1.7-5.2-1.9-9.7-3.6-9.5-10.2l3.7,1,4.9,1.4h.3c.3,0,.5-.1.7-.3l.4-.4.4-.4c.3-.3.4-.6.3-1,0-.4-.4-.6-.7-.7-.8-.3-1.7-.5-2.5-.7-6.2-1.7-11.6-3.3-11.5-10.5l8.8,2.6h.3c.4,0,.8-.2,1-.6.2-.5,0-1-.4-1.3-1.3-.7-2.6-1.3-4-1.9-4.8-2.1-9-4-9.3-10.4l1.1.4,8.1,3.1h.4c.3,0,.7-.2.9-.5.3-.4.2-1-.1-1.3-4.8-4.8-6-9.9-3.8-16.4.5.5.9,1,1.4,1.4,1.8,1.8,3.3,3.3,4.1,5.1.8,1.8.9,4.1.9,6.4s0,2.2.2,3.3c0,.4.4.8.8.9h.2c.4,0,.7-.2.9-.5l5.4-9.2c4.1,6.1.7,10.5-3.2,15.5-.5.6-1,1.3-1.5,1.9-.2.3-.3.6-.1,1s.4.6.7.7l1.1.3h.3c.3,0,.6-.1.8-.4l6-7.6c.2.5.4.9.5,1.4,1.3,3.3,2.4,6.2.3,9.7-.3.4-.2,1,.2,1.3.2.2.5.3.7.3s.4,0,.6-.2l.8-.5.3-.2c3.3,5.3,2.9,8.2-1.4,13.4-.8,1-1.5,2-2.2,3.1-.3.5-.6.9-.9,1.4-.2.2-.2.5-.2.8s.2.5.4.7l.9.6c.2.1.4.2.6.2.3,0,.6-.1.8-.4l3.5-4.5,3-3.9c.1.8.3,1.6.4,2.4.5,2.5.9,4.9.4,7-.4,1.6-1.5,3.1-2.6,4.7-1,1.4-2,2.9-2.7,4.5-.2.5,0,1,.4,1.3.2,0,.4.1.5.1.3,0,.6-.1.8-.4l2.6-3.2,3.2-3.9c3,4.7,2.7,7.6-.9,12.2-1.2,1.5-2.6,3.6-3,6.3,0,.5.2.9.6,1.1h.4c.3,0,.6-.1.8-.4l1.8-2.1,4.2-5c1.8,3.6,2.3,7,0,11-1.8,3.1-2.7,7.2-2.4,10.7,1.3,15.3,3.1,30.6,4.9,46.3.8,7.1,2.1,13.8,3.9,20.5.1.5.5.8,1,.8s0,0,0,0c.5,0,.9-.4,1-.9.4-2.1.8-4.2,1.2-6.2.9-4.6,1.8-9.4,2.5-14.1,1.5-10.1,2.8-19.2,3.7-28.4,1.3-13.7-.7-27.3-6.2-41.5-4.6-11.8-9.1-23.9-13.5-35.6-1.3-3.5-2.6-7-3.9-10.5,10.2,16.5,17.3,32.4,21.6,48.3,5.5,20.4,6.5,40.3,2.8,61,0,.3,0,.6.2.9.2.2.5.4.8.4s0,0,0,0h2c.5-.1.9-.4,1-.9.6-2.7,1.2-5.4,1.8-8.1,1.4-6,2.8-12.3,3.5-18.5.8-7.2,1-14.5,1.1-21.7,0-3.4.2-7,.3-10.4.1-3.2-1-5.2-3.7-6.5-.8-.4-1.6-1-2.5-1.6-.4-.3-.9-.6-1.3-.9-6.4-4.3-8.3-9.4-6-17,.4.2.8.5,1.1.7,1.7,1.1,3.4,2.2,5,3.4,1.5,1.1,2.8,2.5,4.2,3.8.6.6,1.2,1.2,1.8,1.8.2.2.5.3.7.3s.4,0,.6-.2l.7-.5.4-.2c.2-.2.4-.4.5-.7,0-.3,0-.6-.2-.8-.4-.5-.7-1-1.1-1.5-.9-1.2-1.8-2.5-2.8-3.6-.8-.8-1.8-1.4-2.8-1.9-.3-.2-.7-.4-1-.5-7.2-4.2-9.2-9.1-6.9-17l12.1,8.9c.2.1.4.2.6.2s.3,0,.5-.1l.8-.4c.3-.1.4-.4.5-.6,0-.3,0-.6-.1-.8-.3-.4-.5-.9-.8-1.3-.6-1.1-1.3-2.2-2.2-3.2-.9-.9-2-1.5-3.1-2.1-.4-.2-.8-.4-1.1-.6-7.6-4.5-9.5-9-7.3-17.6l3.3,2.4,9,6.7c.2.1.4.2.6.2h.3l.6-.2c.3-.1.5-.3.7-.6.1-.3,0-.6-.1-.9-.3-.4-.5-.9-.8-1.3-.6-1.1-1.3-2.2-2.2-3.1-.8-.9-1.9-1.4-2.9-2-.3-.2-.6-.3-.9-.5-7.5-4.3-9.6-9.2-7.4-17.5l12.9,9c.2.1.4.2.6.2s.5,0,.7-.3c.4-.3.4-.9.2-1.3-.3-.6-.6-1.2-.9-1.7-.5-1.1-1-2-1.7-2.6-1.1-1-2.4-1.7-3.7-2.4-.4-.2-.8-.4-1.2-.7-7.2-4.3-9.2-9.1-7-17.3l5.1,3.6,7.3,5.2c.2.1.4.2.6.2s.5,0,.7-.3c.4-.3.4-.9.2-1.3-.2-.4-.4-.8-.6-1.1-.4-.9-.8-1.7-1.6-2.4-1.4-1.2-2.9-2.2-4.4-3.1l-.6-.4c-6.9-4.3-8.9-9.4-6.9-17.7l5.9,5.4,6.7,6.2c.2.2.5.3.7.3s.4,0,.6-.2c.4-.3.6-.8.4-1.2-.2-.6-.4-1.2-.5-1.8-.4-1.3-.8-2.7-1.5-3.9-3.6-6.6-2.5-14.5,2.7-20.1M312.2,133.8c-6.2,5.9-7.6,14.8-3.6,22,.9,1.7,1.3,3.7,2,5.5-4.8-4.4-9.1-8.5-13.8-12.8-2.9,9.9-.7,15.7,6.9,20.5,1.7,1.1,3.4,2.1,4.9,3.4.8.7,1.2,2,1.9,3.2-4.8-3.4-9.2-6.5-13.6-9.7-2.9,9.6-1,15.1,7.1,19.9,1.6,1,3.3,1.8,4.7,3,.9.8,1.3,2.2,2.3,4-5.3-3.7-9.7-6.8-14.1-9.9-3,9.6-.8,15.4,7.5,20.1,1.2.7,2.6,1.3,3.6,2.3,1.2,1.2,1.9,2.8,2.9,4.2-.2,0-.4.1-.6.2-4.5-3.3-8.9-6.6-13.5-10-3,10-.9,15.3,7.4,20.2,1.3.8,2.9,1.4,4,2.5,1.2,1.2,1.9,2.9,2.8,4.3-.3.1-.5.3-.8.4-4.4-3.3-8.8-6.5-13.3-9.8-3.1,9.3-1,14.9,6.9,19.6,1.2.7,2.6,1.3,3.6,2.3,1.4,1.5,2.6,3.4,3.8,5.1-.4.2-.7.5-1.1.7-2-1.9-3.9-4-6.1-5.7-2.3-1.8-4.9-3.3-7.4-4.9-3.1,8.7-1.2,14.6,6,19.4,1.3.9,2.5,1.9,3.9,2.6,2.4,1.1,3.2,2.9,3.1,5.5-.5,10.7-.3,21.4-1.4,32-1,8.9-3.5,17.7-5.3,26.5h-2c7.7-43.4-5.5-81.5-28.9-116.9.2,1.4.6,2.7,1.1,3.9,6.3,16.7,12.4,33.4,18.9,50,5.1,13.3,7.5,26.9,6.1,41.1-.9,9.5-2.3,18.9-3.7,28.4-1,6.8-2.4,13.5-3.6,20.3-1.8-6.8-3.1-13.6-3.9-20.3-1.8-15.4-3.6-30.8-4.9-46.3-.3-3.3.6-7.2,2.3-10.1,2.8-4.8,1.9-8.8-.6-13.4-2.5,3-4.8,5.6-7,8.3.4-2.3,1.5-4.2,2.8-5.9,4.2-5.2,4.3-8.7.1-14.5-2.3,2.8-4.5,5.5-6.7,8.2,1.4-3.4,4.5-6.1,5.4-9.4.9-3.3-.5-7.2-.9-10.8h-1.3c-2.3,3-4.6,6-6.9,8.9-.3-.2-.6-.4-.9-.6,1-1.5,2-3,3.1-4.4,4.9-5.8,5.1-9.3.9-15.5-.7.4-1.3.9-2,1.3,3.1-5.1,0-9.1-1.3-13.8-2.7,3.4-4.9,6.2-7.2,9.1-.4-.1-.7-.2-1.1-.3,4.4-6,10.4-11.7,3.7-19.9-2.1,3.6-4.1,7-6.2,10.5-.3-3.4,0-7.1-1.2-10-1.2-2.9-4.2-5.1-6.8-8.1-3.2,8-1.8,13.9,3.4,19.1-3.5-1.3-7-2.7-10.6-4.1-.5,10.4,7.9,11.4,13.8,14.7-3.4-1-6.9-2-10.1-2.9-1,10.4,7.4,11.4,14.7,13.6-.3.3-.6.6-.8.9-3.3-.9-6.6-1.9-9.9-2.8-1.1,10.7,7.8,11.2,14.1,14.2-2.2,0-3.9-.7-5.6-1.2s-3.4-.9-5.1-1.4c.3,7.4,2.5,10.1,9.3,12,1.7.5,3.4,1.4,5.1,2.1-.1.3-.3.6-.4.9-3.4-1.1-6.9-2.1-10.4-3.2,1.5,9.5,2.3,10.3,11.1,12.6,1.3.3,2.5,1.3,3.7,1.9-.1.2-.2.4-.4.5-3.4-1-6.7-2-10.1-3-.7,6.6,1.5,10.4,7.7,11.8,4.8,1.1,6.4,3.6,6.5,8.2,0,4.4.9,8.8,1.4,13.2.9,8.3,1.8,16.7,2.7,25-3.3-12.5-8.4-24-15.7-34.5-7.3-10.5-21-24.7-26.1-27.1,24.4,33.2,41,69.5,48.1,110.5,1.8-1.2,3.6-2.4,4.3-4,3.7-9.8,7.3-19.7,10.7-29.7,7.5-22.1,13.6-44.6,12.1-68.1-.5-8.5,2.2-13.1,9.6-16.5,6.7-3.1,8.9-11.4,5.6-18.7-4.8,3.6-9.6,7.1-14.1,10.4-.7-2.2.5-4.2,3.1-5.6,1.8-.9,3.4-2.1,5.1-3.2,7.1-4.1,9.4-11.5,5.9-19.7-4.9,4-9.6,7.9-14,11.6-1.4-4.6,3.1-5.9,6.4-7.9,9.6-5.8,11.3-9.8,8.3-21.4-5.2,4.5-10.1,8.7-14.4,12.4-.2-2.7,1.1-5,4-6.9,1.3-.9,2.7-1.7,4-2.5,7.3-4.4,9.6-11.4,6.4-19.5-2.6,1.7-5.4,3.2-7.8,5.1-2.3,1.9-4.3,4.3-6.4,6.5,0,0-.2-.2-.2-.5-.5-5.4,4.2-6.3,7.4-8.2,7.7-4.7,10.2-11.2,6.8-20.2-4.9,3.9-9.6,7.7-14.3,11.5.5-1.1,1-3.1,2.2-4.3,2.1-2,4.7-3.6,7.2-5.3,5.7-3.9,7.8-12,4.4-19.1-4.6,4.6-9.1,8.9-13.5,13.3.3-1.3.3-3.2,1.1-4.8,4.6-9.5,3.7-15.1-3.7-22.6h0l-.6.5Z"/>
  </g>
  <g>
    <path class="cls-3" d="M419.4,458.5c-8.9-50.8-28.9-97.2-61.1-141.7,7.9,5.7,22.8,21.5,31.2,33.7,9.4,13.5,16.1,28.2,20.5,45.1,0,.3.4.5.7.5s0,0,.1,0c.4,0,.6-.4.6-.7l-1.1-9.9c-.8-7.7-1.7-15.3-2.5-23-.2-1.8-.4-3.7-.7-5.5-.5-3.8-1-7.8-1.1-11.7-.1-6.7-2.8-10-9.1-11.4-7.4-1.6-10.3-5.8-9.7-14l12.5,3.7h.2c.2,0,.4-.1.6-.3l.5-.7c.1-.2.1-.4.1-.5,0-.2-.2-.3-.3-.4-.5-.3-1-.6-1.5-.9-1.1-.7-2.3-1.4-3.5-1.7-10.9-2.9-12-3.8-13.8-14.9l12.7,3.9h.2c.3,0,.5-.2.6-.4l.5-1.1v-.5c0-.2-.2-.3-.4-.4-.7-.3-1.4-.6-2-.9-1.5-.7-3-1.5-4.7-1.9-8.4-2.3-11.1-5.5-11.7-14.1.4.1.8.2,1.2.3,1.6.4,3.1.8,4.6,1.3l.7.2c2.1.6,4.2,1.3,6.9,1.4h0c.3,0,.6-.2.7-.5,0-.3,0-.6-.4-.8-1.7-.8-3.6-1.5-5.3-2.2-7-2.6-13.6-5-12.9-15l12.2,3.4h.2c.2,0,.4,0,.5-.2l1.1-1.1c.2-.2.2-.4.2-.6s-.2-.4-.5-.5c-1.1-.3-2.2-.7-3.3-1-8.3-2.3-16.1-4.6-15.5-15.4l12.5,3.6h.2c.3,0,.5-.2.6-.4.1-.3,0-.7-.3-.9-1.6-.9-3.4-1.7-5.1-2.5-6.5-2.9-12.7-5.7-12.6-15.3l13,5h.2c.2,0,.4-.1.6-.3.2-.3.1-.6,0-.9-6.7-6.7-8.2-14.1-4.8-23.4.9.9,1.7,1.8,2.6,2.7,2.3,2.3,4.4,4.4,5.5,6.9s1.2,5.5,1.3,8.7c0,1.4,0,2.8.2,4.2,0,.3.2.5.5.6h.1c.2,0,.5-.1.6-.3l7.6-13c6.6,8.9,1.7,15.3-3.6,22-.7.8-1.3,1.7-1.9,2.5-.1.2-.2.4,0,.6,0,.2.2.4.5.4l1.5.4h.2c.2,0,.4,0,.5-.3l8.6-10.9c.3,1,.7,2,1.1,3,1.8,4.5,3.3,8.5.3,13.4-.2.3-.1.6.1.8.1.1.3.2.5.2s.3,0,.4-.1l2-1.4c4.9,7.6,4.5,11.7-1.6,19-1.1,1.3-2,2.6-2.9,4-.4.6-.8,1.2-1.2,1.8-.1.1-.1.3-.1.5s.1.3.3.4l1.2.8c.1,0,.3.1.4.1.2,0,.4,0,.5-.3l8.9-11.5h.8c.2,1.3.4,2.6.6,3.9.6,3.2,1.2,6.6.5,9.5-.6,2.2-2,4.2-3.5,6.4-1.3,1.8-2.6,3.7-3.5,5.8-.1.3,0,.7.3.8h.4c.2,0,.4,0,.5-.3l8.2-10c4.7,6.9,4.5,11.1-.7,17.5-1.5,1.9-3.3,4.5-3.9,8,0,.3.1.6.4.7h.3c.2,0,.4,0,.5-.2l8.6-10.1c2.8,5.3,3.8,10.1.4,16-2.3,4-3.5,9.2-3.1,13.7,1.7,20,4,40.2,6.4,60.8,1.1,9.2,2.7,18,5.1,26.8,0,.3.4.5.7.5s0,0,0,0c.3,0,.6-.2.6-.6.5-2.7,1-5.5,1.5-8.2,1.1-6,2.3-12.3,3.2-18.5,2-13.3,3.7-25.2,4.9-37.3,1.8-17.8-.9-35.6-8.1-54.2-6-15.5-11.9-31.4-17.7-46.7-2.4-6.3-4.7-12.6-7.1-18.9-.1-.4-.3-.7-.4-1.1,15.3,23.8,25.8,46.5,32,69.2,7.3,26.8,8.5,53.1,3.6,80.4,0,.2,0,.4.2.6s.3.2.5.2,2.7-.1,2.7-.1c.3,0,.6-.2.6-.5.7-3.6,1.6-7.2,2.4-10.6,1.8-7.9,3.7-16.1,4.6-24.3,1-9.4,1.2-19.1,1.5-28.4.1-4.5.2-9.1.4-13.7.2-3.8-1.2-6.3-4.4-7.8-1.2-.6-2.2-1.3-3.3-2.2-.6-.4-1.1-.8-1.7-1.2-9-6-11.4-13.2-7.9-23.9.8.5,1.5,1,2.3,1.4,2.2,1.4,4.5,2.9,6.6,4.5,2,1.5,3.8,3.3,5.5,5.1.8.8,1.6,1.6,2.4,2.3.1.1.3.2.5.2s.3,0,.4-.1l1.4-.9c.2-.1.3-.3.3-.5s0-.4-.1-.5c-.5-.7-1-1.3-1.4-2-1.1-1.6-2.3-3.2-3.6-4.7-1-1-2.3-1.7-3.5-2.4-.4-.2-.9-.5-1.3-.7-10-5.9-12.6-12.7-9.1-24l16.7,12.3c.1,0,.3.1.4.1h.3l1-.5c.2,0,.3-.2.3-.4v-.5c-.4-.6-.7-1.2-1-1.8-.8-1.4-1.6-2.8-2.7-4-1.1-1.1-2.5-1.9-3.8-2.6-.5-.3-1-.5-1.5-.8-10.4-6.2-13-12.7-9.7-24.8l17,12.5c.1,0,.3.1.4.1h.2l.8-.3c.2,0,.4-.2.4-.4v-.6c-.4-.6-.7-1.1-1.1-1.7-.8-1.4-1.7-2.8-2.8-4-1-1.1-2.3-1.8-3.6-2.4-.4-.2-.8-.4-1.3-.7-10.4-5.9-13.2-12.9-9.8-24.7l17.7,12.4c.1,0,.3.1.4.1s.3,0,.5-.2.3-.6.1-.8c-.5-.8-.8-1.6-1.1-2.2-.7-1.4-1.2-2.5-2.1-3.3-1.4-1.3-3.1-2.2-4.7-3.1-.5-.3-1-.6-1.5-.9-10.1-6-12.7-12.7-9.3-24.4l17.1,12.1c.1,0,.3.1.4.1s.3,0,.5-.2.3-.6.1-.8c-.3-.5-.5-1-.8-1.5-.5-1.1-1-2.1-1.9-2.9-1.8-1.5-3.8-2.8-5.7-4l-.8-.5c-9.5-6-12.2-13.3-9-25.1l17.3,16c.1.1.3.2.5.2s.3,0,.4-.1c.3-.2.4-.5.3-.8-.3-.8-.5-1.6-.7-2.3-.5-1.7-1-3.5-1.9-5-5-9.1-3.4-20.2,4.2-27.7,9.1,9.4,10.1,16.4,4.2,28.4-.7,1.5-1,3.2-1.2,4.7,0,.6-.2,1.2-.3,1.7,0,.3,0,.6.3.7h.3c.2,0,.3,0,.5-.2l17-16.7c3.7,8.5,1.2,18.4-5.9,23.3-.6.4-1.3.9-2,1.3-2.6,1.7-5.3,3.5-7.6,5.7-1.2,1.2-1.9,3-2.4,4.4-.2.5-.4,1.1-.6,1.5-.1.3,0,.6.2.8.1,0,.3.1.4.1s.3,0,.4-.1l18.1-14.5c3.7,10.8.8,18.9-8.9,24.8-.8.5-1.7.9-2.7,1.4-3.7,1.8-8,3.8-7.4,10,0,.4.3.8.4.9,0,.2.3.3.5.4h0c.2,0,.4,0,.5-.2.8-.9,1.7-1.8,2.5-2.7,1.8-2,3.7-4.1,5.8-5.8,2.2-1.8,4.6-3.3,7-4.7.8-.5,1.7-1,2.5-1.5,3.6,9.9.6,18.6-8.4,23.9l-.9.5c-1.5.9-3,1.8-4.4,2.7-5.8,3.8-6,4.1-5.5,9.6,0,.3.2.5.4.6h.3c.2,0,.3,0,.4-.2l18.1-15.6c3.5,14,1.4,18.9-10.9,26.3-.7.4-1.5.8-2.2,1.2-3.8,2-8.1,4.4-6.4,9.9,0,.2.2.4.5.5h.2c.2,0,.3,0,.4-.2l17.7-14.6c3.9,10,1.1,19-7.8,24.2-1,.6-2,1.2-2.9,1.8-1.2.8-2.5,1.6-3.7,2.3-3.8,2-5.3,4.9-4.4,8.2,0,.2.2.4.4.5h.2c.1,0,.3,0,.4-.1l17.8-13.2c3.7,9.3.6,19.2-7.4,22.9-10,4.6-13.7,11.1-13,22.4,2,31.6-6.4,61.6-15.8,89.2-4.3,12.6-9,25.7-14.1,39-.7,1.8-2.6,3.2-4.5,4.4l-.4.8Z"/>
    <path class="cls-4" d="M453,149.3c8.4,8.9,9.2,15.7,3.6,27.1-.8,1.6-1,3.4-1.2,4.9,0,.6-.2,1.2-.3,1.6-.1.6.2,1.2.7,1.5.2.1.4.2.7.2s.7-.1,1-.4l16.3-16c3,8,.6,17-6,21.6-.6.4-1.3.9-2,1.3-2.6,1.8-5.3,3.6-7.7,5.8-1.4,1.3-2,3.2-2.6,4.6-.2.5-.4,1-.6,1.4-.3.6-.1,1.3.4,1.7.2.2.5.3.8.3s.6-.1.9-.3l14.5-11.6,2.8-2.2c3.2,10.1.3,17.5-8.9,23.1-.8.5-1.7.9-2.7,1.4-3.7,1.8-8.4,4.1-7.7,10.7,0,.6.4,1,.5,1.2.2.3.6.6.9.6h.2c.4,0,.7-.1,1-.4.8-.9,1.7-1.8,2.5-2.7,1.8-2,3.7-4,5.7-5.7,2.1-1.7,4.6-3.2,6.9-4.7.6-.4,1.2-.7,1.7-1.1,3.1,9.3.2,17.2-8.4,22.3l-.9.5c-1.5.9-3,1.8-4.4,2.7-5.9,3.8-6.3,4.3-5.8,10.3,0,.5.4,1,.8,1.2.2,0,.3.1.5.1.3,0,.6-.1.9-.3l17.3-14.9c3,12.8.7,17.4-10.8,24.5-.7.4-1.4.8-2.2,1.2-3.8,2.1-8.6,4.6-6.8,10.7.1.4.5.8.9.9h.4c.3,0,.6-.1.9-.3l12.3-10.2,4.7-3.8c3.3,9.3.4,17.7-7.8,22.5-1,.6-2,1.2-3,1.9-1.2.8-2.4,1.6-3.7,2.3-4,2.2-5.8,5.4-4.7,9,.1.4.5.8.9.9h.4c.3,0,.6,0,.8-.3l17.1-12.7c3.1,8.7,0,17.8-7.4,21.2-10.3,4.8-14.1,11.4-13.4,23,2,31.5-6.4,61.4-15.8,89-4.3,12.6-9,25.7-14.1,39-.5,1.3-1.9,2.5-3.3,3.5-8.8-49-27.8-93.9-58.2-137,8.2,7,20.1,20.1,27.3,30.5,9.3,13.4,16,28.1,20.4,44.8.2.6.7,1,1.3,1s.2,0,.2,0c.7-.1,1.2-.8,1.1-1.5l-1-9.7c-.8-7.7-1.7-15.5-2.5-23.2-.2-1.8-.4-3.7-.7-5.5-.5-3.8-1-7.8-1.1-11.7-.2-7-3-10.6-9.7-12.1-6.8-1.5-9.6-5.1-9.2-12.4l6.1,1.8,5.6,1.7h.4c.4,0,.9-.2,1.1-.6l.5-.7c.2-.3.3-.7.2-1.1,0-.4-.3-.7-.7-.9-.5-.3-.9-.5-1.4-.9-1.2-.7-2.4-1.5-3.7-1.8-10.3-2.7-11.5-3.5-13.2-13.2l1.5.5,10.1,3.1h.4c.5,0,1-.3,1.2-.8l.3-.6.3-.6c.2-.3.2-.7,0-1.1-.1-.3-.4-.6-.7-.8-.7-.3-1.4-.6-2-.9-1.5-.7-3.1-1.5-4.8-1.9-7.8-2.1-10.5-4.9-11.1-12.6h.3c1.6.4,3.1.8,4.6,1.3l.7.2c2.1.6,4.3,1.3,7,1.4h0c.6,0,1.2-.4,1.3-1,.2-.6-.1-1.3-.7-1.6-1.7-.8-3.6-1.5-5.4-2.2-6.8-2.5-12.7-4.7-12.5-13.5l8.7,2.5,2.7.7h.4c.4,0,.7-.1,1-.4l.7-.7.4-.5c.3-.3.5-.8.4-1.3s-.5-.8-.9-1c-1.1-.3-2.2-.7-3.3-1-8.1-2.3-15.2-4.3-15-13.8l11.6,3.4h.4c.5,0,1-.3,1.3-.8.3-.6,0-1.4-.6-1.7-1.7-.9-3.5-1.7-5.2-2.5-6.3-2.8-11.9-5.3-12.2-13.7l8.2,3.2,3.8,1.5h.5c.5,0,.9-.2,1.1-.6.4-.5.3-1.3-.2-1.7-6.3-6.3-7.9-13-5-21.6.6.6,1.2,1.3,1.8,1.9,2.3,2.3,4.3,4.3,5.3,6.7s1.1,5.3,1.2,8.4c0,1.4,0,2.9.2,4.3,0,.6.5,1.1,1.1,1.2h.3c.5,0,.9-.2,1.2-.7l5.2-8.7,2-3.3c5.4,8,1,13.8-4.1,20.4-.7.9-1.3,1.7-1.9,2.6-.3.4-.3.8-.2,1.3.1.4.5.8.9.9l1.5.4h.4c.4,0,.8-.2,1.1-.5l7.9-9.9c.2.6.5,1.2.7,1.8,1.7,4.4,3.2,8.1.4,12.7-.3.5-.2,1.3.2,1.7s.6.4.9.4.5,0,.8-.2l1.4-1c4.4,6.9,3.9,10.7-1.9,17.6-1.1,1.3-2,2.7-2.9,4-.4.6-.8,1.2-1.2,1.8s-.3.7-.2,1c0,.4.3.7.6.9l.6.4.6.4c.2.2.5.2.8.2s.8-.2,1.1-.5l8.5-11c.2,1.1.4,2.1.5,3.1.6,3.3,1.2,6.5.5,9.2-.5,2.1-1.9,4.1-3.4,6.2-1.3,1.9-2.7,3.8-3.6,6-.3.6,0,1.3.6,1.7.2.1.5.2.7.2.4,0,.8-.2,1.1-.5l3.7-4.6,3.9-4.7c4,6.2,3.6,10-1.1,16-1.6,2-3.4,4.7-4,8.3,0,.6.2,1.2.8,1.5.2,0,.4.1.6.1.4,0,.8-.2,1-.5l4.3-5.1,3.6-4.3c3.1,6.4,2.2,10.5,0,14.4-2.4,4.1-3.6,9.5-3.2,14.1,1.7,20.1,4,40.2,6.4,60.8,1.1,9.3,2.8,18.1,5.1,26.9.2.6.7,1,1.3,1s0,0,0,0c.6,0,1.2-.5,1.3-1.1.5-2.7,1-5.5,1.5-8.2,1.1-6,2.3-12.3,3.2-18.5,2-13.3,3.7-25.2,4.9-37.3,1.8-18-.9-35.8-8.1-54.5-6-15.5-11.9-31.4-17.7-46.7-1.7-4.6-3.4-9.2-5.2-13.8,13.4,21.7,22.7,42.5,28.4,63.4,7.3,26.7,8.5,52.9,3.6,80.1,0,.4,0,.8.3,1.1.3.3.6.5,1,.5s0,0,0,0h2.7c.6-.1,1.2-.6,1.3-1.2.7-3.5,1.6-7.1,2.4-10.6,1.8-7.9,3.7-16.1,4.6-24.3,1-9.4,1.3-19.1,1.5-28.4.1-4.5.2-9.1.4-13.7.2-4.2-1.4-6.9-4.8-8.5-1.1-.5-2.1-1.3-3.2-2.1-.6-.4-1.1-.8-1.7-1.2-8.5-5.7-10.9-12.4-7.9-22.3.5.3,1,.6,1.5,1,2.2,1.4,4.5,2.9,6.6,4.5,1.9,1.5,3.7,3.3,5.5,5,.8.8,1.6,1.6,2.4,2.3.3.2.6.4.9.4s.5,0,.8-.2l.7-.5.7-.5c.3-.2.5-.5.6-.9,0-.4,0-.7-.2-1-.5-.7-1-1.3-1.4-2-1.1-1.6-2.3-3.3-3.7-4.8-1.1-1.1-2.4-1.8-3.7-2.5-.4-.2-.9-.5-1.3-.7-9.4-5.6-12-11.9-9.1-22.3l2.9,2.1,13,9.6c.2.2.5.3.8.3s.4,0,.6-.2l.5-.3.5-.3c.3-.2.6-.5.7-.9,0-.4,0-.8-.2-1.1-.3-.6-.7-1.1-1-1.7-.8-1.4-1.6-2.9-2.8-4.2-1.2-1.2-2.6-2-4-2.7-.5-.3-1-.5-1.5-.8-10-5.9-12.5-11.8-9.6-23.1l16.2,11.9c.2.2.5.3.8.3h.4l.8-.3c.4-.1.7-.4.9-.8.1-.4,0-.8-.1-1.2-.4-.5-.7-1.1-1-1.7-.8-1.4-1.7-2.9-2.9-4.1-1.1-1.1-2.5-1.9-3.8-2.6-.4-.2-.8-.4-1.2-.7-9.8-5.6-12.6-12.1-9.8-23l9.6,6.8,7.3,5.1c.2.2.5.2.8.2s.7-.1.9-.4c.5-.4.6-1.1.3-1.7-.4-.8-.8-1.5-1.1-2.2-.7-1.4-1.3-2.6-2.2-3.5-1.5-1.3-3.2-2.3-4.8-3.2-.5-.3-1-.6-1.5-.9-9.5-5.7-12.1-12-9.2-22.7l12.2,8.7,4,2.9c.2.2.5.3.8.3s.7-.1.9-.4c.5-.4.6-1.1.3-1.7-.3-.5-.5-1-.8-1.5-.6-1.2-1.1-2.3-2-3.1-1.8-1.6-3.8-2.9-5.8-4.1l-.8-.5c-9-5.7-11.7-12.3-9-23.3l12.9,12,3.5,3.3c.3.2.6.4.9.4s.5,0,.7-.2c.5-.3.7-1,.5-1.6-.3-.8-.5-1.5-.7-2.3-.5-1.7-1-3.5-2-5.2-4.8-8.6-3.3-19.1,3.5-26.3M453,147.3c-8.2,7.8-10,19.4-4.8,29,1.2,2.2,1.7,4.8,2.6,7.3-6.2-5.8-12-11.1-18.1-16.8-3.8,12.9-.9,20.7,9,26.9,2.2,1.4,4.5,2.8,6.5,4.5,1.1.9,1.6,2.6,2.5,4.2-6.3-4.5-12.1-8.6-17.8-12.7-3.9,12.6-1.3,19.8,9.3,26.1,2.1,1.3,4.3,2.3,6.1,3.9,1.2,1.1,1.7,2.9,3.1,5.3-6.9-4.9-12.7-8.9-18.5-13-3.9,12.7-1,20.2,9.9,26.4,1.6.9,3.5,1.7,4.7,3,1.5,1.6,2.5,3.7,3.7,5.6-.3,0-.5.2-.8.3-5.9-4.3-11.7-8.7-17.8-13.1-3.9,13.1-1.2,20,9.7,26.5,1.8,1,3.8,1.9,5.2,3.3,1.5,1.6,2.5,3.7,3.7,5.7-.3.2-.7.4-1,.5-5.8-4.3-11.6-8.5-17.5-12.9-4,12.2-1.4,19.5,9.1,25.7,1.6,1,3.5,1.7,4.7,3,1.9,2,3.4,4.4,5,6.6-.5.3-.9.6-1.4.9-2.7-2.5-5.2-5.2-8-7.4-3.1-2.4-6.4-4.4-9.7-6.5-4,11.4-1.6,19.2,7.9,25.5,1.7,1.1,3.3,2.6,5.1,3.4,3.2,1.5,4.2,3.9,4,7.2-.6,14-.4,28.1-1.9,42-1.3,11.7-4.5,23.2-6.9,34.8-.9,0-1.8,0-2.7.1,10.2-57-7.3-107-38-153.5.2,1.8.8,3.5,1.4,5.2,8.2,21.9,16.3,43.8,24.8,65.6,6.7,17.4,9.9,35.3,8,53.9-1.2,12.5-3.1,24.9-4.9,37.3-1.3,8.9-3.2,17.8-4.8,26.6-2.4-9-4-17.8-5.1-26.7-2.4-20.2-4.7-40.5-6.4-60.8-.4-4.4.8-9.5,3-13.3,3.7-6.3,2.5-11.5-.8-17.6-3.3,3.9-6.3,7.4-9.2,10.9.5-3.1,2-5.5,3.7-7.7,5.5-6.9,5.6-11.4.2-19.1-3,3.6-5.9,7.2-8.8,10.7,1.9-4.5,6-8,7.1-12.3s-.7-9.4-1.2-14.2h-1.7c-3,3.9-6,7.8-9.1,11.7-.4-.3-.8-.5-1.2-.8,1.4-1.9,2.6-4,4.1-5.7,6.4-7.6,6.7-12.2,1.2-20.3-.9.6-1.7,1.2-2.6,1.7,4.1-6.7,0-11.9-1.7-18.1-3.6,4.5-6.5,8.2-9.4,11.9-.5-.1-1-.3-1.5-.4,5.8-7.8,13.7-15.3,4.9-26.2-2.8,4.7-5.4,9.2-8.2,13.9-.4-4.5.1-9.3-1.5-13.1s-5.5-6.7-8.9-10.6c-4.3,10.5-2.3,18.3,4.5,25.1-4.6-1.8-9.2-3.5-13.9-5.4-.7,13.7,10.3,15,18.1,19.4-4.5-1.3-9-2.6-13.3-3.8-1.3,13.7,9.8,15,19.2,17.9-.4.4-.7.8-1.1,1.1-4.3-1.2-8.7-2.4-13-3.7-1.5,14,10.2,14.7,18.5,18.6-2.9-.1-5.1-.9-7.4-1.6-2.2-.7-4.5-1.2-6.7-1.8.4,9.8,3.3,13.3,12.2,15.7,2.3.6,4.4,1.9,6.6,2.8-.2.4-.3.8-.5,1.1-4.5-1.4-9-2.8-13.7-4.2,2,12.4,3.1,13.5,14.5,16.5,1.7.5,3.3,1.7,4.9,2.5-.2.2-.3.5-.5.7-4.4-1.3-8.8-2.6-13.3-4-.9,8.7,2,13.7,10.2,15.5,6.3,1.4,8.5,4.7,8.6,10.8.1,5.8,1.2,11.5,1.8,17.3,1.2,11,2.4,21.9,3.6,32.9-4.3-16.4-11-31.5-20.6-45.3-9.6-13.7-27.5-32.5-34.3-35.6,32,43.6,53.9,91.3,63.1,145.2,2.4-1.5,4.8-3.1,5.6-5.3,4.9-12.9,9.6-25.9,14.1-39,9.9-29,17.9-58.5,15.9-89.5-.7-11.1,2.9-17.2,12.6-21.7,8.8-4.1,11.7-15,7.4-24.6-6.3,4.7-12.6,9.3-18.5,13.7-.9-3,.7-5.5,4.1-7.4,2.3-1.2,4.4-2.8,6.7-4.1,9.3-5.4,12.3-15,7.7-25.9-6.4,5.3-12.6,10.4-18.4,15.2-1.8-6,4.1-7.8,8.3-10.4,12.6-7.7,14.9-12.8,10.9-28.1-6.8,5.9-13.3,11.4-18.9,16.3-.3-3.5,1.5-6.5,5.2-9,1.7-1.1,3.5-2.2,5.3-3.2,9.6-5.7,12.6-15,8.4-25.6-3.4,2.2-7.1,4.2-10.2,6.7s-5.6,5.7-8.3,8.5c0,0-.3-.3-.3-.6-.7-7.1,5.6-8.2,9.7-10.7,10.1-6.1,13.3-14.7,8.9-26.5-6.4,5.1-12.6,10.1-18.8,15.1.7-1.5,1.3-4.1,2.9-5.6,2.8-2.7,6.2-4.8,9.4-7,7.5-5.1,10.3-15.8,5.7-25.1-6.1,6-11.9,11.7-17.7,17.4.4-1.8.4-4.2,1.4-6.3,6-12.4,4.9-19.8-4.8-29.7h0v.4Z"/>
  </g>
  <g>
    <path class="cls-5" d="M85,410.8c-8.9-50.8-28.9-97.2-61.1-141.7,7.9,5.7,22.7,21.5,31.2,33.7,9.4,13.5,16.1,28.2,20.5,45.1,0,.3.4.5.7.5s0,0,0,0c.4,0,.6-.4.6-.7l-1.1-9.8c-.8-7.7-1.7-15.4-2.5-23.1-.2-1.8-.4-3.7-.7-5.5-.5-3.9-1-7.8-1.1-11.7,0-6.7-2.8-10-9.1-11.4-7.4-1.6-10.3-5.8-9.7-14l12.5,3.7h.2c.2,0,.4-.1.6-.3l.5-.7c0-.2,0-.4,0-.5,0-.2-.2-.4-.3-.4-.5-.3-1-.6-1.5-.9-1.1-.7-2.3-1.4-3.5-1.7-10.9-2.9-12-3.8-13.8-14.9l12.7,3.9h.2c.3,0,.5-.2.6-.4l.5-1.1v-.5c0-.2-.2-.3-.4-.4-.7-.3-1.4-.6-2-.9-1.5-.7-3-1.5-4.7-1.9-8.4-2.3-11.1-5.5-11.7-14.1.4.1.8.2,1.2.3,1.6.4,3.1.8,4.6,1.3l.7.2c2.1.6,4.2,1.3,6.9,1.4h0c.3,0,.6-.2.7-.5,0-.3,0-.6-.4-.8-1.7-.8-3.6-1.5-5.3-2.2-7-2.6-13.6-5-12.9-15l12.2,3.4h.2c.2,0,.4,0,.5-.2l1.1-1.1c.2-.2.2-.4.2-.6s-.2-.4-.5-.5c-1.1-.3-2.2-.7-3.3-1-8.3-2.3-16.1-4.6-15.5-15.4l12.5,3.6h.2c.3,0,.5-.2.6-.4,0-.3,0-.7-.3-.9-1.6-.9-3.4-1.7-5.1-2.5-6.5-2.9-12.7-5.7-12.6-15.3l13,5h.2c.2,0,.4-.1.6-.3.2-.3,0-.6,0-.9-6.7-6.7-8.2-14.1-4.8-23.4.9.9,1.7,1.8,2.6,2.7,2.3,2.3,4.4,4.4,5.5,6.9s1.2,5.5,1.3,8.7c0,1.4,0,2.8.2,4.2,0,.3.2.5.5.6h0c.2,0,.5-.1.6-.3l7.6-13c6.6,8.9,1.7,15.3-3.6,22-.7.8-1.3,1.7-1.9,2.5,0,.2-.2.4,0,.6s.2.4.5.4l1.5.4h.2c.2,0,.4,0,.5-.3l8.6-10.9c.3,1,.7,2,1.1,3,1.8,4.5,3.3,8.5.3,13.4-.2.3,0,.6,0,.8,0,.1.3.2.5.2s.3,0,.4-.1l2-1.4c4.9,7.6,4.5,11.7-1.6,19-1.1,1.3-2,2.6-2.9,4-.4.6-.8,1.2-1.2,1.8,0,.1,0,.3,0,.5s0,.3.3.4l1.2.8c0,0,.3.1.4.1.2,0,.4,0,.5-.3l8.9-11.5h.8c.2,1.3.4,2.6.6,3.9.6,3.2,1.2,6.6.5,9.5-.6,2.2-2,4.2-3.5,6.4-1.3,1.8-2.6,3.7-3.5,5.8,0,.3,0,.7.3.8h.4c.2,0,.4,0,.5-.3l8.2-10c4.7,6.9,4.5,11.1-.7,17.5-1.5,1.9-3.3,4.5-3.9,8,0,.3,0,.6.4.7h.3c.2,0,.4,0,.5-.2l8.6-10.1c2.8,5.3,3.8,10.1.4,16-2.3,4-3.5,9.2-3.1,13.7,1.7,20.1,4,40.2,6.4,60.8,1.1,9.2,2.7,18,5.1,26.8,0,.3.4.5.7.5s0,0,0,0c.3,0,.6-.2.6-.6.5-2.7,1-5.5,1.5-8.2,1.1-6,2.3-12.3,3.2-18.5,2-13.3,3.7-25.2,4.9-37.3,1.8-17.8-.9-35.6-8.1-54.2-6-15.5-11.9-31.4-17.7-46.8-2.4-6.3-4.7-12.6-7.1-18.8,0-.4-.3-.7-.4-1.1,15.3,23.8,25.8,46.5,32,69.2,7.3,26.8,8.5,53.1,3.6,80.4,0,.2,0,.4.2.6s.3.2.5.2,2.7-.1,2.7-.1c.3,0,.6-.2.6-.5.7-3.6,1.6-7.2,2.4-10.7,1.8-7.9,3.7-16.1,4.6-24.3,1-9.4,1.2-19.1,1.5-28.4,0-4.5.2-9.1.4-13.7.2-3.8-1.2-6.3-4.4-7.8-1.2-.6-2.2-1.3-3.3-2.2-.6-.4-1.1-.8-1.7-1.2-9-6-11.4-13.2-7.9-23.9.7.5,1.5,1,2.2,1.4,2.2,1.4,4.6,2.9,6.7,4.5,2,1.5,3.8,3.3,5.5,5.1.8.8,1.6,1.6,2.4,2.3,0,.1.3.2.5.2s.3,0,.4-.1l1.4-.9c.2-.1.3-.3.3-.5s0-.4,0-.5c-.5-.7-1-1.3-1.4-2-1.1-1.6-2.3-3.3-3.6-4.7-1-1-2.3-1.7-3.5-2.4-.4-.2-.9-.5-1.3-.7-10-5.9-12.6-12.7-9.1-24l16.7,12.3c0,0,.3.1.4.1h.3l1-.5c.2,0,.3-.2.3-.4v-.5c-.4-.6-.7-1.2-1-1.8-.8-1.4-1.6-2.8-2.7-4-1.1-1.1-2.5-1.9-3.8-2.6-.5-.3-1-.5-1.5-.8-10.4-6.2-13-12.7-9.7-24.8l17,12.5c0,0,.3.1.4.1h.2l.8-.3c.2,0,.4-.2.4-.4v-.6c-.4-.6-.7-1.1-1.1-1.7-.8-1.4-1.7-2.8-2.8-4-1-1.1-2.3-1.8-3.6-2.4-.4-.2-.8-.4-1.2-.7-10.4-5.9-13.2-12.9-9.8-24.7l17.7,12.4c0,0,.3.1.4.1s.3,0,.5-.2.3-.6,0-.8c-.5-.8-.8-1.6-1.1-2.2-.7-1.4-1.2-2.5-2.1-3.3-1.4-1.3-3.1-2.2-4.7-3.1-.5-.3-1-.6-1.5-.9-10.1-6-12.7-12.7-9.3-24.4l17.1,12.1c0,0,.3.1.4.1s.3,0,.5-.2.3-.6,0-.8c-.3-.5-.5-1-.8-1.5-.5-1.1-1-2.1-1.9-2.9-1.8-1.5-3.8-2.8-5.7-4l-.8-.5c-9.5-6-12.2-13.3-9-25.1l17.3,16c0,.1.3.2.5.2s.3,0,.4-.1c.3-.2.4-.5.3-.8-.3-.8-.5-1.6-.7-2.3-.5-1.7-1-3.5-1.9-5-5-9.1-3.4-20.2,4.2-27.7,9.1,9.4,10.1,16.4,4.2,28.4-.7,1.5-1,3.2-1.2,4.7,0,.6-.2,1.2-.3,1.7,0,.3,0,.6.3.7h.3c.2,0,.3,0,.5-.2l17-16.7c3.7,8.5,1.2,18.4-5.9,23.3-.6.4-1.3.9-2,1.3-2.6,1.7-5.3,3.5-7.6,5.7-1.2,1.2-1.9,3-2.4,4.4-.2.5-.4,1.1-.6,1.5,0,.3,0,.6.2.8,0,0,.3.1.4.1s.3,0,.4-.1l18.1-14.5c3.7,10.8.8,18.9-8.9,24.8-.8.5-1.7.9-2.7,1.4-3.7,1.8-8,3.8-7.4,10,0,.4.3.8.4.9,0,.2.3.3.5.3h0c.2,0,.4,0,.5-.2.8-.9,1.7-1.8,2.5-2.7,1.8-2,3.7-4.1,5.8-5.8,2.2-1.8,4.6-3.3,7-4.7.8-.5,1.6-1,2.5-1.5,3.6,9.9.6,18.6-8.4,23.9l-.9.5c-1.4.9-2.9,1.8-4.4,2.7-5.8,3.8-6,4.1-5.5,9.6,0,.3.2.5.4.6h.3c.2,0,.3,0,.4-.2l18.1-15.6c3.5,14,1.4,18.9-10.9,26.3-.7.4-1.5.8-2.2,1.2-3.8,2-8.1,4.4-6.4,9.9,0,.2.2.4.5.5h.2c.2,0,.3,0,.4-.2l17.7-14.6c3.9,10,1.1,19-7.8,24.2-1,.6-2,1.2-2.9,1.8-1.2.8-2.5,1.6-3.7,2.3-3.8,2-5.3,4.9-4.4,8.2,0,.2.2.4.4.5h.2c0,0,.3,0,.4-.1l17.8-13.2c3.7,9.3.6,19.2-7.4,22.9-10,4.6-13.7,11.1-13,22.4,2,31.6-6.4,61.6-15.8,89.2-4.3,12.6-9,25.7-14.1,39-.7,1.8-2.6,3.2-4.5,4.4l-.5,1Z"/>
    <path class="cls-4" d="M118.6,101.5c8.4,8.9,9.2,15.7,3.6,27.1-.8,1.6-1,3.4-1.2,4.9,0,.6-.2,1.2-.3,1.6,0,.6.2,1.2.7,1.5.2.1.4.2.7.2s.7-.1,1-.4l11.1-11,5.1-5c3,8,.6,17-6,21.6-.6.4-1.3.9-2,1.3-2.6,1.8-5.3,3.6-7.7,5.8-1.4,1.3-2,3.2-2.6,4.6-.2.5-.4,1-.6,1.4-.3.6,0,1.3.4,1.7.2.2.5.3.8.3s.6-.1.9-.3l10.4-8.3,6.9-5.5c3.2,10.1.3,17.5-8.9,23.1-.8.5-1.7.9-2.7,1.4-3.7,1.8-8.4,4.1-7.7,10.7,0,.6.4,1,.5,1.2.2.3.6.6.9.6h.2c.4,0,.7-.1,1-.4.8-.9,1.7-1.8,2.5-2.7,1.8-2,3.7-4,5.7-5.7,2.1-1.7,4.6-3.2,6.9-4.7.6-.4,1.2-.7,1.7-1.1,3.1,9.3.2,17.2-8.4,22.3l-.9.5c-1.5.9-3,1.8-4.4,2.7-5.9,3.8-6.3,4.3-5.8,10.3,0,.5.4,1,.8,1.2.2,0,.3.1.5.1.3,0,.6-.1.9-.3l17.3-14.9c3,12.8.7,17.4-10.8,24.5-.7.4-1.4.8-2.2,1.2-3.8,2.1-8.6,4.6-6.8,10.7,0,.4.5.8.9.9h.4c.3,0,.6-.1.9-.3l17-14c3.3,9.3.4,17.7-7.8,22.5-1,.6-2,1.2-3,1.9-1.2.8-2.4,1.6-3.7,2.3-4,2.2-5.8,5.4-4.7,9,0,.4.5.8.9.9h.4c.3,0,.6,0,.8-.3l17.1-12.7c3.1,8.7,0,17.8-7.4,21.2-10.3,4.8-14.1,11.4-13.4,23,2,31.5-6.4,61.4-15.8,89-4.3,12.6-9,25.7-14.1,39-.5,1.3-1.9,2.5-3.3,3.5-8.8-49-27.8-93.9-58.2-137,8.2,7,20.1,20.1,27.3,30.5,9.3,13.4,16,28.1,20.4,44.8.2.6.7,1,1.3,1s.2,0,.2,0c.7-.1,1.2-.8,1.1-1.5l-1-9.7c-.8-7.7-1.7-15.5-2.5-23.2-.2-1.8-.4-3.7-.7-5.5-.5-3.8-1-7.8-1.1-11.7-.2-7-3-10.6-9.7-12.1-6.8-1.5-9.6-5.1-9.2-12.4l11.6,3.5h.4c.4,0,.9-.2,1.1-.6l.5-.7c.2-.3.3-.7.2-1.1,0-.4-.3-.7-.7-.9-.5-.3-.9-.5-1.4-.9-1.2-.7-2.4-1.5-3.7-1.8-10.3-2.7-11.5-3.5-13.2-13.2l1.5.5,10.1,3.1h.4c.5,0,1-.3,1.2-.8l.5-1.1c.2-.3.2-.7,0-1.1s-.4-.6-.7-.8c-.7-.3-1.4-.6-2-.9-1.5-.7-3.1-1.5-4.8-1.9-7.8-2.1-10.5-4.9-11.1-12.6h.3c1.6.4,3.1.8,4.6,1.3l.7.2c2.1.6,4.3,1.3,7,1.4h0c.6,0,1.2-.4,1.3-1,.2-.6,0-1.3-.7-1.6-1.7-.8-3.6-1.5-5.4-2.2-6.8-2.5-12.7-4.7-12.5-13.5l5.7,1.6,5.7,1.6h.4c.4,0,.7-.1,1-.4l.6-.6.6-.6c.3-.3.5-.8.4-1.3s-.5-.8-.9-1c-1.1-.3-2.2-.7-3.3-1-8.1-2.3-15.2-4.3-15-13.8l11.6,3.4h.4c.5,0,1-.3,1.3-.8.3-.6,0-1.4-.6-1.7-1.7-.9-3.5-1.7-5.2-2.5-6.3-2.8-11.9-5.3-12.2-13.7l12.1,4.7h.5c.5,0,.9-.2,1.1-.6.4-.5.3-1.3-.2-1.7-6.3-6.3-7.9-13-5-21.6.6.6,1.2,1.3,1.8,1.9,2.3,2.3,4.3,4.3,5.3,6.7s1.1,5.3,1.2,8.4c0,1.4,0,2.9.2,4.3,0,.6.5,1.1,1.1,1.2h.3c.5,0,.9-.2,1.2-.7l6.8-11.6.3-.5c5.4,8,1,13.8-4.1,20.4-.7.9-1.3,1.7-1.9,2.6-.3.4-.3.8-.2,1.3,0,.4.5.8.9.9l1.5.4h.4c.4,0,.8-.2,1.1-.5l7.9-9.9c.2.6.5,1.2.7,1.8,1.7,4.4,3.2,8.1.4,12.7-.3.5-.2,1.3.2,1.7.3.3.6.4.9.4s.5,0,.8-.2l1.4-1c4.4,6.9,3.9,10.7-1.9,17.6-1.1,1.3-2,2.7-2.9,4-.4.6-.8,1.2-1.2,1.8s-.3.7-.2,1c0,.4.3.7.6.9l1.2.8c.2.2.5.2.8.2s.8-.2,1.1-.5l4.5-5.9,4-5.2c.2,1.1.4,2.1.5,3.1.6,3.3,1.2,6.5.5,9.2-.5,2.1-1.9,4.1-3.4,6.2-1.3,1.9-2.7,3.8-3.6,6-.3.6,0,1.3.6,1.7.2.1.5.2.7.2.4,0,.8-.2,1.1-.5l5.3-6.4,2.3-2.9c4,6.2,3.6,10-1.1,16-1.6,2-3.4,4.7-4,8.3,0,.6.2,1.2.8,1.5.2,0,.4.1.6.1.4,0,.8-.2,1-.5l4.3-5.1,3.6-4.3c3.1,6.4,2.2,10.5,0,14.4-2.4,4.1-3.6,9.5-3.2,14.1,1.7,20.1,4,40.2,6.4,60.8,1.1,9.3,2.8,18.1,5.1,26.9.2.6.7,1,1.3,1s0,0,0,0c.6,0,1.2-.5,1.3-1.1.5-2.7,1-5.5,1.5-8.2,1.1-6,2.3-12.3,3.2-18.5,2-13.3,3.7-25.2,4.9-37.3,1.8-18-.9-35.8-8.1-54.5-6-15.5-11.9-31.4-17.7-46.7-1.7-4.6-3.4-9.2-5.2-13.8,13.4,21.7,22.7,42.5,28.4,63.4,7.3,26.7,8.5,52.9,3.6,80.1,0,.4,0,.8.3,1.1.3.3.6.5,1,.5s0,0,0,0h2.6c0-.1,0-.1,0-.1.6,0,1.2-.5,1.3-1.1.7-3.5,1.6-7.2,2.4-10.6,1.8-7.9,3.7-16.1,4.6-24.3,1-9.4,1.3-19.1,1.5-28.4,0-4.5.2-9.1.4-13.7.2-4.2-1.4-6.9-4.8-8.5-1.1-.5-2.1-1.3-3.2-2.1-.6-.4-1.1-.8-1.7-1.2-8.5-5.7-10.9-12.4-7.9-22.3.5.3,1,.6,1.5,1,2.2,1.4,4.5,2.9,6.6,4.5,1.9,1.5,3.7,3.3,5.5,5,.8.8,1.6,1.6,2.4,2.3.3.2.6.4.9.4s.5,0,.8-.2l1.4-.9c.3-.2.5-.5.6-.9,0-.4,0-.7-.2-1-.5-.7-1-1.3-1.4-2-1.1-1.6-2.3-3.3-3.7-4.8-1.1-1.1-2.4-1.8-3.7-2.5-.4-.2-.9-.5-1.3-.7-9.4-5.6-12-11.9-9.1-22.3l9.1,6.7,6.8,5c.2.2.5.3.8.3s.4,0,.6-.2l1-.5c.3-.2.6-.5.7-.9,0-.4,0-.8-.2-1.1-.3-.6-.7-1.1-1-1.7-.8-1.4-1.6-2.9-2.8-4.2-1.2-1.2-2.6-2-4-2.7-.5-.3-1-.5-1.5-.8-10-5.9-12.5-11.8-9.6-23.1l16.2,11.9c.2.2.5.3.8.3h.4l.8-.3c.4-.1.7-.4.9-.8,0-.4,0-.8,0-1.2-.4-.5-.7-1.1-1-1.7-.8-1.4-1.7-2.9-2.9-4.1-1.1-1.1-2.5-1.9-3.8-2.6-.4-.2-.8-.4-1.2-.7-9.8-5.6-12.6-12.1-9.8-23l6.6,4.7,10.3,7.2c.2.2.5.2.8.2s.7-.1.9-.4c.5-.4.6-1.1.3-1.7s-.8-1.5-1.1-2.2c-.7-1.4-1.3-2.6-2.2-3.5-1.5-1.3-3.2-2.3-4.8-3.2-.5-.3-1-.6-1.5-.9-9.5-5.7-12.1-12-9.2-22.7l16.3,11.6c.2.2.5.3.8.3s.7-.1.9-.4c.5-.4.6-1.1.3-1.7-.3-.5-.5-1-.8-1.5-.6-1.2-1.1-2.3-2-3.1-1.8-1.6-3.8-2.9-5.8-4.1l-.8-.5c-9-5.7-11.7-12.3-9-23.3l5.1,4.8,11.3,10.5c.3.2.6.4.9.4s.5,0,.7-.2c.5-.3.7-1,.5-1.6-.3-.8-.5-1.5-.7-2.3-.5-1.7-1-3.5-2-5.2-4.8-8.6-3.3-19.1,3.5-26.3M118.6,99.6c-8.2,7.8-10,19.4-4.8,29,1.2,2.2,1.7,4.8,2.6,7.3-6.2-5.8-12-11.1-18.1-16.8-3.8,12.9-.9,20.7,9,26.9,2.2,1.4,4.5,2.8,6.5,4.5,1.1.9,1.6,2.6,2.5,4.2-6.3-4.5-12.1-8.6-17.8-12.7-3.9,12.6-1.3,19.8,9.3,26.1,2.1,1.3,4.3,2.3,6.1,3.9,1.2,1.1,1.7,2.9,3.1,5.3-6.9-4.9-12.7-8.9-18.5-13-3.9,12.7-1,20.2,9.9,26.4,1.6.9,3.5,1.7,4.7,3,1.5,1.6,2.5,3.7,3.7,5.6-.3,0-.5.2-.8.3-5.9-4.3-11.7-8.7-17.8-13.1-3.9,13.1-1.2,20,9.7,26.5,1.8,1,3.8,1.9,5.2,3.3,1.5,1.6,2.5,3.7,3.7,5.7-.3.2-.7.4-1,.5-5.8-4.3-11.6-8.5-17.5-12.9-4,12.2-1.4,19.5,9.1,25.7,1.6,1,3.5,1.7,4.7,3,1.9,2,3.4,4.4,5,6.6-.5.3-.9.6-1.4.9-2.7-2.5-5.2-5.2-8-7.4-3.1-2.4-6.4-4.4-9.7-6.5-4,11.4-1.6,19.2,7.9,25.5,1.7,1.1,3.3,2.6,5.1,3.4,3.2,1.5,4.2,3.9,4,7.2-.6,14-.4,28.1-1.9,42-1.3,11.7-4.5,23.2-6.9,34.8-.9,0-1.8,0-2.7.1,10.2-57-7.3-107-38-153.5.2,1.8.8,3.5,1.4,5.2,8.2,21.9,16.3,43.8,24.8,65.6,6.7,17.4,9.9,35.3,8,53.9-1.2,12.5-3.1,24.9-4.9,37.3-1.3,8.9-3.2,17.8-4.8,26.6-2.4-9-4-17.8-5.1-26.7-2.4-20.2-4.7-40.5-6.4-60.8-.4-4.4.8-9.5,3-13.3,3.7-6.3,2.5-11.5-.8-17.6-3.3,3.9-6.3,7.4-9.2,10.9.5-3.1,2-5.5,3.7-7.7,5.5-6.9,5.6-11.4.2-19.1-3,3.6-5.9,7.2-8.8,10.7,1.9-4.5,6-8,7.1-12.3s-.7-9.4-1.2-14.2h-1.7c-3,3.9-6,7.8-9.1,11.7-.4-.3-.8-.5-1.2-.8,1.4-1.9,2.6-4,4.1-5.7,6.4-7.6,6.7-12.2,1.2-20.3-.9.6-1.7,1.2-2.6,1.7,4.1-6.7,0-11.9-1.7-18.1-3.6,4.5-6.5,8.2-9.4,11.9-.5-.1-1-.3-1.5-.4,5.8-7.8,13.7-15.3,4.9-26.2-2.8,4.7-5.4,9.2-8.2,13.9-.4-4.5,0-9.3-1.5-13.1s-5.5-6.7-8.9-10.6c-4.3,10.5-2.3,18.3,4.5,25.1-4.6-1.8-9.2-3.5-13.9-5.4-.7,13.7,10.3,15,18.1,19.4-4.5-1.3-9-2.6-13.3-3.8-1.3,13.7,9.8,15,19.2,17.9-.4.4-.7.8-1.1,1.1-4.3-1.2-8.7-2.4-13-3.7-1.5,14,10.2,14.7,18.5,18.6-2.9-.1-5.1-.9-7.4-1.6-2.2-.7-4.5-1.2-6.7-1.8.4,9.8,3.3,13.3,12.2,15.7,2.3.6,4.4,1.9,6.6,2.8-.2.4-.3.8-.5,1.1-4.5-1.4-9-2.8-13.7-4.2,2,12.4,3.1,13.5,14.5,16.5,1.7.5,3.3,1.7,4.9,2.5-.2.2-.3.5-.5.7-4.4-1.3-8.8-2.6-13.3-4-.9,8.7,2,13.7,10.2,15.5,6.3,1.4,8.5,4.7,8.6,10.8,0,5.8,1.2,11.5,1.8,17.3,1.2,11,2.4,21.9,3.6,32.9-4.3-16.4-11-31.5-20.6-45.3-9.6-13.7-27.5-32.5-34.3-35.6,32,43.6,53.9,91.3,63.1,145.2,2.4-1.5,4.8-3.1,5.6-5.3,4.9-12.9,9.6-25.9,14.1-39,9.9-29,17.9-58.5,15.9-89.5-.7-11.1,2.9-17.2,12.6-21.7,8.8-4.1,11.7-15,7.4-24.6-6.3,4.7-12.6,9.3-18.5,13.7-.9-3,.7-5.5,4.1-7.4,2.3-1.2,4.4-2.8,6.7-4.1,9.3-5.4,12.3-15,7.7-25.9-6.4,5.3-12.6,10.4-18.4,15.2-1.8-6,4.1-7.8,8.3-10.4,12.6-7.7,14.9-12.8,10.9-28.1-6.8,5.9-13.3,11.4-18.9,16.3-.3-3.5,1.5-6.5,5.2-9,1.7-1.1,3.5-2.2,5.3-3.2,9.6-5.7,12.6-15,8.4-25.6-3.4,2.2-7.1,4.2-10.2,6.7-3.1,2.5-5.6,5.7-8.3,8.5,0,0-.3-.3-.3-.6-.7-7.1,5.6-8.2,9.7-10.7,10.1-6.1,13.3-14.7,8.9-26.5-6.4,5.1-12.6,10.1-18.8,15.1.7-1.5,1.3-4.1,2.9-5.6,2.8-2.7,6.2-4.8,9.4-7,7.5-5.1,10.3-15.8,5.7-25.1-6.1,6-11.9,11.7-17.7,17.4.4-1.8.4-4.2,1.4-6.3,6-12.4,4.9-19.8-4.8-29.7h0v.4Z"/>
  </g>
  <path class="cls-7" d="M256,127.3c46.9,0,90.1,23.5,115.4,62.9,19.8,30.8,26.4,67.4,18.7,103.2-7.8,35.8-29,66.4-59.8,86.2-22.2,14.3-47.8,21.8-74,21.8-46.9,0-90.1-23.5-115.4-62.9-19.8-30.8-26.4-67.4-18.7-103.2,7.8-35.8,29-66.4,59.8-86.2,22.2-14.3,47.8-21.8,74-21.8h0M256,66.2c-36.7,0-73.8,10.2-107,31.5-92,59.2-118.6,181.8-59.4,273.8,37.9,58.9,101.7,91,166.8,91s73.8-10.2,107-31.5c92-59.2,118.6-181.8,59.4-273.8-37.9-58.9-101.7-91-166.8-91h0Z"/>
  <path class="cls-8" d="M213,447.6c-6.6-14.3-8.7-24.8-15-31.3-9.4-9.8-21.6-17-32.8-25-56.8-40.5-68.3-82.5-40.8-151.8,30.8,25.8,61.2,51.3,95.1,79.7-4.6-9.8-6.6-19.3-12.3-25.1-10.3-10.5-22.6-19.2-34.4-28.1-53.5-40-66-84.9-38.9-156.3,32,34.9,62.1,67.6,94.8,103.1-3.7-14.3-5.4-29.2-11.3-42.3-56.5-71.4-2.5-134.4,51.5-161.4,50.6,60.3,63,117,2.5,169.8-9.6,8.4-7.9,25.1-10.8,34.8,35.3-29.6,49.6-38.6,86.6-69.6,21.4,54.4,22,92.7-22.5,118.2-19.3,11.1-14.4,2.9-31.5,16.8-9.7,7.9-13.3,27.8-18,36,37.1-25.2,72-18,117-72,19.8,68.9-31.8,124-91.8,154-24.7,12.3-60.6,15.7-59.9,56.2,0,1.7,1.3,3.3,1.4,3.6"/>
  <line class="cls-2" x1="113.6" y1="356.1" x2="398.7" y2="172.7"/>
  <g>
    <path class="cls-4" d="M241,92.6c-5,1.9-7.7-10.1-3.5-17,2.8-3.7,6-2.3,7.6-1.2,3.2,2.1,3.4,8.6,3.4,8.6,0,0-5.6-7.3-3.5-3.5,1.5,2.7.9,10.5-4,13.1Z"/>
    <path class="cls-4" d="M274.5,97c-5,1.6-7.2-10.4-2.6-17,3-3.5,6-2,7.6-.8,3,2.3,2.9,8.7,2.9,8.7,0,0-5.2-7.5-3.3-3.6s.4,10.5-4.6,12.8h0Z"/>
    <path class="cls-4" d="M235.3,69.7s-4.7-1.1,1.5-9.8c9-7.9,10.3-4.7,9.5-4.3s-7.6,5.3-7.4,6.8-.4,7.7-3.5,7.4h-.1Z"/>
    <path class="cls-4" d="M287.2,69s-10.5-6.6-12.3-11,6.7,0,6.7,0c0,0,5.8,5.6,5.9,7.5s1.6,3.3-.4,3.3h0Z"/>
    <path class="cls-4" d="M246.2,123.3s5.8,3.5,9,3,5.2-7.5,6.2-6.5.4,11.8-6.1,12.4-11.8-7.1-9.1-9h0Z"/>
    <ellipse class="cls-4" cx="248" cy="162" rx="7.7" ry="12.2"/>
  </g>
  <path class="cls-1" d="M366.5,399.2c-108,63-196.6,41.6-255.8-50.4"/>
  <g id="Layer_3" data-name="Layer 3">
    <g>
      <path class="cls-6" d="M108.9,468.9c-6.8-38.7-22-74-46.5-107.9,6,4.3,17.3,16.4,23.8,25.6,7.2,10.3,12.3,21.5,15.6,34.3,0,.2.3.4.5.4s0,0,0,0c.3,0,.5-.3.4-.6l-.8-7.4c-.6-5.9-1.3-11.8-1.9-17.7-.2-1.4-.3-2.8-.5-4.2-.4-2.9-.8-6-.9-8.9,0-5.1-2.1-7.6-6.9-8.7-5.6-1.2-7.9-4.4-7.4-10.6l9.5,2.9h0c.2,0,.3,0,.4-.2l.4-.5c0-.1,0-.3,0-.4,0-.1,0-.3-.3-.3-.4-.2-.8-.4-1.1-.7-.8-.5-1.7-1.1-2.7-1.3-8.3-2.2-9.1-2.9-10.5-11.3l9.6,3h.2c.2,0,.4-.1.5-.3l.4-.9v-.4c0-.1-.2-.2-.3-.3-.5-.2-1-.5-1.6-.7-1.1-.5-2.3-1.1-3.6-1.4-6.4-1.7-8.5-4.2-8.9-10.8l.9.2c1.2.3,2.4.6,3.5,1l.5.2c1.6.5,3.2,1,5.2,1.1h0c.2,0,.4-.2.5-.4,0-.2,0-.5-.3-.6-1.3-.6-2.7-1.1-4.1-1.6-5.3-2-10.3-3.8-9.8-11.4l9.3,2.6h0c0,0,.3,0,.4-.2l.9-.9c0-.1.2-.3,0-.5,0-.2-.2-.3-.4-.4-.8-.3-1.7-.5-2.5-.7-6.3-1.8-12.3-3.5-11.8-11.7l9.5,2.7h0c.2,0,.4-.1.5-.3,0-.2,0-.5-.2-.7-1.2-.7-2.6-1.3-3.9-1.9-5-2.2-9.7-4.3-9.6-11.6l9.9,3.8h.2c.2,0,.3,0,.4-.2s0-.5,0-.7c-5.1-5.1-6.3-10.8-3.6-17.8.7.7,1.3,1.4,2,2,1.7,1.7,3.4,3.4,4.2,5.3.8,1.9.9,4.2,1,6.6,0,1.1,0,2.2.2,3.2,0,.2.2.4.4.5h0c.2,0,.4,0,.4-.3l5.8-9.9c5,6.8,1.3,11.6-2.7,16.8-.5.6-1,1.3-1.5,1.9,0,.1,0,.3,0,.5,0,.2.2.3.4.3l1.1.3h0c.2,0,.3,0,.4-.2l6.6-8.3c.3.8.6,1.5.8,2.3,1.4,3.5,2.5,6.4.2,10.2,0,.2,0,.5,0,.6,0,0,.2.1.4.1h.3l1.5-1c3.7,5.8,3.5,8.9-1.2,14.4-.8,1-1.5,2-2.2,3-.3.5-.6.9-.9,1.4,0,.1,0,.3,0,.4s0,.3.2.3l.9.6h.3c.2,0,.3,0,.4-.2l6.7-8.7h.6c0,1,.3,2,.5,3,.5,2.5.9,5,.4,7.2-.4,1.7-1.5,3.2-2.7,4.9-1,1.4-2,2.8-2.7,4.4,0,.2,0,.5.2.6h.3c.2,0,.3,0,.4-.2l6.2-7.6c3.5,5.3,3.4,8.5-.5,13.4-1.1,1.4-2.5,3.4-2.9,6.1,0,.2,0,.5.3.6h.2c0,0,.3,0,.4-.2l6.5-7.7c2.1,4,2.9,7.7.3,12.2-1.8,3-2.7,7-2.4,10.4,1.3,15.3,3.1,30.6,4.9,46.3.8,7,2.1,13.7,3.9,20.4,0,.2.3.4.5.4h0c.2,0,.4-.2.5-.4.4-2.1.8-4.2,1.2-6.2.9-4.6,1.8-9.3,2.5-14,1.5-10.1,2.8-19.2,3.7-28.4,1.3-13.6-.7-27.1-6.2-41.3-4.6-11.8-9.1-23.9-13.4-35.5-1.8-4.8-3.6-9.6-5.4-14.4,0-.3-.2-.6-.3-.8,25.4,39.3,34,75.6,27.2,113.9,0,.2,0,.3,0,.4,0,.1.2.2.4.2h2.1c.2,0,.4-.2.5-.4.6-2.7,1.2-5.5,1.8-8.1,1.4-6,2.8-12.3,3.5-18.5.8-7.2,1-14.5,1.1-21.6,0-3.4.2-7,.3-10.4.1-2.9-.9-4.8-3.4-6-.9-.4-1.7-1-2.6-1.6-.4-.3-.9-.6-1.3-.9-6.9-4.6-8.7-10.1-6-18.2.6.4,1.1.7,1.7,1.1,1.7,1.1,3.5,2.2,5.1,3.4,1.5,1.2,2.9,2.5,4.2,3.8.6.6,1.2,1.2,1.8,1.8,0,0,.2.1.4.1h.3l1.1-.7c.1,0,.2-.2.2-.3v-.4c-.4-.5-.7-1-1.1-1.5-.9-1.2-1.7-2.5-2.8-3.6-.7-.8-1.7-1.3-2.7-1.8-.3-.2-.7-.4-1-.6-7.6-4.5-9.6-9.7-6.9-18.3l12.7,9.4s.2.1.3.1h.2l.8-.4c.1,0,.2-.2.3-.3v-.4c-.3-.4-.5-.9-.8-1.3-.6-1.1-1.2-2.2-2.1-3.1-.8-.8-1.9-1.4-2.9-2-.4-.2-.8-.4-1.1-.6-7.9-4.7-9.9-9.7-7.4-18.9l12.9,9.5s.2.1.3.1h.2l.6-.2c.2,0,.3-.2.3-.3v-.5c-.3-.4-.5-.9-.8-1.3-.6-1-1.3-2.1-2.1-3-.8-.8-1.8-1.3-2.8-1.9-.3-.2-.6-.3-.9-.5-7.9-4.5-10.1-9.8-7.5-18.8l13.5,9.5h.3c.1,0,.2,0,.3-.1.2-.2.2-.4.1-.6-.3-.6-.6-1.2-.9-1.7-.5-1-.9-1.9-1.6-2.5-1.1-1-2.3-1.7-3.6-2.4-.4-.2-.8-.4-1.2-.7-7.7-4.6-9.6-9.7-7.1-18.6l13,9.2h.3c.1,0,.2,0,.3-.1.2-.2.2-.4.1-.6l-.6-1.2c-.4-.8-.8-1.6-1.4-2.2-1.3-1.2-2.9-2.1-4.4-3.1l-.6-.4c-7.3-4.6-9.3-10.1-6.9-19.1l13.2,12.2s.2.1.4.1h.3c.2-.1.3-.4.2-.6-.2-.6-.4-1.2-.6-1.8-.4-1.3-.8-2.6-1.4-3.8-3.8-6.9-2.6-15.3,3.2-21.1,6.9,7.2,7.7,12.5,3.2,21.6-.6,1.2-.7,2.5-.9,3.6,0,.5-.1.9-.2,1.3,0,.2,0,.5.3.6h.2c.1,0,.3,0,.4-.1l12.9-12.7c2.8,6.5.9,14-4.5,17.8-.5.3-1,.7-1.5,1-2,1.3-4,2.7-5.8,4.4-1,.9-1.4,2.3-1.8,3.3-.2.4-.3.8-.4,1.1-.1.2,0,.5.1.6,0,0,.2.1.3.1s.2,0,.3-.1l13.7-11c2.9,8.2.6,14.4-6.8,18.9-.6.4-1.3.7-2.1,1.1-2.8,1.4-6.1,2.9-5.6,7.6,0,.3.2.6.3.7,0,.2.2.2.4.3h0c.1,0,.3,0,.4-.2.6-.7,1.3-1.3,1.9-2,1.4-1.5,2.8-3.1,4.4-4.4,1.6-1.3,3.5-2.5,5.3-3.6.6-.4,1.3-.8,1.9-1.2,2.8,7.5.4,14.1-6.4,18.2l-.7.4c-1.1.7-2.3,1.3-3.4,2.1-4.4,2.9-4.5,3.1-4.2,7.3,0,.2.1.4.3.5h.2c.1,0,.2,0,.3-.1l13.8-11.9c2.6,10.7,1,14.4-8.3,20-.5.3-1.1.6-1.7.9-2.9,1.6-6.2,3.3-4.9,7.5,0,.2.2.3.3.3h.2c.1,0,.2,0,.3-.1l13.5-11.1c3,7.6.8,14.5-5.9,18.4-.8.4-1.5.9-2.2,1.4-.9.6-1.9,1.2-2.8,1.7-2.9,1.6-4.1,3.8-3.4,6.2,0,.2.2.3.3.3h.2c.1,0,.2,0,.3-.1l13.6-10.1c2.8,7.1.4,14.6-5.6,17.5-7.6,3.5-10.4,8.5-9.9,17,1.5,24.1-4.9,46.9-12.1,67.9-3.3,9.6-6.9,19.6-10.7,29.7-.5,1.3-2,2.4-3.4,3.4l.6.2Z"/>
      <path class="cls-4" d="M134.5,233.4c6.4,6.8,7,11.9,2.8,20.7-.6,1.2-.8,2.6-.9,3.8,0,.5-.1.9-.2,1.2,0,.4.1.9.5,1.1.2,0,.3.1.5.1.3,0,.5-.1.7-.3l12.4-12.2c2.3,6.1.4,13-4.6,16.4-.5.3-1,.7-1.5,1-2,1.3-4.1,2.7-5.8,4.4-1,1-1.6,2.4-2,3.5-.1.4-.3.8-.4,1.1-.2.4,0,1,.3,1.3.2.2.4.2.6.2s.5,0,.7-.2l13.2-10.6c2.4,7.7.3,13.3-6.8,17.6-.6.4-1.3.7-2,1.1-2.8,1.4-6.4,3.1-5.9,8.1,0,.4.3.8.4.9.2.2.4.4.7.5h.2c.3,0,.6-.1.7-.3.6-.7,1.3-1.4,1.9-2,1.4-1.5,2.8-3.1,4.4-4.4,1.6-1.3,3.5-2.5,5.3-3.6.4-.3.9-.5,1.3-.8,2.4,7.1.1,13.1-6.4,17l-.7.4c-1.1.7-2.3,1.4-3.4,2.1-4.5,2.9-4.8,3.3-4.4,7.8,0,.4.3.7.6.9h.4c.2,0,.5,0,.7-.3l9-7.8,4.1-3.5c2.3,9.8.6,13.3-8.3,18.6-.5.3-1.1.6-1.7.9-2.9,1.6-6.5,3.5-5.1,8.1.1.3.4.6.7.7h.3c.2,0,.5,0,.7-.2l3.2-2.6,9.8-8.1c2.5,7.1.3,13.4-5.9,17.1-.8.5-1.5.9-2.3,1.4-1,.6-1.8,1.2-2.8,1.7-3.1,1.7-4.4,4.1-3.6,6.8,0,.3.3.6.7.7h.3c.2,0,.4,0,.6-.2l9.8-7.3,3.2-2.4c2.4,6.6,0,13.6-5.6,16.2-7.8,3.6-10.8,8.7-10.2,17.5,1.5,24-4.9,46.7-12,67.7-3.3,9.6-6.9,19.6-10.7,29.7-.4,1-1.4,1.9-2.5,2.7-6.7-37.3-21.2-71.5-44.3-104.3,6.2,5.4,15.3,15.3,20.8,23.2,7.1,10.2,12.2,21.4,15.5,34.1,0,.5.5.8,1,.8s0,0,.2,0c.5,0,.9-.6.8-1.1l-.8-7.4c-.6-5.9-1.3-11.8-1.9-17.7-.2-1.4-.3-2.8-.5-4.2-.4-2.9-.8-5.9-.9-8.9,0-5.3-2.3-8.1-7.4-9.2-5.2-1.1-7.3-3.9-7-9.4l6.5,2,2.3.7h.3c.3,0,.7-.2.9-.4l.4-.5c.2-.2.2-.5.2-.8s-.3-.5-.5-.7c-.4-.2-.7-.4-1.1-.7-.9-.5-1.8-1.1-2.8-1.4-7.8-2-8.8-2.7-10-10.1l3.3,1,5.5,1.7h.3c.4,0,.8-.2.9-.6l.2-.5.2-.4c0-.3,0-.5,0-.8s-.3-.5-.6-.6c-.5-.2-1-.5-1.5-.7-1.2-.6-2.4-1.1-3.7-1.5-6-1.6-8-3.8-8.4-9.6h.2c1.2.3,2.4.6,3.5,1l.5.2c1.6.5,3.3,1,5.4,1.1h0c.5,0,.9-.3,1-.8s0-1-.6-1.2c-1.3-.6-2.7-1.2-4.1-1.7-5.2-1.9-9.7-3.6-9.5-10.2l8.7,2.4h.3c.3,0,.5-.1.7-.3l.8-.9c.3-.3.4-.6.3-1,0-.4-.4-.6-.7-.7-.8-.3-1.7-.5-2.5-.7-6.2-1.7-11.6-3.3-11.5-10.5l4.9,1.4,4,1.2h.3c.4,0,.8-.2,1-.6.2-.5,0-1-.4-1.3-1.3-.7-2.6-1.3-4-1.9-4.8-2.1-9-4-9.3-10.4l3.1,1.2,6.1,2.4h.4c.3,0,.7-.2.9-.5.3-.4.2-1,0-1.3-4.8-4.8-6-9.9-3.8-16.4.5.5.9,1,1.4,1.4,1.8,1.8,3.3,3.3,4.1,5.1.8,1.8.9,4.1.9,6.4s0,2.2.2,3.3c0,.4.4.8.8.9h.2c.4,0,.7-.2.9-.5l1.8-3.1,3.6-6.1c4.1,6.1.7,10.5-3.2,15.5-.5.6-1,1.3-1.5,1.9-.2.3-.3.6,0,1,0,.3.4.6.7.7l.7.2h.5c0,.2.2.2.3.2.3,0,.6-.1.8-.4l6-7.6c.2.5.4.9.5,1.4,1.3,3.3,2.4,6.2.3,9.7-.3.4-.2,1,.2,1.3.2.2.5.3.7.3s.4,0,.6-.2l1.1-.7c3.3,5.3,2.9,8.2-1.4,13.4-.8,1-1.5,2-2.2,3.1-.3.5-.6.9-.9,1.4-.2.2-.2.5-.2.8s.2.5.4.7l.6.4.3.2c.2.1.4.2.6.2.3,0,.6-.1.8-.4l6.5-8.4c0,.8.3,1.6.4,2.4.5,2.5.9,4.9.4,7-.4,1.6-1.5,3.1-2.6,4.7-1,1.4-2,2.9-2.7,4.5-.2.5,0,1,.4,1.3.2,0,.4.1.5.1.3,0,.6-.1.8-.4l5.3-6.5.5-.6c3,4.7,2.7,7.6-.9,12.2-1.2,1.5-2.6,3.6-3,6.3,0,.5.2.9.6,1.1h.4c.3,0,.6-.1.8-.4l6-7.1c1.8,3.6,2.3,7,0,11-1.8,3.1-2.7,7.2-2.4,10.7,1.3,15.3,3.1,30.6,4.9,46.3.8,7.1,2.1,13.8,3.9,20.5,0,.5.5.8,1,.8s0,0,0,0c.5,0,.9-.4,1-.9.4-2.1.8-4.2,1.2-6.2.9-4.6,1.8-9.4,2.5-14.1,1.5-10.1,2.8-19.2,3.7-28.4,1.3-13.7-.7-27.3-6.2-41.5-4.6-11.8-9.1-23.9-13.5-35.6-1.3-3.5-2.6-7-3.9-10.5,10.2,16.5,17.3,32.4,21.6,48.3,5.5,20.4,6.5,40.3,2.8,61,0,.3,0,.6.2.9.2.2.5.4.8.4s0,0,0,0h2c.5-.1.9-.4,1-.9.6-2.7,1.2-5.4,1.8-8.1,1.4-6,2.8-12.3,3.5-18.5.8-7.2,1-14.5,1.1-21.7,0-3.4.2-7,.3-10.4.1-3.2-1-5.2-3.7-6.5-.8-.4-1.6-1-2.5-1.6-.4-.3-.9-.6-1.3-.9-6.4-4.3-8.3-9.4-6-17,.4.2.8.5,1.1.7,1.7,1.1,3.4,2.2,5,3.4,1.5,1.1,2.8,2.5,4.2,3.8.6.6,1.2,1.2,1.8,1.8.2.2.5.3.7.3s.4,0,.6-.2l1.1-.7c.2-.2.4-.4.5-.7s0-.6-.2-.8c-.4-.5-.7-1-1.1-1.5-.9-1.2-1.8-2.5-2.8-3.6-.8-.8-1.8-1.4-2.8-1.9-.3-.2-.7-.4-1-.5-7.2-4.2-9.2-9.1-6.9-17l9.6,7.1,2.5,1.9c.2.1.4.2.6.2s.3,0,.5-.1l.8-.4c.3-.1.4-.4.5-.6,0-.3,0-.6-.1-.8-.3-.4-.5-.9-.8-1.3-.6-1.1-1.3-2.2-2.2-3.2-.9-.9-2-1.5-3.1-2.1-.4-.2-.8-.4-1.1-.6-7.6-4.5-9.5-9-7.3-17.6l5.8,4.3,6.5,4.8c.2.1.4.2.6.2h.3l.6-.2c.3-.1.5-.3.7-.6.1-.3,0-.6-.1-.9-.3-.4-.5-.9-.8-1.3-.6-1.1-1.3-2.2-2.2-3.1-.8-.9-1.9-1.4-2.9-2-.3-.2-.6-.3-.9-.5-7.5-4.3-9.6-9.2-7.4-17.5l10,7,2.9,2c.2.1.4.2.6.2s.5,0,.7-.3c.4-.3.4-.9.2-1.3-.3-.6-.6-1.2-.9-1.7-.5-1.1-1-2-1.7-2.6-1.1-1-2.4-1.7-3.7-2.4-.4-.2-.8-.4-1.2-.7-7.2-4.3-9.2-9.1-7-17.3l5.6,4,6.8,4.8c.2.1.4.2.6.2s.5,0,.7-.3c.4-.3.4-.9.2-1.3s-.4-.8-.6-1.1c-.4-.9-.8-1.7-1.6-2.4-1.4-1.2-2.9-2.2-4.4-3.1l-.6-.4c-6.9-4.3-8.9-9.4-6.9-17.7l8.3,7.7,4.2,3.9c.2.2.5.3.7.3s.4,0,.6-.2c.4-.3.6-.8.4-1.2-.2-.6-.4-1.2-.5-1.8-.4-1.3-.8-2.7-1.5-3.9-3.6-6.6-2.5-14.5,2.7-20.1M134.5,232c-6.2,5.9-7.6,14.8-3.6,22,.9,1.7,1.3,3.7,2,5.5-4.8-4.4-9.1-8.5-13.8-12.8-2.9,9.9-.7,15.7,6.9,20.5,1.7,1.1,3.4,2.1,4.9,3.4.8.7,1.2,2,1.9,3.2-4.8-3.4-9.2-6.5-13.6-9.7-2.9,9.6-1,15.1,7.1,19.9,1.6,1,3.3,1.8,4.7,3,.9.8,1.3,2.2,2.3,4-5.3-3.7-9.7-6.8-14.1-9.9-3,9.6-.8,15.4,7.5,20.1,1.2.7,2.6,1.3,3.6,2.3,1.2,1.2,1.9,2.8,2.9,4.2-.2,0-.4.1-.6.2-4.5-3.3-8.9-6.6-13.5-10-3,10-.9,15.3,7.4,20.2,1.3.8,2.9,1.4,4,2.5,1.2,1.2,1.9,2.9,2.8,4.3-.3.1-.5.3-.8.4-4.4-3.3-8.8-6.5-13.3-9.8-3.1,9.3-1,14.9,6.9,19.6,1.2.7,2.6,1.3,3.6,2.3,1.4,1.5,2.6,3.4,3.8,5.1-.4.2-.7.5-1.1.7-2-1.9-3.9-4-6.1-5.7-2.3-1.8-4.9-3.3-7.4-4.9-3.1,8.7-1.2,14.6,6,19.4,1.3.9,2.5,1.9,3.9,2.6,2.4,1.1,3.2,2.9,3.1,5.5-.5,10.7-.3,21.4-1.4,32-1,8.9-3.5,17.7-5.3,26.5h-2c7.7-43.4-5.5-81.5-28.9-116.9.2,1.4.6,2.7,1.1,3.9,6.3,16.7,12.4,33.4,18.9,50,5.1,13.3,7.5,26.9,6.1,41.1-.9,9.5-2.3,18.9-3.7,28.4-1,6.8-2.4,13.5-3.6,20.3-1.8-6.8-3.1-13.6-3.9-20.3-1.8-15.4-3.6-30.8-4.9-46.3-.3-3.3.6-7.2,2.3-10.1,2.8-4.8,1.9-8.8-.6-13.4-2.5,3-4.8,5.6-7,8.3.4-2.3,1.5-4.2,2.8-5.9,4.2-5.2,4.3-8.7,0-14.5-2.3,2.8-4.5,5.5-6.7,8.2,1.4-3.4,4.5-6.1,5.4-9.4s-.5-7.2-.9-10.8h-1.3c-2.3,3-4.6,6-6.9,8.9-.3-.2-.6-.4-.9-.6,1-1.5,2-3,3.1-4.4,4.9-5.8,5.1-9.3.9-15.5-.7.4-1.3.9-2,1.3,3.1-5.1,0-9.1-1.3-13.8-2.7,3.4-4.9,6.2-7.2,9.1-.4-.1-.7-.2-1.1-.3,4.4-6,10.4-11.7,3.7-19.9-2.1,3.6-4.1,7-6.2,10.5-.3-3.4,0-7.1-1.2-10s-4.2-5.1-6.8-8.1c-3.2,8-1.8,13.9,3.4,19.1-3.5-1.3-7-2.7-10.6-4.1-.5,10.4,7.9,11.4,13.8,14.7-3.4-1-6.8-2-10.1-2.9-1,10.4,7.4,11.4,14.7,13.6-.3.3-.6.6-.8.9-3.3-.9-6.6-1.9-9.9-2.8-1.1,10.7,7.8,11.2,14.1,14.2-2.2,0-3.9-.7-5.6-1.2s-3.4-.9-5.1-1.4c.3,7.4,2.5,10.1,9.3,12,1.7.5,3.4,1.4,5.1,2.1,0,.3-.3.6-.4.9-3.4-1.1-6.9-2.1-10.4-3.2,1.5,9.5,2.3,10.3,11.1,12.6,1.3.3,2.5,1.3,3.7,1.9,0,.2-.2.4-.4.5-3.4-1-6.7-2-10.1-3-.7,6.6,1.5,10.4,7.7,11.8,4.8,1.1,6.4,3.6,6.5,8.2,0,4.4.9,8.8,1.4,13.2.9,8.3,1.8,16.7,2.7,25-3.3-12.5-8.4-24-15.7-34.5-7.3-10.5-21-24.7-26.1-27.1,24.4,33.2,41,69.5,48.1,110.5,1.8-1.2,3.6-2.4,4.3-4,3.7-9.8,7.3-19.7,10.7-29.7,7.5-22.1,13.6-44.6,12.1-68.1-.5-8.5,2.2-13.1,9.6-16.5,6.7-3.1,8.9-11.4,5.6-18.7-4.8,3.6-9.6,7.1-14.1,10.4-.7-2.2.5-4.2,3.1-5.6,1.8-.9,3.4-2.1,5.1-3.2,7.1-4.1,9.4-11.5,5.9-19.7-4.9,4-9.6,7.9-14,11.6-1.4-4.6,3.1-5.9,6.4-7.9,9.6-5.8,11.3-9.8,8.3-21.4-5.2,4.5-10.1,8.7-14.4,12.4-.2-2.7,1.1-5,4-6.9,1.3-.9,2.7-1.7,4-2.5,7.3-4.4,9.6-11.4,6.4-19.5-2.6,1.7-5.4,3.2-7.8,5.1-2.3,1.9-4.3,4.3-6.4,6.5,0,0-.2-.2-.2-.5-.5-5.4,4.2-6.3,7.4-8.2,7.7-4.7,10.2-11.2,6.8-20.2-4.9,3.9-9.6,7.7-14.3,11.5.5-1.1,1-3.1,2.2-4.3,2.1-2,4.7-3.6,7.2-5.3,5.7-3.9,7.8-12,4.4-19.1-4.6,4.6-9.1,8.9-13.5,13.3.3-1.3.3-3.2,1.1-4.8,4.6-9.5,3.7-15.1-3.7-22.6h0l-.6.5Z"/>
    </g>
    <g>
      <path class="cls-3" d="M163.2,494.8c-6.6-37.6-21.4-72-45.2-104.9,5.9,4.2,16.9,15.9,23.1,24.9,7,10,11.9,20.9,15.2,33.4,0,.2.3.4.5.4s0,0,0,0c.3,0,.4-.3.4-.6l-.7-6.7c-.6-5.9-1.3-11.8-1.9-17.7-.1-1.4-.3-2.7-.5-4.1-.4-2.9-.8-5.8-.8-8.7-.1-5-2.1-7.4-6.8-8.5-5.5-1.2-7.6-4.3-7.2-10.3l9.2,2.8h.1c.2,0,.3,0,.4-.2l.4-.5c0-.1.1-.3,0-.4,0-.1-.1-.3-.3-.3-.4-.2-.7-.4-1.1-.6-.8-.5-1.7-1-2.6-1.3-8.1-2.1-8.9-2.8-10.2-11l9.4,2.9h.1c.2,0,.4-.1.5-.3l.4-.8v-.4c0-.1-.1-.2-.3-.3-.5-.2-1-.5-1.5-.7-1.1-.5-2.3-1.1-3.5-1.4-6.2-1.7-8.2-4.1-8.6-10.5l.9.2c1.2.3,2.3.6,3.4.9l.5.2c1.5.5,3.1.9,5.1,1h0c.2,0,.4-.2.5-.4,0-.2,0-.5-.3-.6-1.3-.6-2.6-1.1-4-1.6-5.2-1.9-10.1-3.7-9.5-11.1l9,2.5h.1c.1,0,.3,0,.4-.2l.8-.8c.1-.1.2-.3.1-.5,0-.2-.2-.3-.3-.4-.8-.2-1.6-.5-2.5-.7-6.1-1.7-12-3.4-11.5-11.4l9.2,2.7h.1c.2,0,.4-.1.5-.3,0-.2,0-.5-.2-.6-1.2-.7-2.5-1.3-3.8-1.8-4.8-2.2-9.4-4.2-9.3-11.3l9.7,3.7h.2c.2,0,.3,0,.4-.2.1-.2.1-.5,0-.6-5-4.9-6.1-10.5-3.5-17.3.6.7,1.3,1.3,1.9,2,1.7,1.7,3.3,3.3,4.1,5.1.8,1.9.9,4.1.9,6.4s0,2.1.2,3.1c0,.2.2.4.4.4h.1c.2,0,.3,0,.4-.2l5.7-9.6c4.9,6.6,1.2,11.3-2.6,16.3-.5.6-1,1.3-1.4,1.9,0,.1-.1.3,0,.5,0,.2.2.3.3.3l1.1.3h.1c.2,0,.3,0,.4-.2l6.4-8.1c.3.8.5,1.5.8,2.2,1.3,3.4,2.4,6.3.2,9.9-.1.2,0,.5,0,.6,0,0,.2.1.4.1h.3l1.5-1c3.6,5.6,3.4,8.7-1.1,14-.8.9-1.5,2-2.1,2.9-.3.5-.6.9-.9,1.4,0,.1-.1.2,0,.4,0,.1.1.3.2.3l.9.6h.3c.2,0,.3,0,.4-.2l6.6-8.5h.6c.1,1,.3,1.9.5,2.9.4,2.4.9,4.9.4,7-.4,1.6-1.5,3.1-2.6,4.7-1,1.3-1.9,2.7-2.6,4.3,0,.2,0,.5.2.6h.3c.1,0,.3,0,.4-.2l6.1-7.4c3.5,5.1,3.3,8.2-.5,13-1.1,1.4-2.4,3.3-2.9,5.9,0,.2,0,.4.3.5h.2c.1,0,.3,0,.4-.2l6.4-7.5c2,3.9,2.8,7.5.3,11.9-1.7,2.9-2.6,6.8-2.3,10.1,1.3,14.9,3,29.8,4.8,45,.8,6.8,2,13.3,3.8,19.9,0,.2.3.4.5.4s0,0,0,0c.2,0,.4-.2.5-.4.4-2,.7-4.1,1.1-6.1.8-4.5,1.7-9.1,2.4-13.7,1.5-9.8,2.8-18.7,3.6-27.6,1.3-13.2-.7-26.4-6-40.2-4.5-11.5-8.9-23.3-13.1-34.7-1.7-4.6-3.5-9.3-5.2-13.9,0-.3-.2-.5-.3-.8,24.7,38.2,33.1,73.5,26.4,110.8,0,.2,0,.3.1.4,0,.1.2.2.4.2h2c.2,0,.4-.2.5-.4.5-2.6,1.2-5.3,1.7-7.9,1.3-5.9,2.7-11.9,3.4-18,.8-7,.9-14.1,1.1-21,0-3.3.2-6.8.3-10.1.1-2.8-.9-4.7-3.3-5.8-.9-.4-1.7-1-2.5-1.6-.4-.3-.8-.6-1.3-.9-6.7-4.5-8.4-9.8-5.8-17.7.6.4,1.1.7,1.7,1.1,1.7,1.1,3.4,2.1,4.9,3.4,1.4,1.1,2.8,2.5,4.1,3.7.6.6,1.2,1.2,1.8,1.7,0,0,.2.1.3.1h.3l1-.7c.1,0,.2-.2.2-.3v-.4c-.4-.5-.7-1-1.1-1.5-.8-1.2-1.7-2.4-2.7-3.5-.7-.8-1.7-1.3-2.6-1.8-.3-.2-.7-.4-1-.5-7.4-4.4-9.3-9.4-6.7-17.8l12.4,9.1h.5l.8-.4c.1,0,.2-.2.3-.3v-.4c-.3-.4-.5-.9-.8-1.3-.6-1-1.2-2.1-2-3-.8-.8-1.8-1.4-2.8-1.9-.4-.2-.8-.4-1.1-.6-7.7-4.6-9.7-9.4-7.2-18.4l12.6,9.3h.5l.6-.2c.1,0,.3-.2.3-.3v-.4c-.3-.4-.5-.8-.8-1.3-.6-1-1.2-2.1-2.1-2.9-.7-.8-1.7-1.3-2.7-1.8-.3-.2-.6-.3-.9-.5-7.7-4.4-9.8-9.6-7.3-18.3l13.1,9.2h.3c.1,0,.2,0,.3-.1.2-.2.2-.4.1-.6l-.8-1.6c-.5-1-.9-1.8-1.5-2.4-1-.9-2.3-1.6-3.5-2.3-.4-.2-.8-.4-1.1-.7-7.5-4.5-9.4-9.4-6.9-18.1l12.6,9h.3c.1,0,.2,0,.3-.1.2-.2.2-.4.1-.6-.2-.4-.4-.8-.6-1.1-.4-.8-.8-1.6-1.4-2.1-1.3-1.1-2.8-2.1-4.2-3l-.6-.4c-7.1-4.4-9-9.9-6.7-18.6l12.8,11.9s.2.1.3.1h.3c.2-.1.3-.4.2-.6-.2-.6-.4-1.1-.5-1.7-.4-1.3-.8-2.6-1.4-3.7-3.7-6.8-2.5-14.9,3.1-20.5,6.7,7,7.5,12.1,3.1,21-.5,1.1-.7,2.4-.9,3.5,0,.4-.1.9-.2,1.2,0,.2,0,.4.3.5h.2c.1,0,.3,0,.4-.1l12.6-12.4c2.7,6.3.9,13.7-4.4,17.3-.5.3-1,.7-1.5,1-1.9,1.3-3.9,2.6-5.6,4.2-.9.9-1.4,2.2-1.8,3.2-.1.4-.3.8-.4,1.1-.1.2,0,.5.1.6,0,0,.2.1.3.1s.2,0,.3-.1l13.4-10.7c2.8,8,.6,14-6.6,18.4-.6.4-1.3.7-2,1-2.8,1.3-5.9,2.9-5.4,7.4,0,.3.2.6.3.7,0,.1.2.2.4.3h0c.1,0,.3,0,.4-.2.6-.6,1.2-1.3,1.8-2,1.4-1.5,2.7-3,4.3-4.3s3.4-2.4,5.2-3.5c.6-.4,1.2-.7,1.8-1.1,2.7,7.3.4,13.7-6.2,17.7l-.6.4c-1.1.6-2.2,1.3-3.3,2-4.3,2.8-4.4,3-4.1,7.1,0,.2.1.4.3.4h.2c.1,0,.2,0,.3-.1l13.4-11.5c2.6,10.4,1,14-8.1,19.5-.5.3-1.1.6-1.6.9-2.8,1.5-6,3.2-4.8,7.3,0,.2.2.3.3.3h.1c.1,0,.2,0,.3-.1l13.1-10.8c2.9,7.4.8,14.1-5.8,17.9-.7.4-1.5.9-2.2,1.4-.9.6-1.8,1.2-2.8,1.7-2.8,1.5-4,3.7-3.3,6,0,.2.2.3.3.3h.5l13.2-9.8c2.8,6.9.4,14.2-5.5,17-7.4,3.4-10.2,8.2-9.6,16.6,1.5,23.4-4.8,45.6-11.7,66.1-3.2,9.3-6.7,19-10.4,28.9-.5,1.3-1.9,2.4-3.3,3.3l-.2.5Z"/>
      <path class="cls-4" d="M188.1,265.7c6.2,6.6,6.8,11.6,2.7,20.1-.6,1.2-.8,2.5-.9,3.7,0,.4-.1.9-.2,1.2,0,.4.1.9.5,1.1.2,0,.3.1.5.1.3,0,.5,0,.7-.3l5.6-5.6,6.4-6.3c2.2,5.9.4,12.6-4.5,16-.5.3-1,.7-1.4,1-1.9,1.3-4,2.7-5.7,4.3-1,1-1.5,2.3-1.9,3.4-.1.4-.3.8-.4,1-.2.4,0,.9.3,1.2.2.1.4.2.6.2s.4,0,.6-.2l12.8-10.3c2.4,7.5.3,12.9-6.6,17.1-.6.4-1.3.7-2,1-2.8,1.3-6.2,3-5.7,7.9,0,.4.3.8.4.9.2.2.4.4.7.5h.2c.3,0,.5-.1.7-.3.6-.6,1.2-1.3,1.8-2,1.3-1.5,2.7-3,4.3-4.2,1.6-1.3,3.4-2.4,5.1-3.5.4-.3.9-.5,1.3-.8,2.3,6.9.1,12.7-6.2,16.5l-.6.4c-1.1.6-2.2,1.3-3.3,2-4.3,2.9-4.7,3.2-4.3,7.6,0,.4.3.7.6.9h.4c.2,0,.5,0,.7-.2l12.8-11c2.2,9.5.5,12.9-8,18.1-.5.3-1,.6-1.6.9-2.8,1.5-6.4,3.4-5,7.9,0,.3.4.6.7.7h.3c.2,0,.5,0,.6-.2l5.5-4.6,7.1-5.8c2.4,6.9.3,13.1-5.8,16.6-.8.4-1.5.9-2.2,1.4-.9.6-1.8,1.2-2.7,1.7-3,1.6-4.3,4-3.5,6.6,0,.3.3.6.6.7h.3c.2,0,.4,0,.6-.2l12.7-9.4c2.3,6.4,0,13.2-5.5,15.7-7.6,3.5-10.5,8.5-9.9,17.1,1.5,23.3-4.7,45.5-11.7,65.9-3.2,9.3-6.7,19-10.4,28.9-.4,1-1.4,1.8-2.5,2.6-6.5-36.3-20.6-69.6-43.1-101.5,6.1,5.2,14.9,14.9,20.2,22.6,6.9,10,11.9,20.8,15.1,33.2.1.5.5.8,1,.8s.1,0,.2,0c.5,0,.9-.6.8-1.1l-.8-7.1c-.6-5.7-1.2-11.5-1.9-17.2-.1-1.4-.3-2.7-.5-4.1-.4-2.8-.8-5.8-.8-8.6-.1-5.2-2.3-7.8-7.2-8.9-5-1.1-7.1-3.8-6.8-9.2l2.3.7,6.3,1.9h.3c.3,0,.6-.2.8-.4l.3-.4h.1c.2-.4.2-.7.2-1s-.3-.5-.5-.7c-.4-.2-.7-.4-1.1-.6-.9-.5-1.7-1.1-2.8-1.3-7.6-2-8.5-2.6-9.7-9.8l3.2,1,5.4,1.7h.3c.4,0,.8-.2.9-.6l.2-.4.2-.4c.1-.2.1-.5,0-.8,0-.3-.3-.5-.5-.6-.5-.2-1-.5-1.5-.7-1.1-.5-2.3-1.1-3.6-1.4-5.8-1.6-7.7-3.7-8.2-9.3h.2c1.2.3,2.3.6,3.4.9l.5.2c1.6.5,3.2,1,5.2,1h0c.5,0,.9-.3,1-.8s-.1-1-.5-1.2c-1.3-.6-2.7-1.1-4-1.6-5-1.9-9.4-3.5-9.2-10l5,1.4,3.5,1h.3c.3,0,.5-.1.7-.3l.8-.8c.2-.3.3-.6.3-1s-.3-.6-.7-.7c-.8-.3-1.6-.5-2.5-.7-6-1.7-11.3-3.2-11.1-10.2l8.6,2.5h.3c.4,0,.8-.2.9-.6.2-.5,0-1-.4-1.3-1.2-.7-2.6-1.3-3.9-1.9-4.7-2.1-8.8-3.9-9-10.1l4,1.5,4.9,1.9h.4c.3,0,.7-.2.8-.5.3-.4.2-.9-.1-1.3-4.7-4.7-5.8-9.7-3.7-16l1.4,1.4c1.7,1.7,3.2,3.2,3.9,5,.8,1.8.8,3.9.9,6.2,0,1,0,2.1.2,3.2,0,.4.4.8.8.9h.2c.4,0,.7-.2.9-.5l1.4-2.4,3.9-6.6c4,5.9.7,10.2-3.1,15.1-.5.6-1,1.3-1.4,1.9-.2.3-.3.6-.1.9.1.3.4.6.7.6l.6.2h.5c0,.2.2.2.3.2.3,0,.6-.1.8-.4l3.1-3.9,2.7-3.4c.2.5.3.9.5,1.4,1.3,3.2,2.4,6,.3,9.4-.2.4-.2.9.2,1.3.2.2.4.3.7.3s.4,0,.6-.2l1.1-.7h0c3.2,5.1,2.9,8-1.4,13-.8,1-1.5,2-2.2,3-.3.5-.6.9-.9,1.3-.2.2-.2.5-.2.8s.2.5.4.7l.9.6c.2.1.4.2.6.2.3,0,.6-.1.8-.4l4.3-5.6,2-2.6c.1.8.3,1.6.4,2.3.5,2.5.9,4.8.4,6.8-.4,1.5-1.4,3-2.5,4.6-1,1.4-2,2.8-2.7,4.4-.2.5,0,1,.4,1.3.2,0,.3.1.5.1.3,0,.6-.1.8-.4l5.6-6.9c2.9,4.6,2.7,7.4-.8,11.8-1.2,1.4-2.5,3.5-3,6.2,0,.4.2.9.6,1.1h.4c.3,0,.6-.1.8-.4l.6-.7,5.2-6.2c1.7,3.5,2.2,6.8,0,10.7-1.8,3-2.7,7-2.4,10.4,1.3,14.9,3,29.8,4.8,45.1.8,6.9,2,13.4,3.8,19.9.1.4.5.8,1,.8s0,0,0,0c.5,0,.9-.4,1-.8.4-2,.7-4,1.1-6.1.8-4.5,1.7-9.1,2.4-13.7,1.5-9.8,2.8-18.7,3.6-27.7,1.3-13.3-.7-26.5-6-40.4-4.4-11.5-8.8-23.2-13.1-34.6-1.3-3.4-2.6-6.8-3.8-10.2,9.9,16.1,16.8,31.5,21,46.9,5.4,19.8,6.3,39.2,2.7,59.3,0,.3,0,.6.2.8.2.2.5.3.8.3s0,0,0,0h2c.5,0,.9-.4.9-.9.5-2.6,1.2-5.3,1.7-7.9,1.3-5.9,2.7-11.9,3.4-18,.8-7,.9-14.1,1.1-21.1,0-3.3.2-6.8.3-10.1.1-3.1-1-5.1-3.6-6.3-.8-.4-1.6-1-2.4-1.6-.4-.3-.8-.6-1.3-.9-6.3-4.2-8.1-9.2-5.8-16.5.4.2.7.5,1.1.7,1.6,1,3.4,2.1,4.9,3.3,1.4,1.1,2.8,2.4,4.1,3.7.6.6,1.2,1.2,1.8,1.7.2.2.4.3.7.3s.4,0,.6-.2l.5-.3.5-.3c.2-.2.4-.4.4-.7s0-.6-.2-.8c-.4-.5-.7-1-1.1-1.5-.8-1.2-1.7-2.4-2.7-3.5-.8-.8-1.8-1.4-2.7-1.9-.3-.2-.7-.3-1-.5-7-4.1-8.9-8.8-6.7-16.5l11.8,8.7c.2.1.4.2.6.2s.3,0,.5-.1l.4-.2.4-.2c.3-.1.4-.4.5-.6,0-.3,0-.6-.1-.8-.3-.4-.5-.8-.7-1.3-.6-1.1-1.2-2.2-2.1-3.1-.9-.9-1.9-1.4-3-2-.4-.2-.7-.4-1.1-.6-7.4-4.3-9.3-8.8-7.1-17.1l12,8.9c.2.1.4.2.6.2h.6c0-.1.3-.2.3-.2.3,0,.5-.3.6-.6.1-.3,0-.6-.1-.9-.3-.4-.5-.8-.8-1.3-.6-1-1.3-2.1-2.1-3-.8-.8-1.8-1.4-2.8-1.9-.3-.2-.6-.3-.9-.5-7.2-4.1-9.3-9-7.2-17l3.5,2.5,9,6.3c.2.1.4.2.6.2s.5,0,.7-.3c.4-.3.4-.8.2-1.2-.3-.6-.6-1.1-.8-1.6-.5-1-.9-1.9-1.7-2.6-1.1-1-2.3-1.7-3.6-2.4-.4-.2-.8-.4-1.1-.7-7-4.2-9-8.9-6.8-16.8l5.2,3.7,6.8,4.8c.2.1.4.2.6.2s.5,0,.7-.3c.4-.3.4-.8.2-1.3-.2-.4-.4-.7-.6-1.1-.4-.9-.8-1.7-1.5-2.3-1.3-1.2-2.8-2.1-4.3-3l-.6-.4c-6.7-4.2-8.7-9.1-6.7-17.2l6.6,6.1,5.6,5.2c.2.2.4.3.7.3s.4,0,.6-.2c.4-.3.6-.7.4-1.2-.2-.6-.4-1.1-.5-1.7-.4-1.3-.8-2.6-1.4-3.8-3.5-6.4-2.5-14.1,2.6-19.5M188.1,264.2c-6.1,5.8-7.4,14.4-3.5,21.4.9,1.6,1.3,3.6,1.9,5.4-4.6-4.3-8.9-8.2-13.4-12.4-2.8,9.6-.7,15.3,6.7,20,1.6,1,3.3,2,4.8,3.3.8.7,1.2,1.9,1.9,3.1-4.7-3.3-8.9-6.3-13.2-9.4-2.9,9.3-.9,14.7,6.9,19.4,1.5.9,3.2,1.7,4.5,2.9.9.8,1.3,2.1,2.3,3.9-5.1-3.6-9.4-6.6-13.7-9.6-2.9,9.4-.8,14.9,7.3,19.5,1.2.7,2.6,1.2,3.5,2.2,1.1,1.2,1.9,2.7,2.8,4.1-.2,0-.4.1-.6.2-4.3-3.2-8.7-6.4-13.2-9.7-2.9,9.7-.9,14.8,7.2,19.6,1.3.8,2.8,1.4,3.8,2.4,1.1,1.2,1.8,2.8,2.7,4.2-.3.1-.5.3-.8.4-4.3-3.2-8.6-6.3-12.9-9.5-3,9-1,14.4,6.8,19,1.2.7,2.6,1.3,3.5,2.2,1.4,1.5,2.5,3.3,3.7,4.9-.3.2-.7.5-1,.7-2-1.8-3.8-3.8-5.9-5.5-2.3-1.8-4.8-3.2-7.2-4.8-3,8.5-1.2,14.2,5.8,18.9,1.3.8,2.4,1.9,3.8,2.5,2.3,1.1,3.1,2.9,3,5.3-.4,10.4-.3,20.8-1.4,31.1-.9,8.7-3.4,17.2-5.1,25.8h-2c7.5-42.2-5.4-79.2-28.2-113.7.2,1.3.6,2.6,1.1,3.8,6.1,16.2,12.1,32.4,18.3,48.6,5,12.9,7.3,26.2,6,39.9-.9,9.2-2.3,18.4-3.6,27.6-1,6.6-2.3,13.2-3.5,19.7-1.8-6.7-3-13.2-3.8-19.8-1.8-15-3.5-30-4.8-45-.3-3.2.6-7,2.2-9.8,2.7-4.7,1.9-8.5-.6-13-2.4,2.9-4.6,5.5-6.8,8.1.4-2.3,1.5-4.1,2.8-5.7,4-5.1,4.1-8.4.1-14.1-2.2,2.7-4.3,5.3-6.5,7.9,1.4-3.4,4.4-5.9,5.2-9.1s-.5-7-.9-10.5h-1.3c-2.2,2.9-4.5,5.8-6.7,8.7-.3-.2-.6-.4-.9-.6,1-1.4,1.9-2.9,3-4.3,4.7-5.6,5-9,.9-15.1-.6.4-1.3.9-1.9,1.3,3.1-5,0-8.8-1.3-13.4-2.6,3.3-4.8,6.1-7,8.8-.4,0-.7-.2-1.1-.3,4.3-5.8,10.1-11.3,3.6-19.4-2.1,3.5-4,6.8-6,10.3-.3-3.3,0-6.9-1.1-9.7-1.2-2.8-4.1-4.9-6.6-7.8-3.2,7.8-1.7,13.5,3.4,18.6-3.4-1.3-6.8-2.6-10.3-4-.5,10.2,7.7,11.1,13.4,14.3-3.3-1-6.7-1.9-9.8-2.8-1,10.1,7.2,11.1,14.3,13.2-.3.3-.6.6-.8.8-3.2-.9-6.4-1.8-9.6-2.7-1.1,10.4,7.6,10.9,13.7,13.8-2.1,0-3.8-.7-5.5-1.2-1.6-.5-3.3-.9-5-1.4.3,7.2,2.4,9.9,9,11.6,1.7.5,3.3,1.4,4.9,2.1-.1.3-.3.6-.4.8-3.3-1-6.7-2.1-10.2-3.1,1.5,9.2,2.3,10,10.8,12.2,1.3.3,2.4,1.2,3.6,1.9-.1.2-.2.3-.4.5-3.3-1-6.5-2-9.8-3-.7,6.5,1.5,10.1,7.5,11.5,4.7,1,6.3,3.5,6.4,8,0,4.3.9,8.5,1.3,12.8.9,8.1,1.8,16.2,2.6,24.4-3.2-12.1-8.1-23.3-15.3-33.5-7.1-10.2-20.4-24.1-25.4-26.4,23.7,32.3,39.9,67.6,46.8,107.5,1.8-1.1,3.5-2.3,4.1-3.9,3.6-9.6,7.1-19.2,10.4-28.9,7.3-21.5,13.2-43.4,11.8-66.3-.5-8.2,2.2-12.7,9.3-16.1,6.5-3,8.7-11.1,5.5-18.2-4.7,3.5-9.3,6.9-13.7,10.2-.6-2.2.5-4.1,3-5.5,1.7-.9,3.3-2.1,4.9-3.1,6.9-4,9.1-11.1,5.7-19.2-4.7,3.9-9.3,7.7-13.7,11.3-1.3-4.4,3-5.8,6.2-7.7,9.3-5.7,11-9.5,8.1-20.8-5,4.3-9.8,8.5-14,12.1-.2-2.6,1.1-4.8,3.9-6.7,1.3-.8,2.6-1.6,3.9-2.4,7.1-4.3,9.3-11.1,6.2-18.9-2.5,1.6-5.2,3.1-7.6,5-2.3,1.9-4.2,4.2-6.2,6.3,0,0-.2-.2-.2-.5-.5-5.3,4.1-6.1,7.2-7.9,7.5-4.5,9.9-10.9,6.6-19.6-4.7,3.8-9.4,7.5-13.9,11.2.5-1.1.9-3.1,2.1-4.2,2.1-2,4.6-3.5,7-5.2,5.5-3.8,7.6-11.7,4.3-18.6-4.5,4.4-8.8,8.7-13.1,12.9.3-1.3.3-3.1,1-4.6,4.5-9.2,3.6-14.6-3.6-22h0v.5Z"/>
    </g>
    <g>
      <path class="cls-5" d="M316.4,485.8c-6.6-37.6-21.4-72-45.2-104.9,5.9,4.2,16.9,15.9,23.1,24.9,7,10,11.9,20.9,15.2,33.4,0,.2.3.4.5.4s0,0,0,0c.3,0,.4-.3.4-.6l-.7-6.6c-.6-5.9-1.3-11.9-1.9-17.8-.1-1.4-.3-2.7-.5-4.1-.4-2.9-.8-5.8-.8-8.7-.1-5-2.1-7.4-6.8-8.5-5.5-1.2-7.6-4.3-7.2-10.3l9.2,2.8h.1c.2,0,.3,0,.4-.2l.4-.5c0-.1.1-.3,0-.4,0-.1-.1-.3-.3-.3-.4-.2-.7-.4-1.1-.6-.8-.5-1.7-1-2.6-1.3-8.1-2.1-8.9-2.8-10.2-11l9.4,2.9h.1c.2,0,.4-.1.5-.3l.4-.8v-.4c0-.1-.1-.2-.3-.3-.5-.2-1-.5-1.5-.7-1.1-.5-2.3-1.1-3.5-1.4-6.2-1.7-8.2-4.1-8.6-10.5l.9.2c1.2.3,2.3.6,3.4.9l.5.2c1.5.5,3.1.9,5.1,1h0c.2,0,.4-.2.5-.4,0-.2,0-.5-.3-.6-1.3-.6-2.6-1.1-4-1.6-5.2-1.9-10.1-3.7-9.5-11.1l9,2.5h.1c.1,0,.3,0,.4-.2l.8-.8c.1-.1.2-.3.1-.5,0-.2-.2-.3-.3-.4-.8-.2-1.6-.5-2.5-.7-6.1-1.7-12-3.4-11.5-11.4l9.2,2.7h.1c.2,0,.4-.1.5-.3,0-.2,0-.5-.2-.6-1.2-.7-2.5-1.3-3.8-1.8-4.8-2.2-9.4-4.2-9.3-11.3l9.7,3.7h.2c.2,0,.3,0,.4-.2s.1-.5,0-.6c-5-4.9-6.1-10.5-3.5-17.3.6.7,1.3,1.3,1.9,2,1.7,1.7,3.3,3.3,4.1,5.1.8,1.9.9,4.1.9,6.4s0,2.1.2,3.1c0,.2.2.4.4.4h.1c.2,0,.3,0,.4-.2l5.7-9.6c4.9,6.6,1.2,11.3-2.6,16.3-.5.6-1,1.3-1.4,1.9,0,.1-.1.3,0,.5,0,.2.2.3.3.3l1.1.3h.1c.2,0,.3,0,.4-.2l6.4-8.1c.3.8.5,1.5.8,2.2,1.3,3.4,2.4,6.3.2,9.9-.1.2,0,.5,0,.6,0,0,.2.1.3.1h.3l1.5-1c3.6,5.6,3.4,8.7-1.2,14-.8.9-1.5,1.9-2.1,2.9-.3.5-.6.9-.9,1.4,0,.1-.1.2,0,.4,0,.1.1.3.2.3l.9.6h.3c.2,0,.3,0,.4-.2l6.3-8.1c.2.2.5.3.8.3s.1,0,.2,0c.1.7.3,1.5.4,2.2.4,2.4.9,4.9.4,7-.4,1.6-1.5,3.1-2.6,4.7-1,1.3-1.9,2.7-2.6,4.3,0,.2,0,.5.2.6h.3c.1,0,.3,0,.4-.2l6.1-7.4c3.5,5.1,3.3,8.2-.5,13-1.1,1.4-2.4,3.3-2.9,5.9,0,.2,0,.4.3.5h.2c.1,0,.3,0,.4-.2l6.4-7.5c2,3.9,2.8,7.4.3,11.7v.3c.2,3.5-.6,6.9-2.2,9.6v.3c1.3,14.8,3,29.8,4.8,45.1.8,6.8,2,13.3,3.8,19.9,0,.2.3.4.5.4s0,0,0,0c.2,0,.4-.2.5-.4.4-2,.7-4,1.1-6,.8-4.5,1.7-9.1,2.4-13.7,1.4-9.5,2.7-18.2,3.6-26.9v-.2c-4.8-12.3-6.6-25.8-5.3-39v-.2c-4.6-12-9.2-24.2-13.7-36-1.7-4.7-3.5-9.3-5.2-14,0-.3-.2-.5-.3-.8,24.7,38.2,33.1,73.5,26.4,110.8,0,.2,0,.3.1.4,0,.1.2.2.4.2h2c.2,0,.4-.2.5-.4.5-2.6,1.2-5.3,1.7-7.9,1.3-5.9,2.7-11.9,3.4-18,.8-7,.9-14.1,1.1-21,0-3.3.2-6.8.3-10.1.1-2.8-.9-4.7-3.3-5.8-.9-.4-1.7-1-2.5-1.6-.4-.3-.8-.6-1.2-.9-6.7-4.5-8.4-9.8-5.8-17.7.5.4,1.1.7,1.7,1.1,1.7,1.1,3.4,2.1,4.9,3.4,1.4,1.1,2.8,2.5,4.1,3.7.6.6,1.2,1.2,1.8,1.7,0,0,.2.1.3.1h.3l1-.7c.1,0,.2-.2.2-.3v-.4c-.4-.5-.7-1-1.1-1.5-.8-1.2-1.7-2.4-2.7-3.5-.7-.8-1.7-1.3-2.6-1.8-.3-.2-.7-.4-1-.5-7.4-4.4-9.3-9.4-6.7-17.8l12.4,9.1h.5l.8-.4c.1,0,.2-.2.3-.3s0-.3,0-.4c-.3-.4-.5-.9-.8-1.3-.6-1-1.2-2.1-2-3-.8-.8-1.8-1.4-2.8-1.9-.4-.2-.8-.4-1.1-.6-7.7-4.6-9.7-9.4-7.2-18.4l12.6,9.3h.3c0,0,.2,0,.3-.1,0,0,.1-.2.2-.3.1,0,.2,0,.3-.1.2-.2.2-.4,0-.6-.2-.3-.4-.7-.6-1-.6-1-1.2-2.1-2.1-2.9-.7-.8-1.7-1.3-2.7-1.8-.3-.2-.6-.3-.9-.5-7.7-4.4-9.8-9.6-7.3-18.3l13.1,9.2h.3c0,0,.2,0,.3-.1.2-.2.2-.4.1-.6-.3-.6-.6-1.1-.8-1.6-.5-1-.9-1.8-1.5-2.4-1-.9-2.3-1.6-3.5-2.3-.4-.2-.8-.4-1.1-.7-7.5-4.5-9.4-9.4-6.9-18.1l12.6,9h.3c0,0,.2,0,.3-.1.2-.2.2-.4.1-.6-.2-.4-.4-.8-.6-1.1-.4-.8-.8-1.6-1.4-2.1-1.3-1.1-2.8-2.1-4.2-3l-.6-.4c-7.1-4.4-9-9.9-6.7-18.6l12.8,11.9s.2.1.3.1h.3c.2-.1.3-.4.2-.6-.2-.6-.4-1.2-.5-1.7-.4-1.3-.8-2.6-1.4-3.7-3.7-6.8-2.5-14.9,3.1-20.5,6.7,7,7.5,12.1,3.1,21-.5,1.1-.7,2.4-.9,3.5,0,.4-.1.9-.2,1.3,0,.2,0,.4.3.5h.2c.1,0,.3,0,.4-.1l12.6-12.4c2.7,6.3.9,13.7-4.4,17.3-.5.3-1,.7-1.5,1-1.9,1.3-3.9,2.6-5.6,4.2-.9.9-1.4,2.2-1.8,3.2-.1.4-.3.8-.4,1.1-.1.2,0,.5.1.6,0,0,.2.1.3.1s.2,0,.3-.1l13.4-10.7c2.8,8,.6,14-6.6,18.4-.6.4-1.3.7-2,1-2.8,1.3-5.9,2.8-5.4,7.4,0,.3.2.6.3.7,0,.1.2.2.4.3h0c.1,0,.3,0,.4-.2.6-.6,1.2-1.3,1.8-2,1.4-1.5,2.8-3,4.3-4.3,1.6-1.3,3.4-2.4,5.2-3.5.6-.4,1.2-.7,1.8-1.1,2.8,7.5.3,14.1-6.8,18.1-1.2.8-2.4,1.5-3.6,2.2-4,2.6-4.1,2.9-3.8,6.9,0,.2.1.4.3.4h.2c.1,0,.2,0,.3-.1l13.4-11.5c2.6,10.4,1,14-8.1,19.5-.5.3-1.1.6-1.6.9-2.8,1.5-6,3.2-4.8,7.3,0,.2.2.3.3.3h.1c.1,0,.2,0,.3-.1l13.1-10.8c2.9,7.4.8,14.1-5.8,17.9-.7.4-1.5.9-2.2,1.4-.9.6-1.8,1.2-2.8,1.7-2.8,1.5-4,3.7-3.3,6,0,.2.2.3.3.3h.5l13.2-9.8c2.8,6.9.4,14.2-5.5,17-7.4,3.4-10.2,8.2-9.6,16.6,1.5,23.4-4.8,45.6-11.7,66.1-3.2,9.3-6.7,19-10.4,28.9-.5,1.3-1.9,2.4-3.3,3.3h-.2Z"/>
      <path class="cls-4" d="M341.3,256.7c6.2,6.6,6.8,11.6,2.7,20.1-.6,1.2-.8,2.5-.9,3.7,0,.4-.1.9-.2,1.2,0,.4.1.9.5,1.1.2,0,.3.1.5.1.3,0,.5,0,.7-.3l5.6-5.6,6.4-6.3c2.2,5.9.4,12.6-4.5,16-.5.3-1,.7-1.4,1-1.9,1.3-4,2.7-5.7,4.3-1,1-1.5,2.3-1.9,3.4-.1.4-.3.8-.4,1-.2.4,0,.9.3,1.2.2.1.4.2.6.2s.4,0,.6-.2l12.8-10.3c2.4,7.5.3,12.9-6.6,17.1-.6.4-1.3.7-2,1-2.8,1.3-6.2,3-5.7,7.9,0,.4.3.8.4.9.2.2.4.4.7.5h.2c.3,0,.5-.1.7-.3.6-.6,1.2-1.3,1.8-2,1.3-1.5,2.7-3,4.3-4.2,1.6-1.3,3.4-2.4,5.1-3.5.4-.3.9-.5,1.3-.8,2.4,7.1,0,13.1-6.8,16.9h0c-1.1.8-2.3,1.5-3.5,2.2h0c-4.1,2.7-4.3,3.2-4,7.4,0,.4.3.7.6.9h.4c.2,0,.5,0,.7-.2l12.8-11c2.2,9.5.5,12.9-8,18.1-.5.3-1,.6-1.6.9-2.8,1.5-6.4,3.4-5,7.9,0,.3.4.6.7.7h.3c.2,0,.5,0,.6-.2l3.2-2.6,9.4-7.7c2.4,6.9.3,13.1-5.8,16.6-.8.4-1.5.9-2.2,1.4-.9.6-1.8,1.2-2.7,1.7-3,1.6-4.3,4-3.5,6.6,0,.3.3.6.6.7h.3c.2,0,.4,0,.6-.2l6.5-4.8,6.2-4.6c2.3,6.4,0,13.2-5.5,15.7-7.6,3.5-10.5,8.5-9.9,17.1,1.5,23.3-4.7,45.5-11.7,65.9-3.2,9.3-6.7,19-10.4,28.9-.4,1-1.4,1.8-2.5,2.6-6.5-36.3-20.6-69.6-43.1-101.5,6.1,5.2,14.9,14.9,20.2,22.6,6.9,10,11.9,20.8,15.1,33.2.1.5.5.8,1,.8s.1,0,.2,0c.5,0,.9-.6.8-1.1l-.8-7.2c-.6-5.7-1.2-11.5-1.9-17.2-.1-1.4-.3-2.7-.5-4.1-.4-2.8-.8-5.8-.8-8.6-.1-5.2-2.3-7.8-7.2-8.9-5-1.1-7.1-3.8-6.8-9.2l2.8.8,5.8,1.7h.3c.3,0,.6-.2.8-.4l.2-.3.2-.3c.2-.2.2-.5.2-.8s-.3-.5-.5-.7c-.4-.2-.7-.4-1.1-.6-.9-.5-1.7-1.1-2.8-1.3-7.6-2-8.5-2.6-9.7-9.8l6.5,2,2.1.6h.3c.4,0,.8-.2.9-.6l.2-.4.2-.4c.1-.2.1-.5,0-.8s-.3-.5-.5-.6c-.5-.2-1-.5-1.5-.7-1.1-.5-2.3-1.1-3.6-1.4-5.8-1.6-7.7-3.7-8.2-9.3h.2c1.2.3,2.3.6,3.4.9l.5.2c1.6.5,3.2,1,5.2,1h0c.5,0,.9-.3,1-.8s-.1-1-.5-1.2c-1.3-.6-2.7-1.1-4-1.6-5-1.9-9.4-3.5-9.2-10l8.4,2.4h.3c.3,0,.5-.1.7-.3l.4-.4.4-.4c.2-.3.3-.6.3-1s-.3-.6-.7-.7c-.8-.3-1.6-.5-2.5-.7-6-1.7-11.3-3.2-11.1-10.2l6.5,1.9,2.1.6h.3c.4,0,.8-.2.9-.6.2-.5,0-1-.4-1.3-1.2-.7-2.6-1.3-3.9-1.9-4.7-2.1-8.8-3.9-9-10.1l9,3.5h.4c.3,0,.7-.2.8-.5.3-.4.2-.9-.1-1.3-4.7-4.7-5.8-9.7-3.7-16l1.4,1.4c1.7,1.7,3.2,3.2,3.9,5,.8,1.8.8,3.9.9,6.2,0,1,0,2.1.2,3.2,0,.4.4.8.8.9h.2c.4,0,.7-.2.9-.5l5.3-8.9c4,5.9.7,10.2-3.1,15.1-.5.6-1,1.3-1.4,1.9-.2.3-.3.6-.1.9.1.3.4.6.7.6h.5c0,.1.5.3.5.3h.3c.3,0,.6-.1.8-.4l2.6-3.3,3.2-4.1c.2.5.3.9.5,1.4,1.3,3.2,2.4,6,.3,9.4-.2.4-.2.9.2,1.3.2.2.4.3.7.3s.4,0,.6-.2l1.1-.7h0c3.2,5.1,2.9,8-1.4,13-.8,1-1.5,2-2.2,3-.3.5-.6.9-.9,1.3-.2.2-.2.5-.2.8s.2.5.4.7l.9.6c.2.1.4.2.6.2.3,0,.6-.1.8-.4l6-7.8c.1,0,.2,0,.4.1.1.6.2,1.2.3,1.8.5,2.5.9,4.8.4,6.8-.4,1.5-1.4,3-2.5,4.6-1,1.4-2,2.8-2.7,4.4-.2.5,0,1,.4,1.3.2,0,.3.1.5.1.3,0,.6-.1.8-.4l5.6-6.9c2.9,4.6,2.7,7.4-.8,11.8-1.2,1.4-2.5,3.5-3,6.2,0,.4.2.9.6,1.1h.4c.3,0,.6-.1.8-.4l.6-.7,5.2-6.2c1.7,3.5,2.2,6.7,0,10.6,0,.2-.1.4-.1.6.2,3.4-.6,6.7-2.2,9.3-.1.2-.2.4-.1.6,1.3,14.9,3,29.8,4.8,45.1.8,6.9,2,13.4,3.8,19.9.1.4.5.8,1,.8s0,0,0,0c.5,0,.9-.4,1-.8.4-2,.7-4,1.1-6.1.8-4.5,1.7-9.1,2.4-13.7,1.4-9.6,2.7-18.2,3.6-26.9v-.5c-4.8-12.2-6.6-25.6-5.3-38.8v-.5c-4.6-12-9.2-24.2-13.6-36-1.3-3.4-2.6-6.8-3.8-10.2,9.9,16.1,16.8,31.5,21,46.9,5.4,19.8,6.3,39.2,2.7,59.3,0,.3,0,.6.2.8.2.2.5.3.8.3s0,0,0,0h2c.5,0,.9-.4.9-.9.5-2.6,1.2-5.3,1.7-7.9,1.3-5.9,2.7-11.9,3.4-18,.8-7,.9-14.1,1.1-21.1,0-3.3.2-6.8.3-10.1.1-3.1-1-5.1-3.6-6.3-.8-.4-1.6-1-2.4-1.6-.4-.3-.8-.6-1.3-.9-6.3-4.2-8.1-9.2-5.8-16.5.4.2.7.5,1.1.7,1.6,1,3.4,2.1,4.9,3.3,1.4,1.1,2.8,2.4,4.1,3.7s1.2,1.2,1.8,1.7c.2.2.4.3.7.3s.4,0,.6-.2l.5-.3.5-.3c.2-.2.4-.4.4-.7s0-.6-.2-.8c-.4-.5-.7-1-1.1-1.5-.8-1.2-1.7-2.4-2.7-3.5-.8-.8-1.8-1.4-2.7-1.9-.3-.2-.7-.3-1-.5-7-4.1-8.9-8.8-6.7-16.5l10,7.4,1.8,1.3c.2.1.4.2.6.2s.3,0,.5-.1l.8-.4c.2-.1.4-.4.5-.6,0-.3,0-.6-.1-.8-.3-.4-.5-.8-.7-1.3-.6-1.1-1.2-2.2-2.1-3.1s-1.9-1.4-3-2c-.4-.2-.7-.4-1.1-.6-7.4-4.3-9.3-8.8-7.1-17.1l12,8.8c.2.1.4.2.6.2s.5,0,.7-.3c0,0,.1-.2.2-.3,0,0,.2-.1.3-.2.4-.3.4-.9.2-1.3-.2-.3-.4-.7-.6-1-.6-1-1.3-2.1-2.1-3-.8-.8-1.8-1.4-2.8-1.9-.3-.2-.6-.3-.9-.5-7.2-4.1-9.3-9-7.2-17l3.5,2.5,9,6.3c.2.1.4.2.6.2s.5,0,.7-.3c.4-.3.4-.8.2-1.2-.3-.6-.6-1.1-.8-1.6-.5-1-.9-1.9-1.7-2.6-1.1-1-2.3-1.7-3.6-2.4-.4-.2-.8-.4-1.1-.7-7-4.2-9-8.9-6.8-16.8l4,2.8,8.1,5.7c.2.1.4.2.6.2s.5,0,.7-.3c.4-.3.4-.8.2-1.3-.2-.4-.4-.7-.6-1.1-.4-.9-.8-1.7-1.5-2.3-1.3-1.2-2.8-2.1-4.3-3l-.6-.4c-6.7-4.2-8.7-9.1-6.7-17.2l6.6,6.1,5.6,5.2c.2.2.4.3.7.3s.4,0,.6-.2c.4-.3.6-.7.4-1.2-.2-.6-.4-1.1-.5-1.7-.4-1.3-.8-2.6-1.4-3.8-3.5-6.4-2.5-14.1,2.6-19.5M341.3,255.2c-6.1,5.8-7.4,14.4-3.5,21.4.9,1.6,1.3,3.6,1.9,5.4-4.6-4.3-8.9-8.2-13.4-12.4-2.8,9.6-.7,15.3,6.7,20,1.6,1,3.3,2,4.8,3.3.8.7,1.2,1.9,1.9,3.1-4.7-3.3-8.9-6.3-13.2-9.4-2.9,9.3-.9,14.7,6.9,19.4,1.5.9,3.2,1.7,4.5,2.9.9.8,1.3,2.1,2.3,3.9-5.1-3.6-9.4-6.6-13.7-9.6-2.9,9.4-.8,14.9,7.3,19.5,1.2.7,2.6,1.2,3.5,2.2,1.1,1.1,1.8,2.6,2.6,3.9h-.2c-.2,0-.4.3-.3.5-4.3-3.2-8.7-6.4-13.2-9.7-2.9,9.7-.9,14.8,7.2,19.6,1.3.8,2.8,1.4,3.8,2.4,1.1,1.2,1.8,2.8,2.7,4.2-.3.1-.5.3-.8.4-4.3-3.2-8.6-6.3-12.9-9.5-3,9-1,14.4,6.8,19,1.2.7,2.6,1.3,3.5,2.2,1.4,1.5,2.5,3.3,3.7,4.9-.3.2-.7.5-1,.7-2-1.8-3.8-3.8-5.9-5.5-2.3-1.8-4.8-3.2-7.2-4.8-3,8.5-1.2,14.2,5.8,18.9,1.3.8,2.4,1.9,3.8,2.5,2.3,1.1,3.1,2.9,3,5.3-.4,10.4-.3,20.8-1.4,31.1-.9,8.7-3.4,17.2-5.1,25.8h-2c7.5-42.2-5.4-79.2-28.2-113.6.2,1.3.6,2.6,1.1,3.8,6.3,16.7,12.5,33.4,18.9,50-1.3,13.3.5,26.8,5.3,39.3-.9,9-2.2,17.9-3.6,26.9-1,6.6-2.3,13.2-3.5,19.7-1.8-6.7-3-13.2-3.8-19.8-1.8-15-3.5-30-4.8-45.1,1.8-3,2.5-6.4,2.3-9.9,2.6-4.6,1.8-8.4-.7-12.9-2.4,2.9-4.6,5.5-6.8,8.1.4-2.3,1.5-4.1,2.8-5.7,4-5.1,4.1-8.4.1-14.1-2.2,2.7-4.3,5.3-6.5,7.9,1.4-3.4,4.4-5.9,5.2-9.1.8-3.1-.4-6.7-.8-10.1-.2.2-.4.3-.6.3-.3,0-.7-.2-.7-.7l-6.7,8.7c-.3-.2-.6-.4-.9-.6,1-1.4,1.9-2.9,3-4.3,4.7-5.6,5-9,.9-15.1-.6.4-1.3.9-1.9,1.3,3.1-5,0-8.8-1.3-13.4-2.6,3.3-4.8,6.1-7,8.8-.4,0-.7-.2-1.1-.3,4.3-5.8,10.1-11.3,3.6-19.4-2.1,3.5-4,6.8-6,10.3-.3-3.3,0-6.9-1.1-9.7-1.2-2.8-4.1-4.9-6.6-7.8-3.2,7.8-1.7,13.5,3.4,18.6l-10.3-4c-.5,10.2,7.7,11.1,13.4,14.3-3.3-1-6.7-1.9-9.8-2.8-1,10.1,7.2,11.1,14.3,13.2l-.8.8-9.6-2.7c-1.1,10.4,7.6,10.9,13.7,13.8-2.1,0-3.8-.7-5.5-1.2-1.6-.5-3.3-.9-5-1.4.3,7.2,2.4,9.9,9,11.6,1.7.5,3.3,1.4,4.9,2.1-.1.3-.3.6-.4.8-3.3-1-6.7-2.1-10.2-3.1,1.5,9.2,2.3,10,10.8,12.2,1.3.3,2.4,1.2,3.6,1.9-.1.2-.2.3-.4.5-3.3-1-6.5-2-9.8-3-.7,6.5,1.5,10.1,7.5,11.5,4.7,1,6.3,3.5,6.4,8,0,4.3.9,8.5,1.3,12.8.9,8.1,1.8,16.2,2.6,24.4-3.2-12.1-8.1-23.3-15.3-33.5-7.1-10.2-20.4-24.1-25.4-26.4,23.7,32.3,39.9,67.6,46.8,107.5,1.8-1.1,3.5-2.3,4.1-3.9,3.6-9.6,7.1-19.2,10.4-28.9,7.3-21.5,13.2-43.4,11.8-66.3-.5-8.2,2.2-12.7,9.3-16.1,6.5-3,8.7-11.1,5.5-18.2-4.7,3.5-9.3,6.9-13.7,10.2-.6-2.2.5-4.1,3-5.5,1.7-.9,3.3-2.1,4.9-3.1,6.9-4,9.1-11.1,5.7-19.2-4.7,3.9-9.3,7.7-13.7,11.3-1.3-4.4,3-5.8,6.2-7.7,9.3-5.7,11-9.5,8.1-20.8-5,4.3-9.8,8.5-14,12.1-.3-3.8-.3-3.9,3.5-6.5,1.2-.7,2.5-1.4,3.6-2.3,7.6-4.2,10-11.3,6.8-19.3-2.5,1.6-5.2,3.1-7.6,5-2.3,1.9-4.2,4.2-6.2,6.3,0,0-.2-.2-.2-.5-.5-5.3,4.1-6.1,7.2-7.9,7.5-4.5,9.9-10.9,6.6-19.6-4.7,3.8-9.4,7.5-13.9,11.2.5-1.1.9-3.1,2.1-4.2,2.1-2,4.6-3.5,7-5.2,5.5-3.8,7.6-11.7,4.3-18.6-4.5,4.4-8.8,8.7-13.1,12.9.3-1.3.3-3.1,1-4.6,4.5-9.2,3.6-14.6-3.6-22h0l.2.4Z"/>
    </g>
    <g>
      <path class="cls-6" d="M248.6,479.3c-6.6-37.6-21.4-72-45.2-104.9,5.9,4.2,16.8,15.9,23.1,24.9,7,10,11.9,20.9,15.2,33.4,0,.2.3.4.5.4s0,0,0,0c.3,0,.4-.3.4-.6l-.7-6.6c-.6-5.9-1.3-11.8-1.9-17.8-.1-1.4-.3-2.7-.5-4.1-.4-2.9-.8-5.8-.8-8.7-.1-5-2.1-7.4-6.8-8.5-5.5-1.2-7.6-4.3-7.2-10.3l9.2,2.8h.1c.2,0,.3,0,.4-.2l.4-.5c0-.1.1-.3,0-.4,0-.1-.1-.3-.3-.3-.4-.2-.7-.4-1.1-.6-.8-.5-1.7-1-2.6-1.3-8.1-2.1-8.9-2.8-10.2-11l9.4,2.9h.1c.2,0,.4-.1.5-.3l.4-.8v-.4c0-.1-.1-.2-.3-.3-.5-.2-1-.5-1.5-.7-1.1-.5-2.3-1.1-3.5-1.4-6.2-1.7-8.2-4.1-8.6-10.5l.9.2c1.2.3,2.3.6,3.4.9l.5.2c1.5.5,3.1.9,5.1,1h0c.2,0,.4-.2.5-.4,0-.2,0-.5-.3-.6-1.3-.6-2.6-1.1-4-1.6-5.2-1.9-10.1-3.7-9.5-11.1l9,2.5h.1c.1,0,.3,0,.4-.2l.8-.8c.1-.1.2-.3.1-.5,0-.2-.2-.3-.3-.4-.8-.2-1.6-.5-2.5-.7-6.1-1.7-12-3.4-11.5-11.4l9.2,2.7h.1c.2,0,.4-.1.5-.3,0-.2,0-.5-.2-.6-1.2-.7-2.5-1.3-3.8-1.9-4.8-2.2-9.4-4.2-9.3-11.3l9.7,3.7h.2c.2,0,.3,0,.4-.2.1-.2.1-.5,0-.6-5-4.9-6.1-10.5-3.5-17.3.6.7,1.3,1.3,1.9,2,1.7,1.7,3.3,3.3,4.1,5.1.8,1.9.9,4.1.9,6.4s0,2.1.2,3.1c0,.2.2.4.4.4h.1c.2,0,.3,0,.4-.2l5.7-9.6c4.9,6.6,1.2,11.3-2.6,16.3-.5.6-1,1.3-1.4,1.9,0,.1-.1.3,0,.5,0,.2.2.3.3.3l1.1.3h.1c.2,0,.3,0,.4-.2l6.4-8.1c.3.8.5,1.5.8,2.2,1.3,3.4,2.4,6.3.2,9.9-.1.2,0,.5,0,.6,0,0,.2.1.4.1h.3l1.5-1c3.6,5.6,3.4,8.7-1.1,14-.8.9-1.5,1.9-2.1,2.9s-.6.9-.9,1.4c0,.1-.1.2,0,.4,0,.1,0,.3.2.3l.9.6h.3c.2,0,.3,0,.4-.2l6.3-8.1c.2.2.5.3.8.3s.1,0,.2,0c.1.7.3,1.5.4,2.2.4,2.4.9,4.9.4,7-.4,1.6-1.5,3.1-2.6,4.7-1,1.3-1.9,2.7-2.6,4.3,0,.2,0,.5.2.6h.3c.1,0,.3,0,.4-.2l6.1-7.4c3.5,5.1,3.3,8.2-.5,13-1.1,1.4-2.4,3.3-2.9,5.9,0,.2,0,.4.3.5h.2c.1,0,.3,0,.4-.2l6.4-7.5c2,3.9,2.8,7.4.3,11.7v.3c.2,3.5-.6,6.9-2.2,9.6v.3c1.3,14.9,3,29.8,4.8,45.1.8,6.8,2,13.3,3.8,19.9,0,.2.3.4.5.4s0,0,0,0c.2,0,.4-.2.5-.4.4-2,.8-4.1,1.1-6.1.8-4.5,1.7-9.1,2.4-13.7,1.4-9.5,2.7-18.2,3.6-26.9v-.2c-4.8-12.3-6.6-25.8-5.3-39v-.2c-4.6-12-9.2-24.2-13.7-36.1-1.7-4.6-3.5-9.3-5.2-13.9-.1-.3-.2-.5-.3-.8,24.7,38.2,33.1,73.5,26.4,110.8,0,.2,0,.3.1.4,0,.1.2.2.4.2h2c.2,0,.4-.2.5-.4.5-2.6,1.2-5.3,1.7-7.9,1.3-5.9,2.7-11.9,3.4-18,.8-7,.9-14.1,1.1-21,0-3.3.2-6.8.3-10.1.1-2.8-.9-4.7-3.3-5.8-.9-.4-1.6-1-2.5-1.6-.4-.3-.8-.6-1.3-.9-6.7-4.5-8.4-9.8-5.8-17.7.6.4,1.1.7,1.7,1.1,1.7,1.1,3.4,2.1,4.9,3.4,1.4,1.1,2.8,2.5,4.1,3.7.6.6,1.2,1.2,1.8,1.7,0,0,.2.1.3.1h.3l1-.7c.1,0,.2-.2.2-.3v-.4c-.4-.5-.7-1-1.1-1.5-.8-1.2-1.7-2.4-2.7-3.5-.7-.8-1.7-1.3-2.6-1.8-.3-.2-.7-.4-1-.5-7.4-4.4-9.3-9.4-6.7-17.8l12.4,9.1h.5l.8-.4c.1,0,.2-.2.3-.3v-.4c-.3-.4-.5-.9-.8-1.3-.6-1-1.2-2.1-2-3-.8-.8-1.8-1.4-2.8-1.9-.4-.2-.8-.4-1.1-.6-7.7-4.6-9.7-9.4-7.2-18.4l12.6,9.3h.3c0,0,.2,0,.3-.1,0,0,.1-.2.2-.3.1,0,.2,0,.3-.1.2-.2.2-.4,0-.6-.2-.3-.4-.7-.6-1.1-.6-1-1.2-2.1-2.1-2.9-.7-.8-1.7-1.3-2.7-1.8-.3-.2-.6-.3-.9-.5-7.7-4.4-9.8-9.6-7.3-18.3l13.1,9.2h.3c0,0,.2,0,.3-.1.2-.2.2-.4.1-.6-.3-.6-.6-1.1-.8-1.6-.5-1-.9-1.8-1.5-2.4-1-.9-2.3-1.6-3.5-2.3-.4-.2-.8-.4-1.1-.7-7.5-4.5-9.4-9.4-6.9-18.1l12.6,9h.3c0,0,.2,0,.3-.1.2-.2.2-.4.1-.6-.2-.4-.4-.8-.6-1.1-.4-.8-.8-1.6-1.4-2.1-1.3-1.1-2.8-2.1-4.2-3l-.6-.4c-7.1-4.4-9-9.9-6.7-18.6l12.8,11.9s.2.1.3.1h.3c.2-.1.3-.4.2-.6-.2-.6-.4-1.2-.5-1.7-.4-1.3-.8-2.6-1.4-3.7-3.7-6.8-2.5-14.9,3.1-20.5,6.7,7,7.5,12.1,3.1,21-.5,1.1-.7,2.4-.9,3.5,0,.4-.1.9-.2,1.2,0,.2,0,.4.3.5h.2c.1,0,.3,0,.4-.1l12.6-12.4c2.7,6.3.9,13.7-4.4,17.3-.5.3-1,.7-1.4,1-1.9,1.3-3.9,2.6-5.6,4.2-.9.9-1.4,2.2-1.8,3.2-.1.4-.3.8-.4,1.1-.1.2,0,.5.1.6,0,0,.2.1.3.1s.2,0,.3-.1l13.4-10.7c2.8,8,.6,14-6.6,18.4-.6.4-1.3.7-2,1-2.8,1.3-5.9,2.9-5.4,7.4,0,.3.2.6.3.7,0,.1.2.2.4.3h0c.1,0,.3,0,.4-.2.6-.6,1.2-1.3,1.8-2,1.4-1.5,2.8-3,4.3-4.3,1.6-1.3,3.4-2.4,5.2-3.5.6-.4,1.2-.7,1.8-1.1,2.8,7.5.3,14.1-6.8,18.1-1.2.8-2.4,1.5-3.5,2.2h0c-3.9,2.7-4.1,2.9-3.8,7,0,.2.1.4.3.4h.2c.1,0,.2,0,.3-.1l13.4-11.5c2.6,10.4,1,14-8.1,19.5-.5.3-1.1.6-1.6.9-2.8,1.5-6,3.2-4.8,7.3,0,.2.2.3.3.3h.1c.1,0,.2,0,.3-.1l13.1-10.8c2.9,7.4.8,14.1-5.8,17.9-.7.4-1.5.9-2.2,1.4-.9.6-1.8,1.2-2.8,1.7-2.8,1.5-4,3.7-3.3,6,0,.2.2.3.3.3h.5l13.2-9.8c2.8,6.9.4,14.2-5.5,17-7.4,3.4-10.2,8.2-9.6,16.6,1.5,23.4-4.8,45.6-11.7,66.1-3.2,9.3-6.7,19.1-10.4,28.9-.5,1.2-1.7,2.2-3.3,3.3l-.5.4Z"/>
      <path class="cls-4" d="M273.5,250.2c6.2,6.6,6.8,11.6,2.7,20.1-.6,1.2-.8,2.5-.9,3.7,0,.4-.1.9-.2,1.2,0,.4.1.9.5,1.1.2,0,.3.1.5.1.3,0,.5,0,.7-.3l12.1-11.9c2.2,5.9.4,12.6-4.5,16-.5.3-1,.7-1.4,1-1.9,1.3-4,2.7-5.7,4.3-1,1-1.5,2.3-1.9,3.4-.1.4-.3.8-.4,1-.2.4,0,.9.3,1.2.2.1.4.2.6.2s.4,0,.6-.2l9.7-7.8,3.1-2.5c2.4,7.5.3,12.9-6.6,17.1-.6.4-1.3.7-2,1-2.8,1.3-6.2,3-5.7,7.9,0,.4.3.8.4.9.2.2.4.4.7.5h.2c.3,0,.5-.1.7-.3.6-.6,1.2-1.3,1.8-2,1.3-1.5,2.7-3,4.3-4.2,1.6-1.3,3.4-2.4,5.1-3.5.4-.3.9-.5,1.3-.8,2.4,7.1,0,13.1-6.8,16.9h0c-1.1.8-2.3,1.5-3.5,2.2h0c-4.1,2.7-4.3,3.2-4,7.4,0,.4.3.7.6.9h.4c.2,0,.5,0,.7-.2l12.8-11c2.2,9.5.5,12.9-8,18.1-.5.3-1,.6-1.6.9-2.8,1.5-6.4,3.4-5,7.9,0,.3.4.6.7.7h.3c.2,0,.5,0,.6-.2l5.5-4.6,7.1-5.8c2.4,6.9.3,13.1-5.8,16.6-.8.4-1.5.9-2.2,1.4-.9.6-1.8,1.2-2.7,1.7-3,1.6-4.3,4-3.5,6.6,0,.3.3.6.6.7h.3c.2,0,.4,0,.6-.2l6.1-4.5,6.5-4.9c2.3,6.4,0,13.2-5.5,15.7-7.6,3.5-10.5,8.5-9.9,17.1,1.5,23.3-4.7,45.5-11.7,65.9-3.2,9.3-6.7,19-10.4,28.9-.4,1-1.4,1.8-2.5,2.6-6.5-36.3-20.6-69.6-43.1-101.5,6.1,5.2,14.9,14.9,20.2,22.6,6.9,10,11.9,20.8,15.1,33.2.1.5.5.8,1,.8s.1,0,.2,0c.5,0,.9-.6.8-1.1l-.8-7.1c-.6-5.7-1.2-11.5-1.9-17.2-.1-1.4-.3-2.7-.5-4.1-.4-2.8-.8-5.8-.8-8.6-.1-5.2-2.3-7.8-7.2-8.9-5-1.1-7.1-3.8-6.8-9.2l1.9.6,6.7,2h.3c.3,0,.6-.2.8-.4l.2-.3.2-.3c.2-.2.2-.5.2-.8s-.3-.5-.5-.7c-.4-.2-.7-.4-1.1-.6-.9-.5-1.7-1.1-2.8-1.3-7.6-2-8.5-2.6-9.7-9.8l6.5,2,2.1.6h.3c.4,0,.8-.2.9-.6l.2-.4.2-.4c.1-.2.1-.5,0-.8s-.3-.5-.5-.6c-.5-.2-1-.5-1.5-.7-1.1-.5-2.3-1.1-3.6-1.4-5.8-1.6-7.7-3.7-8.2-9.3h.2c1.2.3,2.3.6,3.4.9l.5.2c1.6.5,3.2,1,5.2,1h0c.5,0,.9-.3,1-.8s-.1-1-.5-1.2c-1.3-.6-2.7-1.1-4-1.6-5-1.9-9.4-3.5-9.2-10l8.4,2.4h.3c.3,0,.5-.1.7-.3l.8-.8c.2-.3.3-.6.3-1s-.3-.6-.7-.7c-.8-.3-1.6-.5-2.5-.7-6-1.7-11.3-3.2-11.1-10.2l5.9,1.7,2.7.8h.3c.4,0,.8-.2.9-.6.2-.5,0-1-.4-1.3-1.2-.7-2.6-1.3-3.9-1.9-4.7-2.1-8.8-3.9-9-10.1l9,3.5h.4c.3,0,.7-.2.8-.5.3-.4.2-.9-.1-1.3-4.7-4.7-5.8-9.7-3.7-16l1.4,1.4c1.7,1.7,3.2,3.2,3.9,5,.8,1.8.8,3.9.9,6.2,0,1,0,2.1.2,3.2,0,.4.4.8.8.9h.2c.4,0,.7-.2.9-.5l5.3-8.9c4,5.9.7,10.2-3.1,15.1-.5.6-1,1.3-1.4,1.9-.2.3-.3.6-.1.9.1.3.4.6.7.6l.9.2h.2s.2.1.3.1c.3,0,.6-.1.8-.4l2.6-3.3,3.2-4.1c.2.5.3.9.5,1.4,1.3,3.2,2.4,6,.3,9.4-.2.4-.2.9.2,1.3.2.2.4.3.7.3s.4,0,.6-.2l1.1-.7h0c3.2,5.1,2.9,8-1.4,13-.8,1-1.5,2-2.2,3-.3.5-.6.9-.9,1.3-.2.2-.2.5-.2.8s.2.5.4.7l.3.2.6.4c.2.1.4.2.6.2.3,0,.6-.1.8-.4l6-7.8c.1,0,.2,0,.4.1.1.6.2,1.2.3,1.8.5,2.5.9,4.8.4,6.8-.4,1.5-1.4,3-2.5,4.6-1,1.4-2,2.8-2.7,4.4-.2.5,0,1,.4,1.3.2,0,.3.1.5.1.3,0,.6-.1.8-.4l5.6-6.9c2.9,4.6,2.7,7.4-.8,11.8-1.2,1.4-2.5,3.5-3,6.2,0,.4.2.9.6,1.1h.4c.3,0,.6-.1.8-.4l3.8-4.5,2-2.4c1.7,3.5,2.2,6.7,0,10.6,0,.2-.1.4-.1.6.2,3.4-.6,6.7-2.2,9.3-.1.2-.2.4-.1.6,1.3,14.9,3,29.8,4.8,45.1.8,6.9,2,13.4,3.8,19.9.1.4.5.8,1,.8s0,0,0,0c.5,0,.9-.4,1-.8.4-2,.7-4,1.1-6.1.8-4.5,1.7-9.1,2.4-13.7,1.4-9.6,2.7-18.2,3.6-26.9v-.5c-4.8-12.2-6.6-25.6-5.3-38.8v-.5c-4.6-12-9.2-24.2-13.6-36-1.3-3.4-2.6-6.8-3.8-10.2,9.9,16.1,16.8,31.5,21,46.9,5.4,19.8,6.3,39.2,2.7,59.3,0,.3,0,.6.2.8.2.2.5.3.8.3s0,0,0,0h2c.5,0,.9-.4.9-.9.5-2.6,1.2-5.3,1.7-7.9,1.3-5.9,2.7-11.9,3.4-18,.8-7,.9-14.1,1.1-21.1,0-3.3.2-6.8.3-10.1.1-3.1-1-5.1-3.6-6.3-.8-.4-1.6-1-2.4-1.6-.4-.3-.8-.6-1.3-.9-6.3-4.2-8.1-9.2-5.8-16.5.4.2.7.5,1.1.7,1.6,1,3.4,2.1,4.9,3.3,1.4,1.1,2.8,2.4,4.1,3.7s1.2,1.2,1.8,1.7c.2.2.4.3.7.3s.4,0,.6-.2l.5-.3.5-.3c.2-.2.4-.4.4-.7s0-.6-.2-.8c-.4-.5-.7-1-1.1-1.5-.8-1.2-1.7-2.4-2.7-3.5-.8-.8-1.8-1.4-2.7-1.9-.3-.2-.7-.3-1-.5-7-4.1-8.9-8.8-6.7-16.5l5.1,3.8,6.7,4.9c.2.1.4.2.6.2s.3,0,.5-.1l.8-.4c.3-.1.4-.4.5-.6,0-.3,0-.6-.1-.8-.3-.4-.5-.8-.7-1.3-.6-1.1-1.2-2.2-2.1-3.1s-1.9-1.4-3-2c-.4-.2-.7-.4-1.1-.6-7.4-4.3-9.3-8.8-7.1-17.1l12,8.9c.2.1.4.2.6.2s.5,0,.7-.3c0,0,.1-.2.2-.3,0,0,.2-.1.3-.2.4-.3.4-.9.2-1.3-.2-.3-.4-.7-.6-1-.6-1-1.3-2.1-2.1-3-.8-.8-1.8-1.4-2.8-1.9-.3-.2-.6-.3-.9-.5-7.2-4.1-9.3-9-7.2-17l12.5,8.8c.2.1.4.2.6.2s.5,0,.7-.3c.4-.3.4-.8.2-1.2-.3-.6-.6-1.1-.8-1.6-.5-1-.9-1.9-1.7-2.6-1.1-1-2.3-1.7-3.6-2.4-.4-.2-.8-.4-1.1-.7-7-4.2-9-8.9-6.8-16.8l12,8.6c.2.1.4.2.6.2s.5,0,.7-.3c.4-.3.4-.8.2-1.3-.2-.4-.4-.7-.6-1.1-.4-.9-.8-1.7-1.5-2.3-1.3-1.2-2.8-2.1-4.3-3l-.6-.4c-6.7-4.2-8.7-9.1-6.7-17.2l6.6,6.1,5.6,5.2c.2.2.4.3.7.3s.4,0,.6-.2c.4-.3.6-.7.4-1.2-.2-.6-.4-1.1-.5-1.7-.4-1.3-.8-2.6-1.4-3.8-3.5-6.4-2.5-14.1,2.6-19.5M273.5,248.8c-6.1,5.8-7.4,14.4-3.5,21.4.9,1.6,1.3,3.6,1.9,5.4-4.6-4.3-8.9-8.2-13.4-12.4-2.8,9.6-.7,15.3,6.7,20,1.6,1,3.3,2,4.8,3.3.8.7,1.2,1.9,1.9,3.1-4.7-3.3-8.9-6.3-13.2-9.4-2.9,9.3-.9,14.7,6.9,19.4,1.5.9,3.2,1.7,4.5,2.9.9.8,1.3,2.1,2.3,3.9-5.1-3.6-9.4-6.6-13.7-9.6-2.9,9.4-.8,14.9,7.3,19.5,1.2.7,2.6,1.2,3.5,2.2,1.1,1.1,1.8,2.6,2.6,3.9h-.2c-.2,0-.4.3-.3.5-4.3-3.2-8.7-6.4-13.2-9.7-2.9,9.7-.9,14.8,7.2,19.6,1.3.8,2.8,1.4,3.8,2.4,1.1,1.2,1.8,2.8,2.7,4.2-.3.1-.5.3-.8.4-4.3-3.2-8.6-6.3-12.9-9.5-3,9-1,14.4,6.8,19,1.2.7,2.6,1.3,3.5,2.2,1.4,1.5,2.5,3.3,3.7,4.9-.3.2-.7.5-1,.7-2-1.8-3.8-3.8-5.9-5.5-2.3-1.8-4.8-3.2-7.2-4.8-3,8.5-1.2,14.2,5.8,18.9,1.3.8,2.4,1.9,3.8,2.5,2.3,1.1,3.1,2.9,3,5.3-.4,10.4-.3,20.8-1.4,31.1-.9,8.7-3.4,17.2-5.1,25.8h-2c7.5-42.2-5.4-79.2-28.2-113.6.2,1.3.6,2.6,1.1,3.8,6.3,16.7,12.5,33.4,18.9,50-1.3,13.3.5,26.8,5.3,39.3-.9,9-2.2,17.9-3.6,26.9-1,6.6-2.3,13.2-3.5,19.7-1.8-6.7-3-13.2-3.8-19.8-1.8-15-3.5-30-4.8-45.1,1.8-3,2.5-6.4,2.3-9.9,2.6-4.6,1.8-8.4-.7-12.9-2.4,2.9-4.6,5.5-6.8,8.1.4-2.3,1.5-4.1,2.8-5.7,4-5.1,4.1-8.4.1-14.1-2.2,2.7-4.3,5.3-6.5,7.9,1.4-3.4,4.4-5.9,5.2-9.1.8-3.1-.4-6.7-.8-10.1-.2.2-.4.3-.6.3-.3,0-.7-.2-.7-.7l-6.7,8.7c-.3-.2-.6-.4-.9-.6,1-1.4,1.9-2.9,3-4.3,4.7-5.6,5-9,.9-15.1-.6.4-1.3.9-1.9,1.3,3.1-5,0-8.8-1.3-13.4-2.6,3.3-4.8,6.1-7,8.8-.4,0-.7-.2-1.1-.3,4.3-5.8,10.1-11.3,3.6-19.4-2.1,3.5-4,6.8-6,10.3-.3-3.3,0-6.9-1.1-9.7-1.2-2.8-4.1-4.9-6.6-7.8-3.2,7.8-1.7,13.5,3.4,18.6l-10.3-4c-.5,10.2,7.7,11.1,13.4,14.3-3.3-1-6.7-1.9-9.8-2.8-1,10.1,7.2,11.1,14.3,13.2-.3.3-.6.6-.8.8l-9.6-2.7c-1.1,10.4,7.6,10.9,13.7,13.8-2.1,0-3.8-.7-5.5-1.2-1.6-.5-3.3-.9-5-1.4.3,7.2,2.4,9.9,9,11.6,1.7.5,3.3,1.4,4.9,2.1-.1.3-.3.6-.4.8-3.3-1-6.7-2.1-10.2-3.1,1.5,9.2,2.3,10,10.8,12.2,1.3.3,2.4,1.2,3.6,1.9-.1.2-.2.3-.4.5-3.3-1-6.5-2-9.8-3-.7,6.5,1.5,10.1,7.5,11.5,4.7,1,6.3,3.5,6.4,8,0,4.3.9,8.5,1.3,12.8.9,8.1,1.8,16.2,2.6,24.4-3.2-12.1-8.1-23.3-15.3-33.5-7.1-10.2-20.4-24.1-25.4-26.4,23.7,32.3,39.9,67.6,46.8,107.5,1.8-1.1,3.5-2.3,4.1-3.9,3.6-9.6,7.1-19.2,10.4-28.9,7.3-21.5,13.2-43.4,11.8-66.3-.5-8.2,2.2-12.7,9.3-16.1,6.5-3,8.7-11.1,5.5-18.2-4.7,3.5-9.3,6.9-13.7,10.2-.6-2.2.5-4.1,3-5.5,1.7-.9,3.3-2.1,4.9-3.1,6.9-4,9.1-11.1,5.7-19.2-4.7,3.9-9.3,7.7-13.7,11.3-1.3-4.4,3-5.8,6.2-7.7,9.3-5.7,11-9.5,8.1-20.8-5,4.3-9.8,8.5-14,12.1-.3-3.8-.3-3.9,3.5-6.5,1.2-.7,2.5-1.4,3.6-2.3,7.6-4.2,10-11.3,6.8-19.3-2.5,1.6-5.2,3.1-7.6,5-2.3,1.9-4.2,4.2-6.2,6.3,0,0-.2-.2-.2-.5-.5-5.3,4.1-6.1,7.2-7.9,7.5-4.5,9.9-10.9,6.6-19.6-4.7,3.8-9.4,7.5-13.9,11.2.5-1.1.9-3.1,2.1-4.2,2.1-2,4.6-3.5,7-5.2,5.5-3.8,7.6-11.7,4.3-18.6-4.5,4.4-8.8,8.7-13.1,12.9.3-1.3.3-3.1,1-4.6,4.5-9.2,3.6-14.6-3.6-22h0l.2.4Z"/>
    </g>
    <g>
      <path class="cls-6" d="M392.8,476.8c-1.4-.9-2.8-2-3.3-3.3-3.7-9.9-7.2-19.6-10.4-28.9-7-20.5-13.2-42.7-11.7-66.1.5-8.3-2.3-13.1-9.6-16.6-5.9-2.7-8.3-10.1-5.5-17l13.2,9.8h.5c.2,0,.3-.2.3-.3.7-2.4-.5-4.5-3.3-6-.9-.5-1.9-1.1-2.8-1.7-.7-.5-1.4-.9-2.2-1.4-6.5-3.8-8.7-10.5-5.8-17.9l13.1,10.8s.2.1.3.1h.1c.2,0,.3-.2.3-.3,1.2-4.1-1.9-5.8-4.8-7.3-.6-.3-1.1-.6-1.6-.9-9.1-5.5-10.6-9.1-8.1-19.5l13.4,11.5s.2.1.3.1h.2c.2,0,.3-.2.3-.4.3-4.1.2-4.3-4.1-7.1-1.1-.7-2.2-1.4-3.3-2l-.6-.4c-6.6-4-8.9-10.4-6.2-17.7.6.4,1.2.8,1.8,1.1,1.8,1.1,3.6,2.2,5.2,3.5,1.5,1.3,2.9,2.8,4.3,4.3.6.7,1.2,1.3,1.8,2,0,0,.2.2.4.2s0,0,0,0c.2,0,.3-.1.4-.3,0,0,.2-.3.3-.6.4-4.5-2.7-6-5.4-7.4-.7-.3-1.4-.7-2-1-7.2-4.4-9.4-10.4-6.6-18.4l13.4,10.7s.2.1.3.1.2,0,.3-.1c.2-.1.2-.4.1-.6-.1-.3-.3-.7-.4-1.1-.4-1.1-.9-2.4-1.8-3.2-1.7-1.6-3.7-3-5.6-4.2-.5-.3-1-.7-1.4-1-5.3-3.6-7.1-11-4.4-17.3l12.6,12.4s.2.1.4.1h.2c.2-.1.3-.3.3-.5,0-.4-.1-.8-.2-1.2-.2-1.1-.3-2.4-.9-3.5-4.3-8.9-3.6-14.1,3.1-21,5.6,5.6,6.8,13.7,3.1,20.5-.6,1.2-1,2.5-1.4,3.7-.2.6-.3,1.2-.5,1.7,0,.2,0,.5.2.6h.3c0,0,.2,0,.3-.1l12.8-11.9c2.3,8.7.4,14.2-6.7,18.6l-.6.4c-1.4.9-2.9,1.8-4.2,3-.6.5-1,1.3-1.4,2.1-.2.4-.4.8-.6,1.1-.1.2,0,.5.1.6,0,0,.2.1.3.1h.3l12.6-9c2.5,8.7.6,13.6-6.9,18.1-.4.2-.8.4-1.1.7-1.2.7-2.4,1.4-3.5,2.3-.7.6-1,1.4-1.5,2.4-.2.5-.5,1-.8,1.6-.1.2,0,.5.1.6,0,0,.2.1.3.1h.3l13.1-9.2c2.5,8.7.4,13.9-7.3,18.3-.3.2-.6.3-.9.5-1,.5-1.9,1-2.7,1.8-.8.9-1.5,1.9-2.1,2.9-.3.4-.5.9-.8,1.3,0,.1-.1.3,0,.4,0,.1.2.3.3.3l.6.2h.5l12.6-9.3c2.5,8.9.6,13.8-7.2,18.4-.4.2-.7.4-1.1.6-1,.5-2,1.1-2.8,1.9-.8.9-1.4,1.9-2,3-.2.4-.5.9-.8,1.3v.4c0,.1.1.3.3.3l.8.4h.5l12.4-9.1c2.6,8.4.7,13.4-6.7,17.8-.3.2-.7.4-1,.5-.9.5-1.9,1-2.6,1.8-1,1.1-1.9,2.3-2.7,3.5-.3.5-.7,1-1.1,1.5,0,.1-.1.3,0,.4s.1.3.2.3l1,.7h.3c0,0,.2,0,.3-.1.6-.6,1.2-1.1,1.8-1.7,1.3-1.3,2.7-2.6,4.1-3.7,1.6-1.2,3.3-2.3,4.9-3.4.6-.4,1.1-.7,1.7-1.1,2.6,7.9.8,13.2-5.8,17.7-.4.3-.8.6-1.3.9-.8.6-1.6,1.2-2.5,1.6-2.4,1.1-3.4,3-3.3,5.8.1,3.4.2,6.8.3,10.1.2,6.9.3,14.1,1.1,21,.7,6,2,12.1,3.4,18,.6,2.6,1.2,5.3,1.7,7.9,0,.2.2.4.5.4h2c.1,0,.3,0,.4-.2.1-.1.1-.3.1-.4-6.6-37.3,1.8-72.5,26.4-110.8,0,.3-.2.6-.3.8-1.7,4.6-3.5,9.3-5.2,13.9-4.3,11.4-8.7,23.1-13.1,34.7-5.3,13.8-7.3,27-6,40.2.9,9,2.2,17.8,3.6,27.6.7,4.6,1.6,9.2,2.4,13.7.4,2,.8,4.1,1.1,6.1,0,.2.2.4.5.4h0c.2,0,.4-.2.5-.4,1.7-6.5,3-13,3.8-19.9,1.8-15.3,3.5-30.2,4.8-45,.3-3.3-.6-7.2-2.3-10.1-2.5-4.4-1.8-7.9.3-11.9l6.4,7.5c0,.1.2.2.4.2h.2c.2,0,.3-.3.3-.5-.4-2.6-1.8-4.5-2.9-5.9-3.8-4.8-3.9-7.9-.5-13l6.1,7.4c0,.1.2.2.4.2h.3c.2-.1.3-.4.2-.6-.7-1.6-1.6-3-2.6-4.3-1.1-1.6-2.2-3.1-2.6-4.7-.6-2.1,0-4.6.4-7,.2-.9.4-1.9.5-2.9h.6l6.6,8.5c0,.1.2.2.4.2h.3l.9-.6c.1,0,.2-.2.2-.3v-.4c-.3-.4-.6-.9-.9-1.3-.7-1-1.3-2-2.1-2.9-4.5-5.3-4.8-8.4-1.1-14l1.5,1h.3c0,0,.3,0,.3-.1.2-.2.2-.4,0-.6-2.2-3.6-1.1-6.5.2-9.9.3-.7.6-1.4.8-2.2l6.4,8.1c0,.1.2.2.4.2s0,0,.1,0l1.1-.3c.2,0,.3-.2.3-.3v-.5c-.5-.6-1-1.3-1.4-1.9-3.9-5-7.5-9.7-2.6-16.3l5.7,9.6c0,.2.3.2.4.2h.1c.2,0,.4-.2.4-.4.1-1,.1-2.1.2-3.1,0-2.3.1-4.5.9-6.4.8-1.8,2.4-3.4,4.1-5.1s1.3-1.3,1.9-2c2.6,6.8,1.4,12.3-3.5,17.3-.2.2-.2.4,0,.6,0,.1.3.2.4.2h.2l9.7-3.7c0,7.1-4.5,9.2-9.3,11.3-1.3.6-2.6,1.2-3.8,1.8-.2.1-.3.4-.2.6,0,.2.3.3.5.3s0,0,.1,0l9.2-2.7c.5,8-5.3,9.6-11.5,11.4-.8.2-1.7.5-2.5.7-.2,0-.3.2-.3.4s0,.4.1.5l.8.8s.2.2.4.2,0,0,.1,0l9-2.5c.5,7.4-4.4,9.2-9.5,11.1-1.3.5-2.7,1-4,1.6-.2.1-.3.3-.3.6s.3.4.5.4,0,0,0,0c2,0,3.6-.6,5.1-1l.5-.2c1.1-.3,2.3-.6,3.4-.9l.9-.2c-.4,6.4-2.4,8.8-8.6,10.5-1.2.3-2.4.9-3.5,1.4-.5.2-1,.5-1.5.7-.1,0-.2.2-.3.3v.4l.4.8c0,.2.3.3.5.3s0,0,.1,0l9.4-2.9c-1.3,8.2-2.1,8.9-10.2,11-.9.2-1.8.8-2.6,1.3-.4.2-.7.5-1.1.6-.1,0-.2.2-.3.3v.4l.4.5c0,.1.3.2.4.2h.1l9.2-2.8c.5,6-1.7,9.1-7.2,10.3-4.7,1-6.6,3.5-6.8,8.5,0,2.9-.5,5.8-.8,8.7-.2,1.4-.4,2.7-.5,4.1-.6,5.8-1.3,11.7-1.9,17.5l-.7,6.8c0,.3.2.5.4.6h0c.2,0,.4-.2.5-.4,3.3-12.5,8.2-23.4,15.2-33.4,6.3-9,17.2-20.7,23.1-24.9-23.8,33-38.6,67.3-45.2,104.9l-.2-.6Z"/>
      <path class="cls-4" d="M367.9,247.7c5.1,5.4,6.2,13.1,2.6,19.5-.7,1.2-1.1,2.5-1.4,3.8-.2.6-.3,1.2-.5,1.7-.2.4,0,.9.4,1.2.2.1.4.2.6.2s.5,0,.7-.3l12.2-11.3c2,8.1,0,13-6.7,17.2l-.6.4c-1.5.9-3,1.9-4.3,3-.7.6-1.1,1.4-1.5,2.3-.2.4-.4.7-.6,1.1s-.2.9.2,1.3c.2.2.4.3.7.3s.4,0,.6-.2l10.1-7.2,2-1.4c2.1,8,.2,12.6-6.8,16.8-.4.2-.7.4-1.1.7-1.2.7-2.5,1.4-3.6,2.4-.7.7-1.2,1.5-1.7,2.6-.2.5-.5,1-.8,1.6-.2.4-.1.9.2,1.2s.4.3.7.3.4,0,.6-.2l7-4.9,5.5-3.9c2.1,8,0,12.9-7.2,17-.3.2-.6.3-.9.5-1,.5-2,1.1-2.8,1.9s-1.5,2-2.1,3c-.3.4-.5.8-.8,1.3-.2.3-.2.6-.1.9s.3.5.6.6l.6.2h.3c.2,0,.4,0,.6-.2l5.4-4,6.6-4.9c2.2,8.3.2,12.7-7.1,17.1-.4.2-.7.4-1.1.6-1,.6-2.1,1.1-3,2s-1.5,2-2.1,3.1c-.3.4-.5.9-.7,1.3-.2.2-.2.5-.1.8,0,.3.3.5.5.6l.4.2.4.2c.1,0,.3.1.5.1s.4,0,.6-.2l5.4-4,6.4-4.7c2.2,7.7.2,12.4-6.7,16.5-.3.2-.6.4-1,.5-1,.5-2,1-2.7,1.9-1,1.1-1.9,2.3-2.7,3.5-.3.5-.7,1-1.1,1.5-.2.2-.2.5-.2.8s.2.5.4.7l.5.3.5.3c.2.1.4.2.6.2s.5,0,.7-.3c.6-.6,1.2-1.2,1.8-1.7,1.3-1.3,2.6-2.6,4.1-3.7,1.5-1.2,3.2-2.3,4.9-3.3.4-.2.7-.5,1.1-.7,2.2,7.3.4,12.3-5.8,16.5-.4.3-.9.6-1.3.9-.8.6-1.6,1.2-2.4,1.6-2.6,1.2-3.7,3.2-3.6,6.3.1,3.4.2,6.8.3,10.1.2,6.9.3,14.1,1.1,21.1.7,6.1,2.1,12.2,3.4,18,.6,2.6,1.2,5.3,1.7,7.9,0,.5.5.8.9.8h2c.3,0,.6-.1.8-.3s.3-.5.2-.8c-3.6-20.1-2.7-39.5,2.7-59.3,4.2-15.4,11.1-30.9,21-46.9-1.3,3.4-2.6,6.8-3.8,10.2-4.3,11.4-8.7,23.1-13.1,34.6-5.4,13.9-7.3,27.1-6,40.4.9,9,2.2,17.8,3.6,27.7.7,4.6,1.6,9.2,2.4,13.7.4,2,.8,4,1.1,6.1,0,.5.5.8,1,.8h0c.5,0,.9-.3,1-.8,1.7-6.5,3-13.1,3.8-19.9,1.8-15.3,3.5-30.2,4.8-45.1.3-3.4-.6-7.4-2.4-10.4-2.3-3.9-1.8-7.2,0-10.7l5.5,6.5.4.5c.2.2.5.4.8.4h.4c.4-.2.6-.6.6-1.1-.4-2.7-1.8-4.7-3-6.2-3.5-4.4-3.8-7.2-.8-11.8l5.6,6.9c.2.2.5.4.8.4s.4,0,.5-.1c.4-.3.6-.8.4-1.3-.7-1.6-1.7-3-2.7-4.4-1.1-1.5-2.1-3-2.5-4.6-.5-2,0-4.3.4-6.8.1-.8.3-1.5.4-2.3l1.4,1.8,4.9,6.4c.2.3.5.4.8.4s.4,0,.6-.2l.6-.4.3-.2c.2-.2.4-.4.4-.7s0-.5-.2-.8c-.3-.4-.6-.9-.9-1.3-.7-1-1.4-2-2.2-3-4.3-5-4.6-7.9-1.4-13l1.1.7c.2.1.4.2.6.2s.5,0,.7-.3c.3-.3.4-.9.2-1.3-2.1-3.4-1-6.2.3-9.4.2-.4.3-.9.5-1.4l2,2.6,3.8,4.8c.2.2.5.4.8.4h.8c0-.1.5-.3.5-.3.3,0,.6-.3.7-.6s0-.7-.1-.9c-.5-.6-1-1.3-1.4-1.9-3.8-4.9-7.1-9.1-3.1-15.1l5.3,8.9c.2.3.5.5.9.5s.1,0,.2,0c.4,0,.7-.5.8-.9.1-1.1.1-2.1.2-3.2,0-2.3.1-4.4.9-6.2.8-1.7,2.2-3.2,3.9-5,.4-.5.9-.9,1.4-1.4,2.2,6.3,1,11.3-3.7,16s-.4.9-.1,1.3c.2.3.5.5.8.5h.4l5.4-2.1,3.6-1.4c-.2,6.2-4.3,8-9,10.1-1.3.6-2.6,1.2-3.9,1.9-.4.3-.6.8-.4,1.3.2.4.5.6.9.6s.2,0,.3,0l8.6-2.5c.1,7.1-5.1,8.5-11.1,10.2-.8.2-1.7.5-2.5.7-.3.1-.6.4-.7.7,0,.3,0,.7.3,1l.5.5.3.3c.2.2.5.3.7.3h.3l4.7-1.3,3.8-1.1c.2,6.5-4.2,8.1-9.2,10-1.3.5-2.7,1-4,1.6-.4.2-.7.7-.5,1.2.1.5.5.8,1,.8s0,0,0,0c2,0,3.6-.6,5.2-1l.5-.2c1.1-.3,2.2-.6,3.4-.9h.2c-.5,5.7-2.4,7.8-8.2,9.3-1.3.3-2.4.9-3.6,1.4-.5.2-1,.5-1.5.7-.2.1-.4.3-.5.6s0,.5,0,.8v.2l.4.6c.2.4.5.6.9.6s.2,0,.3,0l8.6-2.7c-1.2,7.2-2.1,7.8-9.7,9.8-1,.3-1.9.8-2.8,1.3-.4.2-.7.4-1.1.6-.3.1-.4.4-.5.7,0,.3,0,.6.2.8v.2c.1,0,.4.3.4.3.2.3.5.4.8.4h.3l5.8-1.7,2.8-.8c.3,5.4-1.8,8.1-6.8,9.2-4.9,1.1-7,3.8-7.2,8.9,0,2.9-.5,5.8-.8,8.6-.2,1.3-.4,2.7-.5,4.1-.6,5.7-1.2,11.5-1.9,17.2l-.8,7.1c0,.5.3,1,.8,1.1h.2c.5,0,.9-.3,1-.8,3.2-12.4,8.2-23.3,15.1-33.2,5.4-7.7,14.2-17.4,20.2-22.6-22.5,31.9-36.6,65.2-43.1,101.5-1.1-.8-2.1-1.6-2.5-2.6-3.7-9.8-7.2-19.6-10.4-28.9-7-20.4-13.2-42.6-11.7-65.9.6-8.6-2.3-13.5-9.9-17.1-5.5-2.5-7.8-9.3-5.5-15.7l12.7,9.4c.2.1.4.2.6.2h.3c.3-.1.6-.4.6-.7.8-2.6-.5-5-3.5-6.6-.9-.5-1.8-1.1-2.7-1.7-.7-.5-1.4-.9-2.2-1.4-6.1-3.6-8.2-9.7-5.8-16.6l9.4,7.7,3.2,2.6c.2.2.4.2.6.2h.3c.3,0,.6-.4.7-.7,1.4-4.5-2.2-6.4-5-7.9-.6-.3-1.1-.6-1.6-.9-8.6-5.2-10.2-8.6-8-18.1l4.8,4.1,8,6.9c.2.2.4.2.7.2h.4c.4-.1.6-.5.6-.9.3-4.4,0-4.7-4.3-7.6-1.1-.7-2.2-1.4-3.3-2l-.6-.4c-6.3-3.8-8.5-9.6-6.2-16.5.4.3.9.5,1.3.8,1.7,1.1,3.5,2.2,5.1,3.5,1.5,1.2,2.9,2.8,4.3,4.2.6.7,1.2,1.3,1.8,2,.2.2.5.3.7.3h.2c.3,0,.5-.2.7-.5,0-.1.3-.5.4-.9.5-4.9-3-6.6-5.7-7.9-.7-.3-1.4-.7-2-1-6.9-4.1-9-9.6-6.6-17.1l7.6,6.1,5.2,4.2c.2.1.4.2.6.2s.4,0,.6-.2c.4-.3.5-.8.3-1.2-.1-.3-.3-.6-.4-1-.4-1.1-.9-2.5-1.9-3.4-1.7-1.6-3.7-3-5.7-4.3-.5-.3-1-.6-1.4-1-4.9-3.4-6.7-10-4.5-16l8.9,8.8,3.1,3.1c.2.2.5.3.7.3s.3,0,.5-.1c.4-.2.6-.7.5-1.1,0-.4-.1-.8-.2-1.2-.2-1.2-.3-2.5-.9-3.7-4.1-8.5-3.5-13.5,2.7-20.1M367.9,246.2c-7.2,7.3-8,12.8-3.6,22,.7,1.5.8,3.3,1,4.6-4.3-4.2-8.6-8.5-13.1-12.9-3.3,6.9-1.3,14.8,4.3,18.6,2.4,1.6,4.9,3.2,7,5.2,1.2,1.1,1.6,3.1,2.1,4.2-4.6-3.7-9.2-7.4-13.9-11.2-3.3,8.8-.9,15.1,6.6,19.6,3.1,1.9,7.7,2.7,7.2,7.9,0,.2-.2.4-.2.5-2-2.1-3.9-4.4-6.2-6.3-2.3-1.9-5-3.4-7.6-5-3.1,7.8-.9,14.7,6.2,18.9,1.3.8,2.6,1.6,3.9,2.4,2.8,1.8,4.1,4,3.9,6.7-4.2-3.6-9-7.7-14-12.1-2.9,11.3-1.3,15.1,8.1,20.8,3.2,1.9,7.5,3.2,6.2,7.7-4.3-3.6-8.9-7.4-13.7-11.3-3.4,8-1.2,15.2,5.7,19.2,1.7,1,3.2,2.1,4.9,3.1,2.5,1.4,3.7,3.3,3,5.5-4.4-3.3-9-6.7-13.7-10.2-3.2,7.1-1.1,15.2,5.5,18.2,7.2,3.3,9.9,7.8,9.3,16.1-1.5,22.9,4.4,44.8,11.8,66.3,3.3,9.7,6.8,19.3,10.4,28.9.6,1.6,2.4,2.8,4.1,3.9,6.9-39.9,23.1-75.3,46.8-107.5-5,2.3-18.4,16.2-25.4,26.4-7.1,10.2-12.1,21.4-15.3,33.5.9-8.1,1.7-16.2,2.6-24.4.5-4.3,1.2-8.5,1.3-12.8,0-4.5,1.7-6.9,6.4-8,6.1-1.3,8.2-5,7.5-11.5-3.3,1-6.6,2-9.8,3-.1-.2-.2-.3-.4-.5,1.2-.6,2.3-1.6,3.6-1.9,8.5-2.2,9.3-3,10.8-12.2-3.5,1.1-6.8,2.1-10.2,3.1-.1-.3-.3-.6-.4-.8,1.6-.7,3.2-1.6,4.9-2.1,6.6-1.8,8.7-4.4,9-11.6-1.7.5-3.4.9-5,1.4-1.7.5-3.4,1.1-5.5,1.2,6.2-3,14.8-3.4,13.7-13.8-3.2.9-6.4,1.8-9.6,2.7l-.8-.8c7-2.2,15.2-3.1,14.3-13.2-3.2.9-6.5,1.9-9.8,2.8,5.7-3.3,13.9-4.2,13.4-14.3-3.5,1.4-6.9,2.7-10.3,4,5.1-5.1,6.5-10.8,3.4-18.6-2.6,2.9-5.4,5-6.6,7.8s-.8,6.4-1.1,9.7c-2-3.5-4-6.8-6-10.3-6.5,8.1-.7,13.6,3.6,19.4-.4,0-.7.2-1.1.3-2.2-2.7-4.4-5.5-7-8.8-1.3,4.6-4.3,8.4-1.3,13.4-.6-.4-1.3-.9-1.9-1.3-4.1,6-3.8,9.5.9,15.1,1.1,1.3,2,2.8,3,4.3-.3.2-.6.4-.9.6-2.2-2.9-4.5-5.8-6.7-8.7h-1.3c-.4,3.5-1.7,7.3-.9,10.5.8,3.2,3.8,5.8,5.2,9.1-2.2-2.6-4.3-5.3-6.5-7.9-4,5.7-3.9,9.1.1,14.1,1.3,1.6,2.4,3.4,2.8,5.7-2.2-2.6-4.4-5.2-6.8-8.1-2.5,4.5-3.3,8.3-.6,13,1.6,2.8,2.5,6.6,2.2,9.8-1.3,15-3,30-4.8,45-.8,6.6-2,13.1-3.8,19.8-1.2-6.6-2.5-13.1-3.5-19.7-1.4-9.2-2.7-18.4-3.6-27.6-1.4-13.8,1-27,6-39.9,6.2-16.2,12.2-32.4,18.3-48.6.5-1.2.9-2.5,1.1-3.8-22.8,34.4-35.7,71.4-28.2,113.7h-2c-1.8-8.6-4.2-17.1-5.1-25.8-1.1-10.3-.9-20.8-1.4-31.1-.1-2.5.7-4.2,3-5.3,1.4-.6,2.5-1.7,3.8-2.5,7-4.7,8.8-10.4,5.8-18.9-2.4,1.6-4.9,3-7.2,4.8-2.1,1.7-4,3.7-5.9,5.5-.3-.2-.7-.5-1-.7,1.2-1.7,2.3-3.4,3.7-4.9.9-1,2.3-1.5,3.5-2.2,7.8-4.6,9.7-10,6.8-19-4.3,3.2-8.6,6.4-12.9,9.5-.3-.1-.5-.3-.8-.4.9-1.4,1.6-3,2.7-4.2,1-1.1,2.5-1.7,3.8-2.4,8.1-4.8,10.1-9.9,7.2-19.6-4.5,3.3-8.8,6.5-13.2,9.7-.2,0-.4-.1-.6-.2.9-1.4,1.6-2.9,2.8-4.1.9-1,2.3-1.5,3.5-2.2,8.1-4.6,10.2-10.2,7.3-19.5-4.3,3-8.5,6-13.7,9.6,1-1.8,1.4-3.1,2.3-3.9,1.3-1.2,3-2,4.5-2.9,7.8-4.7,9.8-10,6.9-19.4-4.3,3-8.5,6.1-13.2,9.4.7-1.2,1.1-2.4,1.9-3.1,1.5-1.3,3.1-2.3,4.8-3.3,7.4-4.6,9.5-10.4,6.7-20-4.5,4.2-8.8,8.2-13.4,12.4.6-1.8,1-3.8,1.9-5.4,3.9-7,2.5-15.7-3.5-21.4h0v-.5Z"/>
    </g>
  </g>
</svg>