<?xml version="1.0" encoding="UTF-8"?>
<svg id="Layer_1" data-name="Layer 1" xmlns="http://www.w3.org/2000/svg" version="1.1" viewBox="0 0 185.8 162.7">
  <defs>
    <style>
      .cls-1 {
        fill: #000;
        stroke-width: 0px;
      }
    </style>
  </defs>
  <path class="cls-1" d="M106.8,132.5c-18.5,0-36.9,0-55.4,0-4.5,0-7.6-1.9-9.1-5.9-.4-1.1-.5-2.5-.5-3.7,0-5-.1-10,0-14.9.2-5.3-1.3-10.4-2.2-15.6-1.4-8.1-3-16.1-4.4-24.1-2-10.6-4-21.2-5.9-31.8-1.5-7.9-2.9-15.8-4.3-23.8-.6-3.4-.5-3.4-4-3.4-5,0-10.1,0-15.1,0-2.8,0-4.6-1.6-4.6-4.2,0-2.5,1.8-4.3,4.5-4.4,6,0,12-.1,18,0,5,.1,8.5,3.5,9.3,8.4.5,3.1,1.2,6.2,1.7,9.3.2,1.4.9,1.8,2.3,1.8,14.1,0,28.1,0,42.2,0,33.3,0,66.7,0,100,0,4.5,0,6.1,2.1,5.3,6.5-1.7,8.7-3.3,17.5-5,26.2-1.7,8.6-3.4,17.2-5.1,25.9-1.2,5.8-2.2,11.7-3.4,17.5-.6,2.8-1.9,3.8-4.7,4-3.7.2-7.4.5-11.1.7-13,.7-26,1.4-39,2.2-17.2,1-34.3,2.1-51.5,3.2-4.2.3-8.3.5-12.5.7-1.3,0-1.7.5-1.7,1.8,0,4.3,0,8.6,0,12.9,0,1.6.5,2.1,2.1,2.1,15.8,0,31.6,0,47.3,0,21.2,0,42.4,0,63.6,0,2.8,0,4.7,1.7,4.8,4.3,0,2.6-1.7,4.2-4.7,4.2-18.8,0-37.6,0-56.4,0h0ZM94,29c0,.8,0,1.5,0,2.2.2,3.2.5,6.4.6,9.6,0,1.5.7,1.8,2,1.8,7.2-.2,14.4-.3,21.6-.4,1.2,0,1.7-.4,1.8-1.7,0-3.2.2-6.4.4-9.6.1-1.6-.4-2-2-2-7.5,0-15.1,0-22.6,0-.6,0-1.1,0-1.8.1ZM36.5,29c.9,4.7,1.6,9.1,2.5,13.4,0,.4,1,.9,1.5.9,6.9,0,13.7-.1,20.6-.2,1.4,0,1.8-.5,1.6-1.8-.6-3.5-1.2-7.1-1.6-10.7-.2-1.3-.7-1.8-2.1-1.8-6.9,0-13.7,0-20.6,0-.6,0-1.1,0-2,.1ZM64.7,29.1c.6,4.1,1.3,8.1,1.8,12,.2,1.6,1,1.9,2.4,1.9,6.8-.2,13.6-.3,20.4-.4,1.3,0,1.7-.5,1.6-1.8-.3-3.4-.6-6.8-.7-10.3,0-1.4-.6-1.7-1.9-1.7-7.4,0-14.8,0-22.1,0-.4,0-.8,0-1.5.2ZM55,64.6c0,.2,0-.2,0,0-3.4,0-6.9.6-10.3.6-1.1,0-1.6.3-1.3,1.5.8,3.8,1.5,7.6,2.1,11.4.2,1.4.8,1.8,2.1,1.7,6.3-.3,12.7-.6,19-.8,1.3,0,1.7-.5,1.5-1.8-.6-3.8-1.2-7.6-1.8-11.3-.2-1.2-.7-1.4-1.8-1.4-3.2,0-6.4,0-9.6,0ZM51.8,47.1c0,.1,0-.1,0,0-3.4,0-6.8,0-10.3,0-1.2,0-1.6.4-1.4,1.6.8,3.9,1.4,7.7,2.2,11.6,0,.5.8,1.1,1.3,1.1,6.9-.2,13.8-.4,20.7-.6,1,0,1.3-.5,1.2-1.4-.6-3.5-1.2-7.1-1.7-10.6-.2-1.7-1-2.1-2.6-2-3.1.1-6.3.4-9.4.4ZM58,82.9c0,.3,0-.3,0,0-3.2,0-6.5.8-9.7.8-1.4,0-1.6.5-1.4,1.8.8,4,1.5,8,2.2,11.9.2,1.1.7,1.4,1.7,1.3,6.2-.4,12.4-.8,18.6-1.2,1.3,0,1.7-.6,1.5-1.8-.6-3.8-1.2-7.7-1.8-11.5-.2-1.1-.6-1.4-1.7-1.4-3.1,0-6.3,0-9.4,0ZM80.6,60.2c0,0,0,0,0,0,3.3,0,6.5-.2,9.8-.2,1.3,0,1.7-.5,1.6-1.7-.3-3.6-.5-7.2-.7-10.8,0-1.1-.8-1.1-1.5-1.1-7,0-13.9.2-20.9.2-1.3,0-1.6.6-1.4,1.7.6,3.5,1.2,7,1.7,10.5.2,1.4.8,1.9,2.3,1.8,3.1-.2,6.2-.3,9.2-.5ZM107.5,59.6c0,0,0,0,0,0,3.4-.2,6.7-.6,10.1-.6,1.3,0,1.8-.6,1.8-1.8,0-3.1.2-6.3.4-9.4,0-1.4-.3-1.9-1.8-1.9-7.1.2-14.2.3-21.2.4-1.2,0-1.6.4-1.5,1.6.3,3.4.5,6.7.7,10.1,0,1.4.6,1.7,1.9,1.7,3.3,0,6.5,0,9.8,0ZM107.7,77.2c0-.1,0,.1,0,0,3,0,5.9-.4,8.9-.3,1.6,0,2.3-.6,2.3-2.2,0-3.4.1-6.7.3-10.1,0-1.4-.3-1.9-1.8-1.8-6.5.3-13,.5-19.5.7-1.2,0-1.6.4-1.5,1.6.3,3.6.6,7.3.8,10.9,0,1.5.7,1.8,2,1.7,2.8-.2,5.7-.3,8.5-.5ZM81.6,64.1c0,0,0,0,0,0-3.3,0-6.5.2-9.8.2-1.2,0-1.8.4-1.6,1.7.6,3.8,1.2,7.6,1.8,11.3.2,1.1.7,1.5,1.8,1.5,6-.4,12-.7,18-.9,1.3,0,1.7-.5,1.6-1.8-.3-3.5-.6-7.1-.7-10.6,0-1.5-.8-1.9-2.2-1.8-3,.2-5.9.3-8.9.4ZM136.3,28.9h0c-3.5,0-7.1,0-10.6,0-1.1,0-1.6.3-1.6,1.4,0,3.4-.2,6.9-.4,10.3,0,1,.4,1.4,1.4,1.4,6.8,0,13.6-.2,20.4-.2,1,0,1.5-.4,1.6-1.3.4-3.3.8-6.7,1.2-10,.2-1.3-.4-1.5-1.5-1.5-3.5,0-7,0-10.5,0ZM88.7,81.9c0,0,0,0,0,0-4.7.2-9.5.4-14.2.6-1.3,0-1.8.5-1.5,1.8.6,3.9,1.2,7.9,1.8,11.9.1.9.6,1.3,1.5,1.2,5.7-.4,11.4-.7,17.1-1.1.9,0,1.4-.4,1.3-1.4-.3-3.9-.6-7.9-.8-11.8,0-1-.6-1.4-1.5-1.4-1.2,0-2.4.2-3.6.2ZM118.2,87.5c0,0,0,0,0,0,0-1.7.2-3.4.3-5.1.1-1.6-.5-2-2-1.8-3.9.3-7.8.4-11.6.6-2.1.1-4.1.2-6.2.4-.5,0-1.2.8-1.2,1.2.2,3.9.5,7.9.8,11.8,0,1.1.5,1.5,1.6,1.4,5.5-.4,11.1-.8,16.6-1.1,1.1,0,1.7-.5,1.7-1.7,0-1.9,0-3.8,0-5.7ZM122.8,69.6c0,0,0,0,0,0,0,1.7,0,3.3-.2,5-.2,1.5.4,2,1.9,1.9,5.5-.3,11.1-.6,16.6-.7,1.6,0,2.1-.7,2.3-2.1.3-3.3.6-6.7,1-10,.2-1.3-.3-1.7-1.6-1.7-6.1.2-12.2.5-18.3.6-1.1,0-1.6.4-1.5,1.5,0,1.8-.2,3.7-.2,5.5ZM135.1,45.8c0,.1,0-.1,0,0-3.2,0-6.4,0-9.6,0-1.4,0-2.1.4-2.1,1.9,0,3.1-.2,6.2-.4,9.2-.1,1.5.3,2,1.9,1.9,6.2-.3,12.3-.5,18.5-.6,1.1,0,1.7-.4,1.8-1.5.3-3.2.7-6.3,1.1-9.5.2-1.3-.3-1.7-1.6-1.7-3.2,0-6.4.3-9.6.3ZM175.2,29.3c-.3-.2-.5-.3-.6-.3-7.1,0-14.2,0-21.3,0-.4,0-1,.7-1.1,1.1-.5,3.2-.8,6.5-1.2,9.7-.2,1.3.1,1.9,1.6,1.8,6.2-.2,12.5-.3,18.7-.4,1.1,0,1.7-.4,1.9-1.5.7-3.5,1.3-6.9,2-10.5ZM122,87.3c-.1,0,.1,0,0,0,0,1.9,0,3.8,0,5.6,0,1.1.3,1.6,1.5,1.5,5.3-.4,10.6-.7,15.9-1,1.2,0,1.6-.5,1.7-1.6.4-3.5.8-7,1.2-10.5.2-1.5-.4-1.9-1.8-1.8-5.6.3-11.2.5-16.8.7-1.2,0-1.3.6-1.4,1.6-.2,1.7-.4,3.7-.4,5.5ZM156.5,75.3c0,0,0,0,0,0,2.9-.2,5.7-.6,8.5-.9.5,0,1.3-.5,1.4-.9.8-3.7,1.5-7.4,2.2-11.1.2-.9-.1-1.4-1.2-1.3-5.8.2-11.6.3-17.5.5-1.2,0-1.7.6-1.8,1.8-.4,3.5-.8,6.9-1.2,10.4-.2,1.3.3,1.6,1.5,1.5,2.7,0,5.4,0,8,0ZM172,45.4c-.5-.1-.8-.3-1.2-.3-6.4,0-12.8.1-19.2.2-1.1,0-1.4.7-1.5,1.6-.3,3-.7,6-1.1,9-.3,1.9-.1,2.1,1.8,2,5-.2,9.9-.3,14.9-.5,3.7-.1,3.8,0,4.6-3.7.6-2.8,1.1-5.6,1.7-8.4ZM165.3,78.6c-.3-.2-.4-.3-.5-.3-5.8.2-11.5.4-17.3.8-.5,0-1.2.8-1.3,1.3-.6,3.8-1,7.7-1.4,11.5-.1.9.2,1.3,1.2,1.2,5.2-.4,10.5-.7,15.7-1.1.5,0,1.3-.8,1.4-1.3.7-3.2,1.4-6.5,2-9.7.2-.8.2-1.7.2-2.4Z"/>
  <path class="cls-1" d="M152.4,136.5c6.7,0,12.1,5.5,12,12.1,0,6.6-5.7,12.1-12.2,12-6.6,0-12-5.6-12-12.2,0-6.7,5.4-12,12.2-12ZM155.8,148.5c0-2-1.6-3.5-3.6-3.5-2,0-3.5,1.6-3.4,3.7,0,1.9,1.7,3.5,3.5,3.5,1.9,0,3.5-1.7,3.5-3.6Z"/>
  <path class="cls-1" d="M43.1,148.4c0-6.7,5.4-12,12.2-11.9,6.7,0,12.1,5.5,12,12.2-.1,6.8-5.5,11.9-12.2,12-6.7,0-11.9-5.5-11.9-12.2ZM51.6,148.6c0,2,1.7,3.6,3.6,3.5,1.8,0,3.4-1.7,3.5-3.6,0-2-1.6-3.6-3.6-3.6-2,0-3.5,1.6-3.5,3.6Z"/>
</svg>